<mxfile host="app.diagrams.net" modified="2021-08-17T12:39:44.095Z" agent="5.0 (Macintosh; Intel Mac OS X 10_15_7) AppleWebKit/537.36 (KHTML, like Gecko) Chrome/92.0.4515.159 Safari/537.36" etag="3QKjNSlBXrYnpEJNL2ht" version="14.9.7" type="github">
  <diagram id="dF-v_Ml9PRLrE7ZlsqZ6" name="第 1 页">
    <mxGraphModel dx="-431" dy="-681" grid="1" gridSize="10" guides="1" tooltips="1" connect="1" arrows="1" fold="1" page="1" pageScale="1" pageWidth="827" pageHeight="1169" math="0" shadow="0">
      <root>
        <mxCell id="0" />
        <mxCell id="1" parent="0" />
        <mxCell id="zemC2-BOqZlxE-PlAdGb-83" value="" style="rounded=0;whiteSpace=wrap;html=1;fillColor=#66B2FF;" vertex="1" parent="1">
          <mxGeometry x="1020" y="2100" width="1260" height="130" as="geometry" />
        </mxCell>
        <mxCell id="zemC2-BOqZlxE-PlAdGb-84" value="" style="rounded=0;whiteSpace=wrap;html=1;fillColor=#66B2FF;" vertex="1" parent="1">
          <mxGeometry x="1020" y="1770" width="1260" height="320" as="geometry" />
        </mxCell>
        <mxCell id="zemC2-BOqZlxE-PlAdGb-85" value="" style="rounded=0;whiteSpace=wrap;html=1;fillColor=#66B2FF;" vertex="1" parent="1">
          <mxGeometry x="1020" y="1390" width="1260" height="370" as="geometry" />
        </mxCell>
        <mxCell id="zemC2-BOqZlxE-PlAdGb-86" style="edgeStyle=orthogonalEdgeStyle;rounded=0;orthogonalLoop=1;jettySize=auto;html=1;entryX=0;entryY=0.5;entryDx=0;entryDy=0;" edge="1" parent="1" source="zemC2-BOqZlxE-PlAdGb-89" target="zemC2-BOqZlxE-PlAdGb-91">
          <mxGeometry relative="1" as="geometry" />
        </mxCell>
        <mxCell id="zemC2-BOqZlxE-PlAdGb-87" style="edgeStyle=orthogonalEdgeStyle;rounded=0;orthogonalLoop=1;jettySize=auto;html=1;" edge="1" parent="1" source="zemC2-BOqZlxE-PlAdGb-89" target="zemC2-BOqZlxE-PlAdGb-92">
          <mxGeometry relative="1" as="geometry" />
        </mxCell>
        <mxCell id="zemC2-BOqZlxE-PlAdGb-88" style="edgeStyle=orthogonalEdgeStyle;rounded=0;orthogonalLoop=1;jettySize=auto;html=1;" edge="1" parent="1" source="zemC2-BOqZlxE-PlAdGb-89" target="zemC2-BOqZlxE-PlAdGb-93">
          <mxGeometry relative="1" as="geometry" />
        </mxCell>
        <mxCell id="zemC2-BOqZlxE-PlAdGb-89" value="（C端）&lt;br&gt;展示售卖页面" style="rounded=0;whiteSpace=wrap;html=1;" vertex="1" parent="1">
          <mxGeometry x="1155" y="1465.63" width="110" height="86.25" as="geometry" />
        </mxCell>
        <mxCell id="zemC2-BOqZlxE-PlAdGb-90" style="edgeStyle=orthogonalEdgeStyle;rounded=0;orthogonalLoop=1;jettySize=auto;html=1;entryX=0.009;entryY=0.4;entryDx=0;entryDy=0;entryPerimeter=0;exitX=0.5;exitY=1;exitDx=0;exitDy=0;" edge="1" parent="1" source="zemC2-BOqZlxE-PlAdGb-91" target="zemC2-BOqZlxE-PlAdGb-95">
          <mxGeometry relative="1" as="geometry" />
        </mxCell>
        <mxCell id="zemC2-BOqZlxE-PlAdGb-91" value="3. &lt;br&gt;根据套餐创建待付款订单" style="rounded=0;whiteSpace=wrap;html=1;" vertex="1" parent="1">
          <mxGeometry x="1335" y="1460" width="110" height="97.5" as="geometry" />
        </mxCell>
        <mxCell id="zemC2-BOqZlxE-PlAdGb-92" value="1.&lt;br&gt;获取套餐详情" style="ellipse;whiteSpace=wrap;html=1;" vertex="1" parent="1">
          <mxGeometry x="1065" y="1617.5" width="120" height="80" as="geometry" />
        </mxCell>
        <mxCell id="zemC2-BOqZlxE-PlAdGb-93" value="2.&lt;br&gt;计算各种优惠券" style="ellipse;whiteSpace=wrap;html=1;" vertex="1" parent="1">
          <mxGeometry x="1195" y="1657.5" width="120" height="80" as="geometry" />
        </mxCell>
        <mxCell id="zemC2-BOqZlxE-PlAdGb-94" style="edgeStyle=orthogonalEdgeStyle;rounded=0;orthogonalLoop=1;jettySize=auto;html=1;exitX=0.5;exitY=1;exitDx=0;exitDy=0;" edge="1" parent="1" source="zemC2-BOqZlxE-PlAdGb-95" target="zemC2-BOqZlxE-PlAdGb-97">
          <mxGeometry relative="1" as="geometry">
            <mxPoint x="1515" y="1987.5" as="targetPoint" />
          </mxGeometry>
        </mxCell>
        <mxCell id="zemC2-BOqZlxE-PlAdGb-95" value="4.&lt;br&gt;根据需要支付金额调用支付服务" style="rounded=0;whiteSpace=wrap;html=1;" vertex="1" parent="1">
          <mxGeometry x="1450" y="1800" width="110" height="97.5" as="geometry" />
        </mxCell>
        <mxCell id="zemC2-BOqZlxE-PlAdGb-96" style="edgeStyle=orthogonalEdgeStyle;rounded=0;orthogonalLoop=1;jettySize=auto;html=1;" edge="1" parent="1" source="zemC2-BOqZlxE-PlAdGb-97" target="zemC2-BOqZlxE-PlAdGb-99">
          <mxGeometry relative="1" as="geometry" />
        </mxCell>
        <mxCell id="zemC2-BOqZlxE-PlAdGb-97" value="用户付款成功" style="shape=process;whiteSpace=wrap;html=1;backgroundOutline=1;" vertex="1" parent="1">
          <mxGeometry x="1445" y="2007.5" width="120" height="60" as="geometry" />
        </mxCell>
        <mxCell id="zemC2-BOqZlxE-PlAdGb-98" style="edgeStyle=orthogonalEdgeStyle;rounded=0;orthogonalLoop=1;jettySize=auto;html=1;" edge="1" parent="1" source="zemC2-BOqZlxE-PlAdGb-99" target="zemC2-BOqZlxE-PlAdGb-102">
          <mxGeometry relative="1" as="geometry" />
        </mxCell>
        <mxCell id="zemC2-BOqZlxE-PlAdGb-99" value="5.&amp;nbsp;&lt;br&gt;支付成功、增加钱包" style="rounded=1;whiteSpace=wrap;html=1;" vertex="1" parent="1">
          <mxGeometry x="1615" y="1867.5" width="120" height="60" as="geometry" />
        </mxCell>
        <mxCell id="zemC2-BOqZlxE-PlAdGb-100" style="edgeStyle=orthogonalEdgeStyle;rounded=0;orthogonalLoop=1;jettySize=auto;html=1;" edge="1" parent="1" source="zemC2-BOqZlxE-PlAdGb-102" target="zemC2-BOqZlxE-PlAdGb-104">
          <mxGeometry relative="1" as="geometry">
            <Array as="points">
              <mxPoint x="2095" y="1570" />
            </Array>
          </mxGeometry>
        </mxCell>
        <mxCell id="zemC2-BOqZlxE-PlAdGb-101" style="edgeStyle=orthogonalEdgeStyle;rounded=0;orthogonalLoop=1;jettySize=auto;html=1;" edge="1" parent="1" source="zemC2-BOqZlxE-PlAdGb-102" target="zemC2-BOqZlxE-PlAdGb-103">
          <mxGeometry relative="1" as="geometry" />
        </mxCell>
        <mxCell id="zemC2-BOqZlxE-PlAdGb-102" value="6.&amp;nbsp;&lt;br&gt;通知订单服务执行扣款加功能" style="rounded=1;whiteSpace=wrap;html=1;" vertex="1" parent="1">
          <mxGeometry x="1740" y="1545" width="120" height="60" as="geometry" />
        </mxCell>
        <mxCell id="zemC2-BOqZlxE-PlAdGb-103" value="7.1&amp;nbsp;&lt;br&gt;使用优惠券&amp;amp;虚拟币逻辑" style="rounded=1;whiteSpace=wrap;html=1;" vertex="1" parent="1">
          <mxGeometry x="1890" y="2125" width="140" height="75" as="geometry" />
        </mxCell>
        <mxCell id="zemC2-BOqZlxE-PlAdGb-104" value="7.2&lt;br&gt;调用权益服务 扣钱包&amp;amp;加权益" style="rounded=1;whiteSpace=wrap;html=1;" vertex="1" parent="1">
          <mxGeometry x="2050" y="2120" width="140" height="80" as="geometry" />
        </mxCell>
        <mxCell id="zemC2-BOqZlxE-PlAdGb-105" value="订单售卖服务" style="ellipse;whiteSpace=wrap;html=1;fillColor=#B9E0A5;" vertex="1" parent="1">
          <mxGeometry x="1085" y="1410" width="250" height="47" as="geometry" />
        </mxCell>
        <mxCell id="zemC2-BOqZlxE-PlAdGb-106" value="支付服务" style="ellipse;whiteSpace=wrap;html=1;fillColor=#B9E0A5;" vertex="1" parent="1">
          <mxGeometry x="1020" y="1825.25" width="180" height="47" as="geometry" />
        </mxCell>
        <mxCell id="zemC2-BOqZlxE-PlAdGb-107" value="权益系统" style="ellipse;whiteSpace=wrap;html=1;fillColor=#B9E0A5;" vertex="1" parent="1">
          <mxGeometry x="1045" y="2145" width="130" height="60" as="geometry" />
        </mxCell>
        <mxCell id="zemC2-BOqZlxE-PlAdGb-108" style="edgeStyle=orthogonalEdgeStyle;curved=1;rounded=0;orthogonalLoop=1;jettySize=auto;html=1;entryX=0.5;entryY=0;entryDx=0;entryDy=0;exitX=0;exitY=0.5;exitDx=0;exitDy=0;" edge="1" parent="1" source="zemC2-BOqZlxE-PlAdGb-110" target="zemC2-BOqZlxE-PlAdGb-111">
          <mxGeometry relative="1" as="geometry">
            <mxPoint x="1030" y="2600" as="targetPoint" />
          </mxGeometry>
        </mxCell>
        <mxCell id="zemC2-BOqZlxE-PlAdGb-109" style="edgeStyle=orthogonalEdgeStyle;curved=1;rounded=0;orthogonalLoop=1;jettySize=auto;html=1;entryX=0.5;entryY=0;entryDx=0;entryDy=0;" edge="1" parent="1" source="zemC2-BOqZlxE-PlAdGb-110" target="zemC2-BOqZlxE-PlAdGb-112">
          <mxGeometry relative="1" as="geometry">
            <mxPoint x="1360" y="2475" as="targetPoint" />
          </mxGeometry>
        </mxCell>
        <mxCell id="zemC2-BOqZlxE-PlAdGb-110" value="兑换码&lt;br&gt;【cdkey_code】" style="rounded=0;whiteSpace=wrap;html=1;fillColor=#B9E0A5;" vertex="1" parent="1">
          <mxGeometry x="1175" y="2470" width="120" height="60" as="geometry" />
        </mxCell>
        <mxCell id="zemC2-BOqZlxE-PlAdGb-111" value="1. 每一批次兑换码关联对应分销商&lt;br&gt;2. 每一批兑换码都会标注具体分销价格&lt;br&gt;3. 每一批次兑换都会关联对应套餐ID" style="rounded=0;whiteSpace=wrap;html=1;fillColor=#B9E0A5;align=left;" vertex="1" parent="1">
          <mxGeometry x="980" y="2610" width="220" height="100" as="geometry" />
        </mxCell>
        <mxCell id="zemC2-BOqZlxE-PlAdGb-112" value="&lt;div style=&quot;text-align: left&quot;&gt;&lt;span&gt;1. 确定兑换码使用记录&lt;/span&gt;&lt;/div&gt;&lt;div style=&quot;text-align: left&quot;&gt;&lt;span&gt;2. 调用订单售卖执行兑换动作&lt;/span&gt;&lt;/div&gt;&lt;div style=&quot;text-align: left&quot;&gt;&lt;span&gt;3. 确定权益变动记录&lt;/span&gt;&lt;/div&gt;" style="rounded=0;whiteSpace=wrap;html=1;fillColor=#B9E0A5;" vertex="1" parent="1">
          <mxGeometry x="1315" y="2607.5" width="185" height="105" as="geometry" />
        </mxCell>
        <mxCell id="zemC2-BOqZlxE-PlAdGb-113" value="&lt;span&gt;exchangeCode&lt;/span&gt;" style="text;html=1;align=center;verticalAlign=middle;resizable=0;points=[];autosize=1;" vertex="1" parent="1">
          <mxGeometry x="1315" y="2540" width="100" height="20" as="geometry" />
        </mxCell>
        <mxCell id="zemC2-BOqZlxE-PlAdGb-114" style="edgeStyle=orthogonalEdgeStyle;curved=1;rounded=0;orthogonalLoop=1;jettySize=auto;html=1;" edge="1" parent="1" source="zemC2-BOqZlxE-PlAdGb-118" target="zemC2-BOqZlxE-PlAdGb-119">
          <mxGeometry relative="1" as="geometry" />
        </mxCell>
        <mxCell id="zemC2-BOqZlxE-PlAdGb-115" value="1" style="edgeLabel;html=1;align=center;verticalAlign=middle;resizable=0;points=[];" vertex="1" connectable="0" parent="zemC2-BOqZlxE-PlAdGb-114">
          <mxGeometry x="-0.3541" y="18" relative="1" as="geometry">
            <mxPoint as="offset" />
          </mxGeometry>
        </mxCell>
        <mxCell id="zemC2-BOqZlxE-PlAdGb-116" style="edgeStyle=orthogonalEdgeStyle;curved=1;rounded=0;orthogonalLoop=1;jettySize=auto;html=1;entryX=0;entryY=0.5;entryDx=0;entryDy=0;" edge="1" parent="1" source="zemC2-BOqZlxE-PlAdGb-118" target="zemC2-BOqZlxE-PlAdGb-121">
          <mxGeometry relative="1" as="geometry" />
        </mxCell>
        <mxCell id="zemC2-BOqZlxE-PlAdGb-117" value="2" style="edgeLabel;html=1;align=center;verticalAlign=middle;resizable=0;points=[];" vertex="1" connectable="0" parent="zemC2-BOqZlxE-PlAdGb-116">
          <mxGeometry x="0.1546" y="2" relative="1" as="geometry">
            <mxPoint as="offset" />
          </mxGeometry>
        </mxCell>
        <mxCell id="zemC2-BOqZlxE-PlAdGb-118" value="调用方获取到用户购买记录" style="rounded=0;whiteSpace=wrap;html=1;fillColor=#B9E0A5;" vertex="1" parent="1">
          <mxGeometry x="1700" y="2500" width="130" height="70" as="geometry" />
        </mxCell>
        <mxCell id="zemC2-BOqZlxE-PlAdGb-119" value="生成订单" style="rounded=0;whiteSpace=wrap;html=1;fillColor=#B9E0A5;" vertex="1" parent="1">
          <mxGeometry x="1928" y="2450" width="130" height="70" as="geometry" />
        </mxCell>
        <mxCell id="zemC2-BOqZlxE-PlAdGb-120" value="3 - 钱包加钱成功后&lt;br&gt;通知订单服务" style="edgeStyle=orthogonalEdgeStyle;curved=1;rounded=0;orthogonalLoop=1;jettySize=auto;html=1;entryX=0;entryY=0.5;entryDx=0;entryDy=0;" edge="1" parent="1" source="zemC2-BOqZlxE-PlAdGb-121" target="zemC2-BOqZlxE-PlAdGb-122">
          <mxGeometry relative="1" as="geometry" />
        </mxCell>
        <mxCell id="zemC2-BOqZlxE-PlAdGb-121" value="调用钱包basepay三方渠道付款接口" style="rounded=0;whiteSpace=wrap;html=1;fillColor=#B9E0A5;" vertex="1" parent="1">
          <mxGeometry x="1928" y="2580" width="130" height="70" as="geometry" />
        </mxCell>
        <mxCell id="zemC2-BOqZlxE-PlAdGb-122" value="执行订单回调动作&lt;br&gt;&lt;br&gt;&lt;div style=&quot;text-align: left&quot;&gt;&lt;span&gt;1. 扣钱 加 权&lt;/span&gt;&lt;span&gt;益&lt;/span&gt;&lt;/div&gt;&lt;div style=&quot;text-align: left&quot;&gt;&lt;span&gt;2. 更新订单状态&lt;/span&gt;&lt;/div&gt;&lt;div style=&quot;text-align: left&quot;&gt;&lt;span&gt;3. 推送消息，让业务服务感知&lt;/span&gt;&lt;/div&gt;" style="rounded=0;whiteSpace=wrap;html=1;fillColor=#B9E0A5;" vertex="1" parent="1">
          <mxGeometry x="2220" y="2520" width="190" height="80" as="geometry" />
        </mxCell>
        <mxCell id="zemC2-BOqZlxE-PlAdGb-123" style="edgeStyle=orthogonalEdgeStyle;curved=1;rounded=0;orthogonalLoop=1;jettySize=auto;html=1;entryX=0.5;entryY=0;entryDx=0;entryDy=0;" edge="1" parent="1" source="zemC2-BOqZlxE-PlAdGb-125" target="zemC2-BOqZlxE-PlAdGb-128">
          <mxGeometry relative="1" as="geometry">
            <Array as="points">
              <mxPoint x="1060" y="2950" />
              <mxPoint x="1270" y="2950" />
            </Array>
          </mxGeometry>
        </mxCell>
        <mxCell id="zemC2-BOqZlxE-PlAdGb-124" value="uid1 扣钱、uid2 加钱" style="edgeLabel;html=1;align=center;verticalAlign=middle;resizable=0;points=[];" vertex="1" connectable="0" parent="zemC2-BOqZlxE-PlAdGb-123">
          <mxGeometry x="-0.1499" y="-1" relative="1" as="geometry">
            <mxPoint as="offset" />
          </mxGeometry>
        </mxCell>
        <mxCell id="zemC2-BOqZlxE-PlAdGb-125" value="uid1&lt;br&gt;balance1" style="rounded=1;whiteSpace=wrap;html=1;strokeColor=#000000;fillColor=#B9E0A5;" vertex="1" parent="1">
          <mxGeometry x="1000" y="3000" width="120" height="60" as="geometry" />
        </mxCell>
        <mxCell id="zemC2-BOqZlxE-PlAdGb-126" style="edgeStyle=orthogonalEdgeStyle;curved=1;rounded=0;orthogonalLoop=1;jettySize=auto;html=1;entryX=0.5;entryY=1;entryDx=0;entryDy=0;" edge="1" parent="1" source="zemC2-BOqZlxE-PlAdGb-128" target="zemC2-BOqZlxE-PlAdGb-125">
          <mxGeometry relative="1" as="geometry">
            <Array as="points">
              <mxPoint x="1270" y="3110" />
              <mxPoint x="1060" y="3110" />
            </Array>
          </mxGeometry>
        </mxCell>
        <mxCell id="zemC2-BOqZlxE-PlAdGb-127" value="uid2 扣钱、uid1 加钱" style="edgeLabel;html=1;align=center;verticalAlign=middle;resizable=0;points=[];" vertex="1" connectable="0" parent="zemC2-BOqZlxE-PlAdGb-126">
          <mxGeometry x="0.0983" y="-4" relative="1" as="geometry">
            <mxPoint as="offset" />
          </mxGeometry>
        </mxCell>
        <mxCell id="zemC2-BOqZlxE-PlAdGb-128" value="uid2&lt;br&gt;balance2" style="rounded=1;whiteSpace=wrap;html=1;strokeColor=#000000;fillColor=#B9E0A5;" vertex="1" parent="1">
          <mxGeometry x="1210" y="3000" width="120" height="60" as="geometry" />
        </mxCell>
        <mxCell id="zemC2-BOqZlxE-PlAdGb-129" value="1. 每次变动都是由一个账户转移到另外一个账户；&lt;br&gt;2. uid =602244 充值： 由uid = 1转移到uid= 602244；&lt;br&gt;3. uid = 602244 提现； 由uid = 602244 转移到uid = 3&lt;br&gt;4. 存在热点账户(1,2,3,4,5.....)" style="text;html=1;strokeColor=none;fillColor=none;align=left;verticalAlign=middle;whiteSpace=wrap;rounded=0;" vertex="1" parent="1">
          <mxGeometry x="1020" y="3140" width="325" height="60" as="geometry" />
        </mxCell>
        <mxCell id="zemC2-BOqZlxE-PlAdGb-130" value="V1 版本： transaction" style="ellipse;whiteSpace=wrap;html=1;rounded=0;strokeColor=#000000;fillColor=#B9E0A5;" vertex="1" parent="1">
          <mxGeometry x="1020" y="2860" width="260" height="70" as="geometry" />
        </mxCell>
        <mxCell id="zemC2-BOqZlxE-PlAdGb-131" value="V2 版本： trade" style="ellipse;whiteSpace=wrap;html=1;rounded=0;strokeColor=#000000;fillColor=#B9E0A5;" vertex="1" parent="1">
          <mxGeometry x="1500" y="2855" width="260" height="70" as="geometry" />
        </mxCell>
        <mxCell id="zemC2-BOqZlxE-PlAdGb-132" style="edgeStyle=orthogonalEdgeStyle;curved=1;rounded=0;orthogonalLoop=1;jettySize=auto;html=1;entryX=0.5;entryY=0;entryDx=0;entryDy=0;" edge="1" parent="1" source="zemC2-BOqZlxE-PlAdGb-134" target="zemC2-BOqZlxE-PlAdGb-136">
          <mxGeometry relative="1" as="geometry">
            <Array as="points">
              <mxPoint x="1500" y="2960" />
              <mxPoint x="1770" y="2960" />
            </Array>
          </mxGeometry>
        </mxCell>
        <mxCell id="zemC2-BOqZlxE-PlAdGb-133" value="账户A扣Cash，账户B加 cash" style="edgeLabel;html=1;align=center;verticalAlign=middle;resizable=0;points=[];" vertex="1" connectable="0" parent="zemC2-BOqZlxE-PlAdGb-132">
          <mxGeometry x="0.0523" y="-2" relative="1" as="geometry">
            <mxPoint as="offset" />
          </mxGeometry>
        </mxCell>
        <mxCell id="zemC2-BOqZlxE-PlAdGb-134" value="uid1（账户A）&lt;br&gt;cash1&lt;br&gt;cash2&lt;br&gt;cash3&lt;br&gt;cash4..." style="rounded=1;whiteSpace=wrap;html=1;strokeColor=#000000;fillColor=#B9E0A5;" vertex="1" parent="1">
          <mxGeometry x="1440" y="3000" width="140" height="90" as="geometry" />
        </mxCell>
        <mxCell id="zemC2-BOqZlxE-PlAdGb-135" value="账户B扣Cash，账户A加 cash" style="edgeStyle=orthogonalEdgeStyle;curved=1;rounded=0;orthogonalLoop=1;jettySize=auto;html=1;entryX=0.5;entryY=1;entryDx=0;entryDy=0;" edge="1" parent="1" source="zemC2-BOqZlxE-PlAdGb-136" target="zemC2-BOqZlxE-PlAdGb-134">
          <mxGeometry relative="1" as="geometry">
            <Array as="points">
              <mxPoint x="1770" y="3140" />
              <mxPoint x="1510" y="3140" />
            </Array>
          </mxGeometry>
        </mxCell>
        <mxCell id="zemC2-BOqZlxE-PlAdGb-136" value="uid2（账户B）&lt;br&gt;cash1&lt;br&gt;cash2&lt;br&gt;cash3&lt;br&gt;cash4..." style="rounded=1;whiteSpace=wrap;html=1;strokeColor=#000000;fillColor=#B9E0A5;" vertex="1" parent="1">
          <mxGeometry x="1710" y="3000" width="120" height="100" as="geometry" />
        </mxCell>
        <mxCell id="zemC2-BOqZlxE-PlAdGb-137" value="通过cash来绑定" style="shape=flexArrow;endArrow=classic;startArrow=classic;html=1;dashed=1;" edge="1" parent="1">
          <mxGeometry width="50" height="50" relative="1" as="geometry">
            <mxPoint x="1580" y="3059.2" as="sourcePoint" />
            <mxPoint x="1710" y="3059" as="targetPoint" />
          </mxGeometry>
        </mxCell>
        <mxCell id="zemC2-BOqZlxE-PlAdGb-138" value="1. 每次执行两个账户之前转移&lt;br&gt;2. 每个用户都拥有多个cash类型；操作必须指定trade 通过trade来来绑定流转的cash类型及扣减优先级；&lt;br&gt;3. 主要分为三类： 钱包余额，钱包负载，优惠券&lt;br&gt;4. 区分不同的账户变动类型，操作来源开始分类&lt;br&gt;5. 存在热点账户(1,2,3,4,5.....)" style="text;html=1;strokeColor=none;fillColor=none;align=left;verticalAlign=middle;whiteSpace=wrap;rounded=0;" vertex="1" parent="1">
          <mxGeometry x="1467.5" y="3180" width="332.5" height="90" as="geometry" />
        </mxCell>
        <mxCell id="zemC2-BOqZlxE-PlAdGb-139" value="V3 版本： finance&lt;br&gt;账户A权益流转图" style="ellipse;whiteSpace=wrap;html=1;rounded=0;strokeColor=#000000;fillColor=#B9E0A5;" vertex="1" parent="1">
          <mxGeometry x="2380" y="2830" width="260" height="70" as="geometry" />
        </mxCell>
        <mxCell id="zemC2-BOqZlxE-PlAdGb-140" value="1. 用户进行充值动作" style="edgeStyle=orthogonalEdgeStyle;curved=1;rounded=0;orthogonalLoop=1;jettySize=auto;html=1;entryX=0.558;entryY=0.008;entryDx=0;entryDy=0;entryPerimeter=0;" edge="1" parent="1" source="zemC2-BOqZlxE-PlAdGb-141" target="zemC2-BOqZlxE-PlAdGb-144">
          <mxGeometry relative="1" as="geometry">
            <Array as="points">
              <mxPoint x="2070" y="3000" />
              <mxPoint x="2337" y="3000" />
            </Array>
          </mxGeometry>
        </mxCell>
        <mxCell id="zemC2-BOqZlxE-PlAdGb-141" value="equityType = 1&lt;br&gt;[充值权益]" style="rounded=1;whiteSpace=wrap;html=1;strokeColor=#000000;fillColor=#B9E0A5;" vertex="1" parent="1">
          <mxGeometry x="2010" y="3040" width="120" height="100" as="geometry" />
        </mxCell>
        <mxCell id="zemC2-BOqZlxE-PlAdGb-142" value="2.&amp;nbsp;&lt;br&gt;发生购课程行为：&lt;br&gt;钱包---&amp;gt; 课节&lt;br&gt;关注：kid &amp;amp; sid&amp;nbsp;&amp;nbsp;&lt;br&gt;&amp;nbsp; &amp;nbsp; &amp;nbsp; &amp;amp; amount &amp;amp; price" style="edgeStyle=orthogonalEdgeStyle;curved=1;rounded=0;orthogonalLoop=1;jettySize=auto;html=1;entryX=0.632;entryY=-0.008;entryDx=0;entryDy=0;entryPerimeter=0;" edge="1" parent="1" source="zemC2-BOqZlxE-PlAdGb-144" target="zemC2-BOqZlxE-PlAdGb-150">
          <mxGeometry relative="1" as="geometry">
            <Array as="points">
              <mxPoint x="2330" y="2970" />
              <mxPoint x="2646" y="2970" />
            </Array>
          </mxGeometry>
        </mxCell>
        <mxCell id="zemC2-BOqZlxE-PlAdGb-143" value="6. 执行提现打款&lt;br&gt;-钱包 +官方权益" style="edgeStyle=orthogonalEdgeStyle;curved=1;rounded=0;orthogonalLoop=1;jettySize=auto;html=1;entryX=0.692;entryY=1.008;entryDx=0;entryDy=0;entryPerimeter=0;" edge="1" parent="1" source="zemC2-BOqZlxE-PlAdGb-144" target="zemC2-BOqZlxE-PlAdGb-151">
          <mxGeometry relative="1" as="geometry">
            <Array as="points">
              <mxPoint x="2330" y="3230" />
              <mxPoint x="2933" y="3230" />
            </Array>
          </mxGeometry>
        </mxCell>
        <mxCell id="zemC2-BOqZlxE-PlAdGb-144" value="equityType = 4&lt;br&gt;[钱包权益]" style="rounded=1;whiteSpace=wrap;html=1;strokeColor=#000000;fillColor=#B9E0A5;" vertex="1" parent="1">
          <mxGeometry x="2270" y="3040" width="120" height="100" as="geometry" />
        </mxCell>
        <mxCell id="zemC2-BOqZlxE-PlAdGb-145" style="edgeStyle=orthogonalEdgeStyle;curved=1;rounded=0;orthogonalLoop=1;jettySize=auto;html=1;" edge="1" parent="1">
          <mxGeometry relative="1" as="geometry">
            <mxPoint x="2650" y="3030" as="targetPoint" />
            <mxPoint x="2820" y="2920" as="sourcePoint" />
          </mxGeometry>
        </mxCell>
        <mxCell id="zemC2-BOqZlxE-PlAdGb-146" value="3. 赠课行为 ：&lt;br&gt;kid.sid、amount" style="edgeLabel;html=1;align=center;verticalAlign=middle;resizable=0;points=[];" vertex="1" connectable="0" parent="zemC2-BOqZlxE-PlAdGb-145">
          <mxGeometry x="-0.2756" y="13" relative="1" as="geometry">
            <mxPoint as="offset" />
          </mxGeometry>
        </mxCell>
        <mxCell id="zemC2-BOqZlxE-PlAdGb-147" value="4. 上课执行课程消耗" style="edgeStyle=orthogonalEdgeStyle;curved=1;rounded=0;orthogonalLoop=1;jettySize=auto;html=1;entryX=0.5;entryY=0;entryDx=0;entryDy=0;" edge="1" parent="1" source="zemC2-BOqZlxE-PlAdGb-150" target="zemC2-BOqZlxE-PlAdGb-151">
          <mxGeometry relative="1" as="geometry">
            <Array as="points">
              <mxPoint x="2630" y="3000" />
              <mxPoint x="2910" y="3000" />
            </Array>
          </mxGeometry>
        </mxCell>
        <mxCell id="zemC2-BOqZlxE-PlAdGb-148" style="edgeStyle=orthogonalEdgeStyle;curved=1;rounded=0;orthogonalLoop=1;jettySize=auto;html=1;entryX=0.5;entryY=1;entryDx=0;entryDy=0;" edge="1" parent="1" source="zemC2-BOqZlxE-PlAdGb-150" target="zemC2-BOqZlxE-PlAdGb-144">
          <mxGeometry relative="1" as="geometry">
            <Array as="points">
              <mxPoint x="2630" y="3180" />
              <mxPoint x="2330" y="3180" />
            </Array>
          </mxGeometry>
        </mxCell>
        <mxCell id="zemC2-BOqZlxE-PlAdGb-149" value="5. 执行退款&lt;br&gt;-课程 &amp;amp; +钱包" style="edgeLabel;html=1;align=center;verticalAlign=middle;resizable=0;points=[];" vertex="1" connectable="0" parent="zemC2-BOqZlxE-PlAdGb-148">
          <mxGeometry x="0.0539" y="-3" relative="1" as="geometry">
            <mxPoint as="offset" />
          </mxGeometry>
        </mxCell>
        <mxCell id="zemC2-BOqZlxE-PlAdGb-150" value="equityType = 2002&lt;br&gt;busid = kid.sid&lt;br&gt;[课节类权益]" style="rounded=1;whiteSpace=wrap;html=1;strokeColor=#000000;fillColor=#B9E0A5;" vertex="1" parent="1">
          <mxGeometry x="2570" y="3040" width="120" height="100" as="geometry" />
        </mxCell>
        <mxCell id="zemC2-BOqZlxE-PlAdGb-151" value="equityType = 2&lt;br&gt;[官方权益]" style="rounded=1;whiteSpace=wrap;html=1;strokeColor=#000000;fillColor=#B9E0A5;" vertex="1" parent="1">
          <mxGeometry x="2850" y="3040" width="120" height="100" as="geometry" />
        </mxCell>
        <mxCell id="zemC2-BOqZlxE-PlAdGb-152" value="1. 每次都是两个(or 多个)权益执行进行流转；&lt;br&gt;2. 通过业务操作类型bussrc 来进行区分不同来源调用；bussrc绑定 权益类型 from xx to xx&lt;br&gt;3. 解决热点账户问题；耦合收敛业务权益，单不提供特殊定制；&lt;br&gt;4. 权益服务成为中心节点， 数据逻辑不受控，不能提供业务逻辑支持，内部逻辑复杂；&lt;br&gt;5. 现有权益类型：&lt;br&gt;&lt;img src=&quot;data:image/png;base64,iVBORw0KGgoAAAANSUhEUgAAAnwAAAGwCAYAAAAzL7gEAAAgAElEQVR4Aeyde3sUx7Xu8wXOPtne2Yl3nJDYj7H9OI4JDldjDEYyIBDCCCFAQhICSdwFQoBASCBACBAYO945n7fP8yt5DTWl7q6anml1T8/6o56+1L161dtvVa1a9Zv/8/m2SJ22gcqAyoDKgMqAyoDKgMpAdWXgN/pxq/tx9dvqt1UZUBlQGVAZUBlQGUAGlPDpDKfO8KoMqAyoDKgMqAyoDFRcBpTwVfwD68hOR3YqAyoDKgMqAyoDKgNK+JTw6ahOZUBlQGVAZUBlQGWg4jKghK/iH1hHdTqqUxlQGVAZUBlQGVAZqCN8n3UfjbrPXagsy696/bRDa4cuswxUvf9VvX4+2er0+vvaR/0Vn/OUgZD+V0f49g6ORNNLy5UlfFWvX57CpGkrWDUrA1Xvf1Wvn+/7d3r9fe2j/oqhecpASP9TwqdLupUl+Hl2Lk27cfAOAaR2bteq18/3bTq9/r72Uf/GMUPbLLzNQvrfb5gG3HvqnHHDt+5ED169qT3vGRg2ZODI+KVo+Zd/17nF129rRKHM/lWvHx2izO2v5evs71P1/lf1+vn6b6fX39c+6t/Z+Jf39w/pf5RB3G8Ojk5Gt548N27+1Zvo6c+/1J5vPllb3v1g5/6IhG33SdeRWiJl9q96/fiQZW5/LV9nf5+q97+q18/Xfzu9/r72Uf/Oxr+8v39I/6MM4nRJ12oMaRS9vhMQbQtti1bJQMiSQ6vyKiKdqtfP16adXn9f+6i/YmmeMhDS/5TwKeGrsf88hVHTVrALAaR2lpOq18/3bTq9/r72UX/FwDxlIKT/xRC+Z5UlAGsNUt365SlMmraCVbMyUPX+V/X6+b5/p9ff1z7qrxiapwyE9L86wpdnYTRtFXaVAZUBlQGVAZUBlQGVgWJkQAmfLulWdkZXQaUYUNF213ZXGVAZUBkonwwo4VPCp4RPZUBlQGVAZUBlQGWg4jKghK/iH1hHWeUbZek30W+iMqAyoDKgMrDRMqCETwmfjupUBlQGVAZUBlQGVAYqLgNK+Cr+gTd6BKH56ahVZUBlQGVAZUBloHwyoIRPCZ+O6lQGVAZUBlQGVAZUBiouA3WE70+7vos+//5Ypo/+H3/bHn0/cjH6+6HjQfF3nTgbbd7fExS2VSOFZurXqjJoOuUb9eg32Zhv0or+92lXr8GZ/ks3zPV/duyvnf3NmeAf7j20oZhiy04r6men1273rax/Ef+HdmtvLe/G4Fa7tHNI/6sjfN+dHYtuP3uRCTDf+3KXOYd3/O6DoPiLb95GR8YvBYVtVYM3U79WlUHT0U7aqTLQbP/79vRotPK//y+6srAUjc7ORXdXXppB4/TScoTDr3t4fEMxxf6WzdbPTqsd71tZ/yL+D+3Y5lpm/Z+IDIT0v5YRPjL9y57u6L+37gkC3CI6dEiDSOPpVTuSykBrZaCZ/vfelt3Rs3/9b3T6+kwivjz9+RclfAUuSTXzfd2+VsT/wS2DPre2/2t75tueIf2vpYSvkQ9aRIcOaZBG6qBh8xVgbd9qtW8z/Y+lWmbwtvWdUsJXIKlL65PNfF833SL+D24Z9Lla+FP17xnS/1pC+K4tPomuPVpz+0+PxQLyR98ejn6Yuh7NPFuJZpdfRs9/+XdbLOn+3y92mLp9dWwg2nniTDS99Cx69ONP0dELl+vq+WnX0ejk5RumbrPLL6Lrj55G2/oGo+5zF0zYrqHzESBGGrv6z5o0jl28Uktja+9ANHl/0SyL33zyPLMuZdWFWuvXviAcAkhx3/fPuw9EO3848yvhG4w27ek27j+/3FXrP8RLm+FL6p+Sn4tP9F90AsU/5Jqlfq3Ahy97ThiM+sO2vQZj516sRktvf45sLPbVrxX4k6X+0q5u+dz/Q1r5mP09c/12tPD6bbT8y7+ju89fRaeu3Kz7dh/s/C4am71vcBf8npp/FG0/PlgXRsqi1/bFmE7+diH9ryWEb9/pUQMuj9/+HPVNXF3XiVjqxW/m6Uq0//RohC4O4NwOOny//WKn+dFAaCkzQDJ4bca829JzwtR18/4jxs/8JAZHIhqe2QjqOnB5Orr/ctW4G4+fRXeev4wW3ryNph48MqCMgP798A8GqNBLghBeXVyKnvz0SwSAd7IAa92rBbwhgBT3zcEO+pPrNh+o3/SVRPjS+if5tQqfstSvFfjABgfa5srCY4Mv6DGCMYKvvvq1Cn+y1D+k/X3lOzQ6YSYQukcuRJDf74bGanUn/T/u2G/+PxDBPQPD0Y7jgwaXCRcnb/quWrjTKd8zpP+1hPBJg0Js4ggfRIjZrf/asrvWwYqYsg9pEKmLXIXwMXL84mCfKT+zfoxARUF8bmXVKJD/9ou1GQd2LNuEj/tPuo4YAsg9oPOPI/0mDfKRWU/i8fzhN90mPsRYyqFXBaF2l4Es/Y86/+4fe6ItPf2mT2BFAD1hnPQXaZckwpfWP4nbKnzKUj8IX7P4IISPlRPaijrde7FaIz2++rUKf7LUP6T9feU7O33bDJD/+k13LF7iv/TTvyJm+URW9Kp4WjUZCOl/uRO+3/3ja0NsTl+rV7ZuN8LXay2/IigsmRwam4w+2LnfALa9POsSPkbexNk7OBItvn4bsRT15eEfTLvw44I8Pnj1Jrp472HN8ROw06yacGp9Og9wQwApSS4+/77X9LOPvk02uxJH+Hz9s5X4lKV+EL5m8UEIn90272//1pA/X/1aiT9Z6t+K8n3W3WsIHTh64d589M++gbrBwL2VV9HE/QUleyXV/Uzq8/q+sX9ESP/LnfAxIoe82PoS723ZZTqoLDls1IcNaRC3LDLDt/fUSB1goAdyeGzKgAv1+9uvs3/EZ5TNO1nSZamW9xA+zEdwL4SP5QbCjszMmZk/Zv/EfdZ9tC5Pt2z63FiH0PYqtr2y9D/5ZlkJHz//tP7ZSnzKUj8IX7P4IIRPZvekzbj66tdK/MlS/1aV7/df7YkOjk5G91++Nt8b0z2y4sLK06X5tUG33TZ6XyweaPu3tv1D+l/uhI+lTAAXo8zygTGtwLsqED6WZqkLJI36MbuHLULeHRg6b3RF0gCdOADSuVt3au0j7aTX1nYIbc9i2zMEkJK+UVbC5+ufrcSnLPXzET7aw4cPaYQvpH6+9JO+ifs+S/1bXT7UbdgIA/6y0Y4ysqTL7B+znm6Z9blYTND2b137h/S/lhO+4Vt3jL7apt1dpnMxZc/yJ3o0KMsO3bwTzb96YzYpVIHw/c/2fcY+GHom7Mo9f+eBUZxG5w99xhBAZwcvAIXS8fvb90Wb9nRF3SMXzW5e7RCt6xDalsW2ZQggJX2jUMLHCRyQCDlxw9c/0/Cp5/xUQwQhS/1agQ9phC+kfq3Cnyz1Tyuf/B985UMVhl3cf9zxncHPgyMTBk9l1YXTWVjuZ+Mdetjs8oYMbu3tb+j7Jsmmvi8WV7T919o/pP+1nPBBXHAsUcqH2HH8jCFFvGenLh0OXTbp0BIu72tIg7hlkCXdbwbqTTSgg3h4dNLUkV3KEDzqh4I0PxkIIG0wcGU6Gr1tL+k+M3Fk55nkd3T8ktlJRhqAE7t4Q4+pkzT0qsBTZhnI0v+kPuhp0TeEyMl7+0q/IQwO00jil9Y/CROHTyj5s/tT0gi5ZqlfK/CBnf3UOW5JN7R+rcCfLPVPKp/7f0grHzN46EDLt2c2DxNZ9jcDS/n3SBisIDCotsPoveJnO8tASP+rI3x/3tVV24na6ooDRkXvksqzfphQQR+mmXZjOeLDvQfNpo5m0tG4ClxllIE8+5+vvr7+aeMTM0UQg69Prqlp+NIW/7zr1ww+hNSvmfRpg2bqb5dP2tO9+srHki34SVpuXHl+f9teU053h7f461Wxs11lIKT/1RG+dq2olls7qcqAykAWGfj8+z6zaYIZd2bmWQ5G4R+1kyrofFW9flm+ucZRrOhUGVDCp1vVE0fDndoptN6d80NgVMyGKU5pYFaPpT5MeKQtHbeTfFS9fu30LbSsnYMrZf3WSviU8CnhUxnoeBlgiQ+VE3R2ywrWzZSr6vVrpm00rhKxTpEBJXz6s6/kD65TOrDWU39WKgMqAyoDKgMhMqCETwmfEj6VAZUBlQGVAZUBlYGKy4ASvop/4BDWr2F0dKgyoDKgMqAyoDJQbRlQwqeET0d1KgMqAyoDKgMqAyoDFZcBJXwV/8A6Yqv2iE2/r35flQGVAZUBlYEQGVDCp4RPR3UqAyoDKgMqAyoDKgMVlwElfBX/wCGsX8Po6FBlQGVAZUBlQGWg2jJQR/g+6z4adZ+7UFmWX/X6aWetdmdt9+9b9f5X9fr55K/T6+9rH/VXfM5TBkL6Xx3h2zs4Ek0vLVeW8FW9fnkKk6atYNWsDFS9/1W9fr7v3+n197WP+iuG5ikDIf1PCZ8u6VaW4OfZuTTtxsE7BJDauV2rXj/ft+n0+vvaR/0bxwxts/A2C+l/v2EacO+pc8YN37oTPXj1pva8Z2DYkIEj45ei5V/+XecWX7+tEYUy+1e9fnSIMre/lq+zv0/V+1/V6+frv51ef1/7qH9n41/e3z+k/1EGcb85ODoZ3Xry3Lj5V2+ipz//Unu++WRtefeDnfsjErbdJ11HaomU2b/q9eNDlrn9tXyd/X2q3v+qXj9f/+30+vvaR/07G//y/v4h/Y8yiNMlXasxpFH0+k5AtC20LVolAyFLDq3Kq4h0ql4/X5t2ev197aP+iqV5ykBI/1PCp4Svxv7zFEZNW8EuBJDaWU6qXj/ft+n0+vvaR/0VA/OUgZD+F0P4nlWWAKw1SHXrl6cwadoKVs3KQNX7X9Xr5/v+nV5/X/uov2JonjIQ0v/qCF+ehdG0VdhVBlQGVAZUBlQGVAZUBoqRASV8uqRb2RldBZViQEXbXdtdZUBlQGWgfDKghE8JnxI+lQGVAZUBlQGVAZWBisuAEr6Kf2AdZZVvlKXfRL+JyoDKgMqAysBGy4ASPiV8OqpTGVAZUBlQGVAZUBmouAwo4av4B97oEYTmp6NWlQGVAZUBlQGVgfLJgBI+JXw6qlMZUBlQGVAZUBlQGai4DNQRvj/t+i76/Ptjlf3oVa9fmUdU//G37dFfv+mO/n7oePTh3kPRf23ZXVk5K/N3KLJsVe9/Va+fT3ay1h9seG/L7iD32y92enGDtAav3Yo+3HvQGzauTr/7x57o5OUbEfWJ8096t/PEmWjzgZ66OP840h99fXLtTPqkePq+fDNh7fhNQvpfHeH77uxYdPvZizqBLUvF/7KnO7q6sBSt/O//iz7t6s1Uxjzr91l3b/Tt6dFM5WqmjafmH5k2oV3i3KY9XRteJrc+f9yxP5peWjble/7Lv831/svVwsvlllOf8wXePPtfs9+u7PjSbP188Yus//9s3xeLXXF4dnBkIgg3Ltydj05duRkUNq5triwsRUfHLwXHf2/Lrmjx9VvzD/j74R8icSMz96KpB49qz7wPIa1xZdJ3+eJTu7dvCL62BeHbe2okevrzL9Gzf/2vAYbPuo8Gd0T7I4Y0iB2+kfsj45eihTdvM5WrkXzcsFt6TkR7BoaNg/wt//Lv2jPvf/ePrze8TG4Zz07PRhC9nT+ciQBGfi5be/sLL5dbTn3OF1Dz7H/NfLt2wJdm6ueLW3T9hfCBC+9v/9Y4yNrY7P3aM+8n7i9ESYTv8sOlaO7Fas0t/fQvg4X2O+7jVrCuP34aPX77c53jXwOWuu+ZdIhrz139Zw3+f9p1NLrx+FnNPfnpl2j+1ZvaM37MIMaloe/yxZ+qt28IvrYF4bv26El07tYdM0pi1KeEL75jnJi6bohx2QT77vNXEd+wbOXS8sTLUV7tEgJIeeWdlm474Eta+Zv1K7r+Qvj+sG1v9H+/2GFc38RVg/nyzJVZuyTCd//l64ijpT7edyjRMSD/sufEOhx6f/u+iFUI3DcD56Kltz9Hm/f3mOe/fNNt8vxg55o/Yd32fu/LXdHs8ovajOKmPd0RBBB378VqdOb67dqzqrJsLOa436rKzyH42haE77+3ro2I6MxFEb6tvQPR5P1FQ6huPnleGykyWqODD1yejh79+JO55xlH5/5+5GJ0af7xOp21Lw72GRL00beHzZWRJ7oet548N6PKw6OTdcCSlL8twEmED0DC78GrNxEjTspDvsQFZAH8pPxtf8kLnRvi/LNvwBufOJMPFk2+ALukYV8BYdIjrx+mrptROqC7//RYLfwHO78zI37aGMds5vbjgzV/Oz29LyeohgBSEd+uDPhSRL0lz6LrL4QvbgnXfZdG+MBUqVPclZm2OMInYSF54M6Xh3+opQN2gslHL1yuvZPwcgVbKecPU9dMGGZMwVpIq+1Y5SiDio2UW6/lxMms3yUEX9uC8EkDFEX40Ltgen90di5CMffq4pIhMBAU9PZcUJLnrb0no4/3HTb+XcPjdYDBaPX6o6fRH3d8Z/zR84CMoSw8vfTMvEPhl7qn5S9twzWJ8I3ffWCWw1km2Xd6NJpbWTXE9c+7urz5s5RCfSB3kheEj3fUPaT8LDvTfoywt/WdqqUj6e06cdakd2XhcXTn+cuoe3jchGWZnDCMvFlaYaaQZeodxwcNwf5u6B0hlLT0Wl4QCwGkIr9fUfhSZJ3tvIuqvxA+NnXJku7AlemGlnSZ4WMmrXvkQqIzZC5mho82gOShNgT+fv59n8GY/adHo6Pjl6NLv+pJb+tbP8D828E+Ew/ssgnfzLMVM+PIrKM4MFAJX3nxye4L7Xgfgq9K+AK2YdN5Z5dfRhAdBOHDb7prhOe3X+yKGCEzklt889bc84xjGYLwF+89jB6+/jFitMgzu2kY7THlL4QJnRHZ4fWnXQdM+swaEj4tf/zFxRG+zfuPmLQALgnH8gSEjZ1svvxDCV9a+ckX8vpw9UeTL7o49myfED7aWPRbWAoRwnd2+naETg6zfFIHvb777u3SFiGAVGRdiiI8RdbZzruo+gvhk75PmY5NXI2Gb92p6+8MXJNm+NgwwcYwVhPSHANwu85yzwAcTAbDGViyaWP09lzUf+lGdHB00izX4scgX+Jw/erYQHRg6LwZbNuED7wfvDZT53SGr/0wy/7WZb8PwVclfBZhivugEDc6KlP0EDdxEKZjF6/UOn/apg12FROeD0Ie7P4CPNjAIISLWS07f2a02OEVmj9x4wjf3lPnTN6usjI6J8wk+vIPJXxJ5bfrxAYSlmxpC0BVwFMI30ffHqq1AfnKD+DeyiujsG2npfftB54hgFTkdy2K8BRZZzvvourPABhMQI2l+9wF41A7mXm6UnvmPZgVR/hQnSE+mz7s+jRyz8CdAT0D0x3HT5t0GCwL6WTwDgl0cZT3xAN7bcKH2g+rGbbTGb72w6xGZKjosCH4qoTPQ/hYTgRMRmbm6na/srRobx5JI3wIAssC6JBAehZev62RRSFc6OiJwABc5Am4heZP3DjCx7IEaYnOnuTBzjRM8PjyF8JnL8VCxEjTXtJNKr/kZ1+FhAoBFsInBM8Oyz0mXPgBuO/1ub0ANASQivymRRGeIuts511U/T//vtcMqtmVK44ZfgbZ8syVFYI4wsdSMGQK0mbXJ8s9mwN7xtb0p7f09JuBaUg6LuFDz5gZSdvpDF974VXIdy9TmBB8VcLnIXx8UAgHQJD2cQ8Mj6eCDgrFkKTLDx8bcJPlyTjCxUYPwooSckj+lC2O8Em+jJCl/L//am3WEhLry58ZRsoixkMZzaLLmEb43PJLvnJlZhPwo7y88xE+lnQJD/mUNPTafuAZAkhFfteiCE+RdbbzLqr+qLYwe2eXpZElXUPMVl7WxbfTCr0H21hNwHwUceIIH+SScG6aLuFjE9onB47WOZ3haz/Mcr9zmZ9D8LUtCB8W0z/pOhLt7l9T7mfrPM90vkY+QEiDxKXXNXTeEBwUgtmWj+Jt98hFo4Mn4YVYoc8BMWGTA5stxJ8rIABRGr87X3svhIuRKydQoODL5g2bYIbkT/pxhA9wuvlk2cwuQtpotwv35k05sBnly5/46M+xQ5lTMhhpQ0BdwpdUfuKjCM0MIUu4kD1G0MRH/4Vy+wgfS+IoVNN+tDM7oImrtvzaC0Cz9j+7D+VxXzS+5FGnRtIsuv5sJhu6WT+gboTwMSCUpddG6u2GZdc/2MsgF784woduHhjqxnUJHxtE0Cm0HZinmzbaC7Pc71zm5xB8bQvCx/IjncV11xYbs+0W0iBJHxS9O/TqKAPkw1hPP3S81vHR5QC4mIkiDJsY2J5vpyfEBuIk74VwSd1YxoAgyQYPCefLn3Dox1E2iSNXZhNpK8kDMGK3Mf4h+bN8TX2ID3lkdy/3kFNffAgfS9iEp21wjHRtMweUBf+kJV3KSZuh00M4HMAM6ZY66rX8QNpM/8vz+5YBX/Ksny/tIuv//ra9BrN2HF/DIymrTfhQg4GEsXnNtXbABjTwBH07idvoFewGq8E4VickPjt3WZoF43iHqg34JbrHEo6rED7qw8QAZqPYjGI7ysmJTGUwhm+XXe/Lj50h3ygEX+sIHz9yWUYMyaDdwjRbP4CB0fB//rrbNq7+dGbCxJGX83ceRICrHU8IE6ZG4oDEDhuSvx3evQeMmB0jHfELzZ96Aa4ST64h8SF9bMhgxIzeo6+eknbclTrwHUkzzl/flRe8mu1/Zf+2Va+fr/2z1J/lU4ic259lZyx5yu5+ru6qzuGxKbMr11e2JH9wjQ1kWAhwbfRBMiF8EEEG+5A9LAzEpSWE79bTFROeOElOB6rlxai4b9su70L6Xx3ha5eKtVM52YEGUcJsC4Dh7vISwmRvetjI+jWbf7PxN7KumpcCrcpA+WSAWbC078LgGb1jlxQSBz8G2GnxfX7o2iWdb8tGENLHFNefdx9IzAf1mGZmGX1lVP/yyW07fhMlfAGbNpr5sHdXXpolSIwsizKwnR5gxzKsGFm2/Tbivtn8m42/EXXUPBQsVQZUBlQGVAY6XQaU8OVM+DCrgut0QdP6K9iqDKgMqAyoDKgMFCcDSvhyJnwq3MUJt7a9tr3KgMqAyoDKgMrAmgwo4VPCp7OPKgMqAyoDKgMqAyoDFZcBJXwV/8A6stHRrcqAyoDKgMqAyoDKQB3hY0epu4u0LELC9vnNB3qM2Zg48yAh5Sxz/ULK7wuDyRXMnmDcOCksRoyxNcWh4FzdnW9J/oQjvG1DMCmPuPdZ42PomqPYxGGcOi59fVd+MKt6/6t6/Xx9rFX1x94dZ5b/4au9mfo6Z+tyznkj8cFMMJH/jK+ecf7s5gUf404DwlCze9Z4XBr6rvwYVuZvFNL/6ghfiOG+Iip8+tqMsWmE4UpMm2B4l3cuWfGVLc/6YVCTs2V9ZcjDH5MF00vPTLvQPuz6jTuFgvLRdhwCzvFo7CC22zDNH0PQpMvZkFnqkDX+x/sO16zVU3YFzvYFxTz7XxaZtONAMq4uLJn+waDH9gu9L3P9fHUosv7Yft3ae9JyA8b+3eC1Gevdmr97elFcvcA0DM1D+uL8497JEZIMMPHn5A6MJ7uOs8nj4mPbdGLuobGzCuGUMLy/+eS5IZPyTq/ti2Fl/nYh+NMWhO/45DUzs8coCsO7HE3Gz/+jbw/XOlbIhwhpkJB04sIcGb8ULbx521B54tLJ8o6j0iBjzM5C/gApjH7+adc7u1Hvbdlt3p2+PhNbRp8/5eKnIMcOZSlns/GpoxK+9gXLPPtfFnmUOJyygGzRZ8AVZsnFr5FrWevnq0PR9cegMsc1cpJOmiMMYe368D/gFCLXXbi7honue54xUGunwb1L+A6NThiZ4DhPcZwyRHw3LrZIwVqMy3OqEESTZxxnmHOyEf8qeefG1+f2xbQyfbsQ/GkLwuc2Kic2AMwcfeP6pT2HNEha/DS/oggfJl+Y1SN/KR9Tu7w7PDpZe8dSKG3GmbYSzr76/O2wRd0r4WtvYMyz/zUjk5zRzNnVzB51IuEruv6QuC09JyKMF0O24xzqPIRxCR+Gl5l1E8fxlpyKIc9xV1sliOXWW0+em5M2+PacuMEKCMvBPNvLwvOv3qw7Hx25Y8DNCRw4zhzHyfO661z8SR3NyK/GbW9cbNX3C8HXtiR8g9dumdGXPXUe0mghDZKUDidh0JEhHUzRi64jgIPu3MDlabMMwb04yodex6X5x5FbVpYxAFpGflxJ7+uTwwZ8ACybrFGmpPx39w8ZYGJ0aZedI9xYouIdFuIx+rxG+AZr5ZMj4nz+LI9QRtz+02N1+UienNc7NnvftAHHETHLyGHk+IfEB+w5QxjAnV1+EWGoelvfWnzJQwlfewNbM/1PZCCPq8xaf7xvbVDUaTN8RdefgTszdcywTi8tr1tGRV2F1RP043yD/K+ODRgMaVRO5DxvZEDi3nuxWsuPI90on4vjEpYr7ciyrj0LCOFEH9EmmXYcvW9vTCvT9wvB17YjfEJwvu4fqnXM0EYPaZC4tBj5oz+I3hvAcHVxKXry0y/mTFjRe4NMuQ69FHTQeO8e+s2SA6RGjiabevDIpAnpEX08OX0jLX/OnCR9F4jQQbn/8rVpIwikWzaeGTVTX5//PjOCHjPhOCLObSNmGUmDMyn3DAxHnAsMAf5uaI0c+uJzJBFkjvbYOzgS8Z0oH2Bp56WEr73BMWv/s2Ugz/tOJXzSpkXXH0JlEy4pF/rRoeoyDEgfvHoT7Th+ep1LUwEC08Ec4spZ32enb0fMGFIOVlAuzT+qwyMpH1fO4YUggmH2xg1mCAev3jTLusi/rTNtx9f79sa2Mny/EHxtK8IHAYJ49TagjGt/iJAGscPLPYd7M/MknZVzFQEHyB56hYzsIEKLb96ae55xKOySBiO8h69/jNi4wLMsue7qP1sjfICdEDB0PUgf0kT4tPw5tJu4Ula5suMMgsQzs5CyDM5MopRP6uPzlzTRoYkjfADj0k//ipjlk7Bx16T4cyurZgMJbUk8yqWEr48oOsUAACAASURBVHoAmLX/xclSHu+KJjx51KmRNIuuPzjGKgErOLZDZzuU8J2dnjWDT1cXED06sDKuPTbv7zEzi2DO6O05s5KBTvPn3/eaQTjHR4LtDGTd+Mz8sZLCfwnMTbKQwNIxA3AIYZwOoZuuPlcP//L+piH42jaE728H+wyBSeq0IY0Z0iBuOpAj9OEY+UHcxAEO9i6wNB0+dv0RnvxJnyl/AARwkBk+dzMCM2YjM/cMOUvLv+f8lElblmel/Gdu3DYkU54BL8rgLv2G+hMuibDdW3lldFYkraRrXHyWOty2VMJXTbDL0v+SZCmP90UTnjzq1EiaRdcfwscg99DY5DrXNXR+HdmKq9ud5y+juLAQSDb/uXHWdtEuG91mcAgydvnhY4O7hL3x+JkZcM+9WK0N4O00CD8yM2cmIdiwkeZ+mLpuwtozgHZael9N3Nuo7xqCr21B+NjdyQiNTttM44U0iJs+y5UAAZ2a5Urb2bo+aYSPNFkOQOkXO0+yk4v3QvjQ0ZO8qS95HhyZMOfwpuXPDjsBKonPlSViloblXZ6EDyKHnqLklXSNI3z/7Bsw5YfQSzxmHKmTLulWCwCz9D+RiY24Fk14NqKOaXkUXX8IH6s4rBTEOXAhrfwyOI+bQWMAfHT88rr4rNIwQ0dcMAezLLLyQV6iQnTAQzjBKpaF0c1mAMzuXGyHos/MOyYK7AmCtHqoX7Vwb6O+Zwi+tgXhY7MEivyy5Je1AUMaJC5tiAq7+OL85N2B4XEzrZ9URjo9gMLokRk7Wf6MI3xs9CAscUg/LX+WFAhL/lIWTLMAnvaINk/Cx5IudfKNXOMIHwBP+SHSlB+wxdafqZMDsqrD195AmLX/iVznfS2a8ORdP1/6RdcfzKLfc3Ud+GLjWVxd2Oh26+lKDQftMAzYwVX7HffYK0XdxSZ8EoZ3ok/NUmyaUWYI3/k7azZK2dQHdmP5gEE+6TFzqYSvvfFL5KKs1xB8LT3hY9mTzj4xtxAxG2Q7yE4jjR/SIHHpsUQAEHWPXDAjwE17uqLukYsROngSXggdI0GID+V0jYSyy5V00EmReEL4mM0DINi0wIYQm2D68mf2kJEkG0QAJfRg0Cn5i9U+rSJ8bAZBH2XT7ne2rFiyhoxRP9qBXcrslnONP0P43PjoxwDu6CmyKxfQZFmG8rv6guSBngz501bShnptDyDN2v/y/r4f7j1oZAp7a/TPbwbOmeeNwpe86+dLvyz1BwcgnXHlZeNDGuHjWxE/Ts+O9FiBkEFlXPou4WPjBnb3UK3hdCE2ZDBYR7cvLr4SvvbAoLhvV5V3IfhaesIny3sAsets23MhHy2kQZLSQe9OdrNCPFgytY8ZQxeEHV2QU8oJ+LDcaqe368TaD8WOJ4RP6oauIDt1ZYOHxE/LH4KJLSnSIH/ydk2asNMN/ySi5POnHBA2KScjZikbV+qEorT4Q1ohxXaYpPjs4oXgEZeRNCQQAujmQbtL+sz42mnrffkBt5n+l+f3xYSRyJV9xZxQI/mWtX6+OpSl/muE7Uz08b6edY5BbBLhYwDOTBqDybi6skkOfCHdOH/e2YSPnbXMFII3n3+/tsrCRjqwmYkHexWHATZ60ccmrkaXHy6ZewasDNzBYAbi+INlQzdnzX0SaUwqm74vP7aV4RuF4E8d4UP3QZYRy1CBVpeh2fpB6hgNuxsk7HICAISJ0zdh9gpwtcML4WNkKuYAbH/7Pi1/lkLJl124rokWO42877GnRTvbejAheVJ39CVDwmqY9gTAZvtf2b971evna/9m6w/hYyfr7Wcv1jkG23GEj4ExRAwzV+4OWXbssukC4uYOHt262IQPfT/Kwe5dOxy61ewWtnWLwVvK1oir8j/Wbi+931icDul/dYRPP1DrPxCjS3aisjzJ7BsAYbezED5704btr/et/ybaptqmKgPlkwFsqyYNelFJ+eRA/JF3YKo96ybfFoKGWk3azJ6EJT4zcr/9YqdRyUkqB6oscXlJOnotn1zpN3n3TZTwff6uMfIQjLsrL2tLlZx24ebB8iUjUDGy7Prrc77fR9tX21dlQGVAZUBloBNkQAlfzoSPZUpdqlQw6QQw0TqqnKsMqAyoDJRXBpTw5Uz4VPjLK/z6bfTbqAyoDKgMqAx0igwo4VPCt26ZuVOEX+upQK8yoDKgMqAy0CkyoIRPCZ8SPpUBlQGVAZUBlQGVgYrLQB3hY0epu4u0LMwXW3NsZ8fIb5pZlLTylrl+aeXO0w8TLhwBRNvkmY+mraPoqve/qtfP14dbUX92x3IEmu/Unriy7D89Zgxm235slAuxgIBJF4y6p52mYafr3rNzl5M84sqNoXj3rHQ3vj4rPjYrAyH9r47whRjua7ZQWeLL8TZi1Pjh6o+Z7AXmWT8MF3MuY5b6NRMHMwLSLlwx9Dl084457SIk3VCzMEXVL6QOGqY9wDLP/tesDGDCgzNVMbzMoDJLemWun68+Zag/pItvgNUCsBTD9eKwZpBWB4gi8ThNg6PNxIGHOHl27aBKmrYdPt5hxHlq/tE6Z9vgk7hcsZE6MffQ2Fm17aDynrwhk3Z4vW8PzGqn7xSCP21B+DjSjJMcsFDODCTGLycfLDbcgUIaJOsH5tQPypU1ftZ4ED5+UhzFxnFuAMvim7fmmLMQ48ehhK+o+mVtF41XPkDNs/81870hFZAFDP/Slz7rjrf35sujrPXzlbsM9Yckjd6eMydmcCKFOE7U4dQeCGlaPZhdwwQWM238I/hf4CbuL0Sjs3O15yQy7xK+Q6MTRiY4bk8cR61x4pFbDjCUkzg4UWPh9VtzZi7PuO5zF6Kltz9HH3172Dzzzo2vz+XDqnb8JiH40xaEz238wWsz5qicRg1ghjSIm1foc1GESAiffcwc59jy4/r65LAXXJTwKdiEyniz4fLsf82UjTOgGTBhpLcTCV/R9YeYza2smtMqWIL928E+41A1gYRDvni3ef+RWDxjdo/BNuQKOfhuaCzilA0c6XJyhzxzTrItKyy3cizl7PKavVSuVxaWIo5XQxa4SniOb3PPR8fvwr15Qywhl5P3F43jPtbNLdTSk3T1qhjcChkIwde2I3xylA5H5jTaSCENkpQmeiB0ZmYCmKIXXUeOUNu0pzsauDxtlg64F8eolZEnB3fb0/zkgT4iQMvIjyvpQdAAH47pOTw6WVe/pPzjCB/pA3Rnrt+upZEU3yZ8cfn76pfUXvpeQcyVgWb6n5tWK5+Z3SG9j/cd6kjCV2T90cfm7FkINwSL82jjHKQNbHS/O6sYEC7ispwLbvJvEMdqx8PXP9aeeR83EN554oxJAxmQPO69WI2+PPyDef7rN92GfLo4LmG50o4s69qzgCwBX7z30Jy2ZIfVe8XHVstACL62DeGjI3Me4tJP/4roiCHH5bgNGtIgbhyeGdVx+DZLAwDD1cUls8zAyBJdE8Amzm3tPRl9vO+w8esaHq8BCWly9uP1R08jIVxTDx6ZNE9evhGJzqKcvpGWfxLhg5xSTl/5ffn76hfXXvpOwSxOBrL2v7i08njXqYRP2rKo+kP6OAecpVspC0eYyYwd78DSOMK3d3DEDLTR64bwkc7W3v5Ux4Bc8pErWAmGcy4vuM77s9O3o1NXbpp7VlAuzT9aF0/if9lzwvyXwHR74wYzhINXb5plXeQ/RM1G0tSr4mgjMhCCr21D+MZm7xuFXjmkmh1ZjTQGYUMaJC7NmWcrZspfOuuH33QbcIAMsazMyI6zchlNci8OhV3SY4THKJPZSZ7ZTcMGi139Z2uEj6WLzQfWDutGzwPwYdaQ8On5r+nw2Uu6xEEHhiUIX3whfEn5h9SPPNRpG/hkIGv/86XbKv+iCE+ryt9sOkXW3yV8ECiWV6VOSYQP/W4GxqySQPgI3zM2abAYPHadu3JC+M37e6LppWWDuegRktaavnivIaFsGCGdHccHa+WRcjHzx0YTJgTQn2bjifjZV5aO7798bQb5HHJv++m9YmcrZCAEX9uG8EmD0BGZaYMQsSwq70OuIQ3ipgN5g5wx8oO4iSP/Yxev1PJP0+FDUZjw5E/6TPkDIICDEC532z7EdmTmniGPafknzfChP8JMoa/8vvylPdLqJ2H0qsCVJgNZ+l9aeq32K5LwtLouWdIrsv4u4YPg3V5eqeFrEuED/6irTfh+mLoenbt11+j8MaiGCKL/x6SBjdnEW9tFuxxt6ztlMBoydvnhY4Ob+LMEzIB77sWqCeu2K+FZeeq9eMVs2GDTRpKjXIS1ZwDd9PRZMTSrDITga9sRPhpDZtjczutrqJAGcdPgHFzIGh0V4LCdvZvPR4hYDmDGDTtPspOLvIRw2bai2JFGngdHJsw5vGn5JxE+drexJOErvy9/aQ9f/SScXhWwkmQgS/9LSiuP90USnjzq02iaRdbfJXxg3/k7D7yET+roEr4TU9dN3PG780aPmnAsz7r/DFZpmKFjYAzOvr99X92y6+7+IfP+wND5WlkkT/uKrh7LwkxC3Ft5ZZaj2XSCSRjeMVHg5m3H13vFzWZlIARf25LwQbTonIfG6jc2+BospEHi0rj/ctUoFcf5ybsDw+OpO4fp9JSZ0SMzdh/sXDN0HEe42OhBWJnBTMs/jvCxxEF89FsoX1r8kPxJw1c/aQe9KnAlyUDW/peUXqvfF0l4Wl2XLOkVWX+b8KE6g708ll9FjSZphk/qmUT4Fl+/rW28iCN86Ptt6emvI3ySJiRQ9KnRzUszygzhE4LKpj6w+8O9h2pqNajnKOFTbBTZyuMagq+lJ3x0MqbC1+zw7TKW1NnFxW5Zn20mt1FDGsSNw3PX0HlDoNAXYQS4aU9X1D1y0ejgSXghdIwEmbLHJp67hR9Qgogx6pR4QrgY0QIQkDSUl9m1JmHS8hfCZzaU/HAmOjw2ZZaLyUt0CNPih+RPOULqJ+XVqwJbnAxk7X9xabXyHWQDHSvsrdE/Md3BM/pZjeRT1vr56lCG+rMSIcaJwVlmxtDTZimV7wE2io5eXH3iCJ9gFt+RjSFxhE/Ssmf4eMfGDezuoVrDv4eNggzWUSmSOPZVCZ9ini0PRdyH4E/pCR8dEQIEEKMYy5UZK5R6G23UkAZJShO9Ozo/+UM22VULEEh4yBWAwuwdYdgEgUFT8ee668TaD8WOJ4SLODh0BdmpKxs8JH5S/kL4iEvebA5B8VhmEH3xZcnXl39I/SQvvSr4xclAM/0vLr1WvWM2SeTfvl5bfFLXf335lbV+vnKXof7gGAQNE1boN7NKwYYxBsBgIo7l16RNETbhA/sYQIPTrJag2sIuXjCUAXtce9iEj521t56umPiff7+mJ85GOsowMbdgyiVpMCGBweVjE1eNORnuMTNDubf1DRriyjtUgthIx30SaZQ09ar4mUUGQvCnjvChgEqny5JZnnEYnXG0FyBAh2nU4LKUrdn6QXoYDVMeSdO9AgCEwX6d68eUv3u0jxA+doCJOQA3njyH5C9h465p8QFSX/6kmVa/uDz1nYKXyECz/U/SKeu16vXztXvW+vOj4jQKBtSs5kC+7LzA232nR83yKHrQrj9hhfBRBmYFGfgSBz/I5Nf9Q+YkDvL4tGv9SSo24Ttz47bZUcvuXbscrChh4JnZPHmP/VTSbMSV8R8r9dFr++J1SP+rI3z6sVv/sTHB8sHO/cZsCzNwYrBZ2loIn71pQ/z02vrvoW2qbaoyUC4ZAB85SQNilvZtGJTaqyN2WGbTRMUHvTx3hYSwDHjZjRuXD5MIpIEfKjlJg1/sA2adcLDLq/flksFO+R5K+HK2Icf5jiwTofTLsUGuYGHjiaUHZi9dP31WUFAZUBlQGVAZUBlQGWiFDCjhy5nwoSOHa8XH0jS006sMqAyoDKgMqAyoDGSRASV8ORO+LB9F42hnVhlQGVAZUBlQGVAZaKUMKOFTwqezjyoDKgMqAyoDKgMqAxWXASV8Ff/ArRwdaFo62lQZUBlQGVAZUBloTxmoI3zsKHV3kVbpw1a9flm+FXapOAJIHAZO7XR8/nZYvW9PENio71b1/lf1+vnkpJn6Y1Q5zlxKz9ikeY/x+KSds1IubOVh6y7ObIuESbqyAxjDz5idSgqT9p6du9j8izsnFyPe7lnpaWmpn+JoFhkI6X91hC/EcF+WgrQyDmcksusVe3yNpptn/bATiGHQRsvUbHgOGBcL9YNXb5odv5gfwLwAhqopV1oeH+87HE0vLRtHu7rA5PNPS9v2K6p97DLofbFAmmf/a/bbYtKDM1XpA592pfeZpLzKXL+kMsv7IusP2cIO31fHBozpFPBLyjW7/NJYNxibvW++T5y5FQmLwXnCQ7qSXFJ82w4f6Q3fuhNNzT9a52wbfJIvV8o8MffQ2Fn9L+s0Dt5z1JpgtB1H74vFo6q1fwj+tBXhY/ZRTrL46NvDNVAI/XAhDRKalhvuyPglY5TTfZ/38+T9xdoZjhzezQ+Lo4SwbcW9e+JGWnkwD+MSPju8z98O694X1T5uOfS5OJDNs/818105EQfZ5nQc+gxndWdJr6z189Wl6PpD9Gh3cRydKWWGwGGUHhI1eG0m2rQn/rg7/g0SP+0aZxqLvFzCd2h07aQOjtsTx1FrnNYhZZMrtlSZXWQSYuH1W3NmLs+47nMXDJnlfyXvJJ5ei8OiKrZ9CP60DeHjOBps2mHRnA6thG+ts5y+NhPdePzMgJC0DQDJjBrkOM7IaJKw+widzz8pXd4r4VNwCwGkNBnKy49TGji7mrOvwZZOI3xF1p8ZMI4xOz55Lfr9V3uMg9ztOH7aYAaYdm/lVTS7/CK6/exF1HvxyjrCxQB38fXbaODKdG2GkHRdx2oI2GjLEcutt548NzODfHsI5pWFpYjj1XjmKuE55cM9Hx2/C/fmo4n7C8YxAMfJ87rr3EItPUlXr4qNrZCBEHxtG8LHkTtLP/2rdh7tRhM+TsKgI0N6mKIXXUeOUGPUOXB52pybyL04gAu9Ds6HtKf5+bgcrwPQUg+upPf1yWEDPoDc4dHJOmBIyh8dF44RwoAzAMWh40cvXDaACUCJIKEfwxm9ABrgiSFoLMuLP1cfoUvzTyqfr33s/PW+2sAXAkhFyIDofH2871BHEr4i67/j+BkziOdsco6exIGNB4bHo/2nx6J7L1bN/X/8bXsdVomcQMg4J5eZtUvzjwxGC+niylKwhL37/NU6zBO/nSfOmG+PDMg78v7y8A/mGVLJDLCL4xKWK+3Isq49C8gS8MV7D82Kix1W76uNdUV83xB8bQvCh04Ns1XfDJwzxAhis5GEj1Ed+nCjs3MRwMDS6ZOffjFKxOjtUZ44t7X3ZIQOHH5dw+M1IEEYLtydN6RLjlYD8EgTUja99MzEkdM30vJH2Zm22dLTb4gfgAnAdI9cNOUkr837jxgyB8njUG8EgzK5+ihphI50kvzTyudrnyI6huZZDNiGAFKR36ZTCZ+0eRH1ZwUCfOo5P2Uw6dDYpFFJkTKhRweBggSCoWzKsFctIIKHx6aM/h8DZfBNnJkkePtzDXc5Y5flY0nbvoo6zINXb2qbQ85O345OXblpwrNCAaG049j3X/acMOQUjLU3bkBI0a1GRxH5TyKudlp6Xww+tXu7h+Br6QkfSrbMSk0+WDSdRXQ1NpLwzTxbMWWQzvrhN90GnCAz7M5iZNc3cTVafPPW3POMY0kBIYKAMQsnCsPspoGk7eo/GwnhY/S4+cDaYd3oekDImDUkflr+kC3C/jB1zYxumfFjZg8lYRSPiT+3smqWw+UMSOrRSsKXVr6Q9mn3jqblDwPoEEAqsi2LIDxF1tfNu8j6Yw0ATJJdsujQMXiFKPGewTCbali2lTB2+cFByJr9jlUN4ss7ZgIhZvIs1837e2qb1tj4wYoLKkSff99r8mX1BGx3l4OJz8wf5WJCAMxlA4qka19ZOr7/8rUZ5HPIve2n92H4oe2U3k4h+Fp6wofOBh2eJUOUYpnR4pnOx7OQmBBhCGkQNx2IG+QMMIG4iaMMxyx9kjQdNWYoCU/+pM+IFQABHITwuZslGK2OzNwzxDEtfwCHtNFPYURLO/F8bfGJKZ9s3rDL2krC14r2cdtcn9M7dru2T5b+t5F1LZLwbGQ9k/Iqov6YWoEwoYcMbjFDhg7d2elZg1+shODALFZXXDUUqQuEj2VdVlTEsdnCJnysULj6mQzK2Yyxre+UyR8ydvnhY4O7pE25GNAyOygDeMmTK+FHZuaMbiH5pznwmbD2DKCdlt5XE/c26ruG4GvpCR/T6ABBkkvatRXXyCEN4sbjHFzypqNCNm1ng0ca4SNN6sHMG6NTQEEImBA+iJrkjYkE8jw4MmHO4U3Ln/SkbSgbs4fyzNLGP/vWCODfDvbV0kevjjCtWNJtVftI3fVaXdDL0v82Uh6KIDwbWT9fXkXUnwH7rhNnowND5w0mobYDsZOyQvDuv1w1g3sIm6i5iL9cZaWDmUDbMavGxABYyMCZ2TqJw5VVGggnA1cwkZlGWcnBf3f/kHlP+ex47j1YyrIwS89sMmF3LrZN0anmHRMFgvluXH2uLuZt5LcNwdfSEz4AgaVQcX8/dNx0wE8OHK0tkYY2akiDxKUF4LCLL85P3qFkzLR+0owjnR5AYfQI8Ii5lDjCx0YPwhKH9H35y7IHbUJ4ZgeJDzjiuIcM4geYjd99YN65IJakoyd1TPL3lY/4vvaRPPRaXfDL2v82SiaKIDwbVbeQfIqsv7ukK+Vl5y54yXIsg2oGq+JnX+OWdMW/b+KaIWEHRyfryBz+W3v7jf6zTfgkHu9En5qZx7ilZAkL4WMJmmc29YHdGLGXjXOo5yjhqy62iRwUeQ3B19ITPrcBi9Dhw8o7pKl75IIZAW7a02U2RaCDJ+UTQgeJYsqemTVASPy5ohtCOuN352vvhfAxmwdAMBJlhGoTTF/+M09XTLoCSCg6kw/pMaJFP5BlCUbLgNKd5y8NOUXv0C4fhA49FPRN3BM3CJfk7ysfcUPaxy6L3lcPHEMAqYjv/uHeg0bmWQKk3zDLRB9AXaKR8pS1fr46lKH+QvhY4oWYMStHudGjY0CLigqD1cFrtyLsBrp1SiN8EvY/v9xldKnjTuxwCR9hWOpl8MwkAzt2Gayj2yfp2VclfNXDK/v7tsN9CP60IeFb04cTQGjkQ4Q0SFJ66N3JzBnEh121AIGER7+DHV2MRvlpQLJcYGLpAj87nhA+3uPQFWSnrmzwkPTT8me5gFk2CcuIlrRkNLzv9KgheLxjpAoJhACyTC1xuFIvKQemW2w/n39a+Ygb0j5ufvpcLRBtpv/lKQvXHz+tyb3IP1dIRiP5lrV+vjqUof4f7+up4R/qL1gdYHAKjjJAxiQXg32WaD///p16itQNwgc+v7/tnd088ZMr8ZJWYWzCx85abAOCh5IXG+nA5om5hbpVHAbZ/IuOTVyNMBjNPQNqBu4MsFnS5R1Yyw5j7pNIo5RTr9XCvY36niH4U0f4UECVZcSNKuRG5tNs/SAtjIYZKSaVGwAgjJAtOxwABrja74TwsQklbuRphw3J3w5v35M2+nb2u1bfh5QvrX1aXR5Nr1zA2Wz/K/v3rHr9fO3fTP05AYMZNEjd9uODhuhhZeDPuw8YzBKzLRAxcMYtCyoykEOIIcuocQ6yx8YJNy7PNuE7c+O2IZbs3rXDolu98OZtne4z5YVoNuKq/I+120vvNxZ/Q/pfHeHTD9T6D8QmCnbKsnzK7B8AYbezED5704btr/et/ybaptqmKgPllQGMG8eZ3YLUuSsf9ndkdg/TVkmOgbgd3r5H95oZOWz8oZKTNPjetLurbobPTkPvyytT+m3Wvo0Svs/zFVKOg5Ol1LhzHFleZekgafeZCmq+30fbV9tXZUBlQGVAZaATZEAJX86Ej2XUvJdSO0FQtY4KyCoDKgMqAyoDKgPZZUAJX86ET4Uzu3Bq22nbqQyoDKgMqAyoDLRGBpTwKeFL1GvRTtaaTqbtqO2oMqAyoDKgMlC0DCjhU8KnhE9lQGVAZUBlQGVAZaDiMlBH+NhR6u4iLZqRtjL/qtePtmKHGceoYUuqlW2naenotFkZKHP/w1wQuzsxmcGu+ix1LXP9stSn0TjN1v/TrqN1/x9OB8IANmawsGbQSHl2HD9dd0SbLy5mtHrGJms7cDGcf3hsyuSJwefjk9dqpyPFpcW56BitR47i/H3v2CXMCUtx5+zSBu5Z67701L/z8Dqk/9URvhDDfUUIEsaCbYOoct/oztY86/dZd685l7GI9iFPflTTS8t17QSAFFUezbfzAMf3zfPsf7680/xPX5sxNtyw0yaG03lnn6maFl/8ylo/KV/aFRtznCkLtn7a1ZsJN5qtP/lzBJmUc+L+gjkSkhONMGBsnwcuYTC1MjZ7f53DQPPcyuq694TlCDmJL1e+NTb+qAPvsAEoNvt2HD9jTtpIs79q2/GT+Jx45Dr3/HLJH9uCE3MPjZ1WzNLY7zmqDTIp7/Sq2BonAyH9rz0I3+On5kzDruHxyHYYGoyreNK7kAZJiut7zzmPGOX0hcvD/y/fdBvTLnefvzLEj9EqI1ys1eeRn6apgJNFBvLsf1nKI3GYvWHAxCwLttw42QHiE2cLTuLEXctav7iy2u84EQjTUBgupt6fda+dyW2HCblvpv4coQbZtm3lCeEjb46948hJOS9cysOMGPbzMHllu8n7ixHOfsc9Yd1ZNKwoYOx58NpMhBkt7h++/tGcnMQ9R6ydnZ417zGjJXnbV5fwHRqdMG1KucWRDicS2fG4Z/aSkzw4hWPh9Vtz5i7PuO5zF8zRcsiivHPj67PiMTIQ0v/ahvDR4ZoV7JAGyZpHkYSPI3sA6iovx2f9LhqvPGCYZ/9r5XdmoER/+tI5C9uXR7vUz60HZ3xzdjfHkxVB+JjdurLw2JAqZvE4yxg3u/zSHEcmz70XnPg2mAAAIABJREFUr5j3EHO7DhhLptycZMTMHI7BL+ffyjN+hCGsHZd7zkwGv8VdXVwyx6jJs311z1dmufXWk+emrKRPma8sLBmVGp5t1RpO/3DPVyf/C/fmI8gtToiqPK+7zi2sK79bH30uD+Zt5LcIwR8lfIFKmpyEQWdkJMwUu5ArZtM27ek2SxEsO3Avjql5llUvzT+O7Gl6hIAZBYCWkRtX0vv65LABD47pOTw6Wdexk/InLZYvAIYk4cI6/Ymp6wbEGCVTHpm9wKK85C/xWd7gHXostn9S+dLSB8xJ66tjA0anZnrpmVmeOXrhcmJ5pRx6rRZwhQBSGb754LVbpp+7fdZXtnapn1sPZqd4x1InJGWjZ/ggVOSLDh3Lpyxf4phxFKI2dPNO7b37XYTwsSQshIlzb3HyzDm35OESPpZpOdtc3Jc9J6LF12/NbJ+8c69xS7s7T5wx6dvLxRBOGTRAFKmPW3b7W/AdWNa1ZwFZAuas9Kx6pXb6el8tPHW/Zwj+tA3hQ7+GDjz14FG07/RohJKsW2Hfc0iDxKXBqIz8R2fnDGlhBAhxggx9e3rUdHTAxHVbe09GH+87bN6zFG2nfeHufIRuohytRr1I8+TlG2b5mrRERzEt/99/tcekb4OEnQ/343fXDiE/deWmaTt0WyCuLImzvEFekDuJB+HjHXULKV9a+gLGkD7ypAwsnZD+lp4TtTwlb71WF5Sy9r+NlInd/UNGNr/uH2pYNtuhfmltWQThg0yBCyylQvikfAykWeJluRV/1FbEz70KxjA7+OE33cbJzJ484wfmuIQP/AQP516smvN3CcPAnWcc/xzeLb55W3sXd+wa/wTCEV78z07fNnhHeSG1l+YfJdYBoglB5J9gLzkzQzh49aZZ1kW+GtUrddtKnzsbX9uC8AG+zAihSM1sFh2LEZs7te8T5qyAPPNsxUzVS2cDRCgDhIgyMDLjrFxAgXtxcsg3IzR0QuQcSHbTAGYoIwuhYvTHLkHqgK4G6YsCc1r+bBYhLHoicfXfvP+I8T86/m5GjdEicZjJCCV8SeXzpS9gDGFmVpMy0i7UX3eeVRd84mQxa/+LSyuPdwywkFOWDrOkX/b6+epUBOFjIAy+Q9BswgdWsARKmUMIH2HAKK448AWMk2fucYLJbluAyQxKIZ5C2CTM6esz5n+TNDu3eX9PbcPc6O05k857W3ZHn3/fawbx6P3xb9hxfHCdXDHzx8wkcsesZtJEBkvH/PsghI3qrks99FptvA3Bn7YgfLag0mHpGHReRuO2n+8+pEHcNCBvgAcjN4ibOPI/Zv0YGMElbdpg1xvhyZ/0mY0DAOjcQvhc8sOy7sjMPUMe0/KX+AedJWCpx95T50zesgQt72eXX5iZxFDCl1Q+X/pC+Nyf6NLbn6ND1oheyqXX6oJSlv63UfLADBDkANWHrHmWuX4hdSqC8AnBcQkfeMaOWsrNd0mb4UOFhs0erKZAjBgEExfdOFYuWG5FR/Dh6o/Rpj3rN/pt7e03s3qC0RB/25EGeIUVBMid3Zb8j9iMsa3vlMFZyNjlh48NbhPuxuNnEQN2ZgvjyCbhR2bmzCCDDRtpjl3DhLVnAO2y6H11sTPk24bgT9sRPioOCaNzNgrOIQ3iNixLCuRFR8MulO1sXZc0wkeaTOczYsVOk+zE4r0QNnT0JG9MJJDnwZEJs6Thyx/ySPkkvn1FB4T4orMnftcfP41uP3tRm+EDsMSP5RTi2Eu6SeXzpS+Ej52Akj5Xlk3EzpX9Xu+rC1pZ+t9GyAP9jR86M97N5FfW+oXWqQjCJ2VzCR8qL90jF8z38BG+O89fGjwBX5mhYxMFs3VgLjqAbPhjkoArA3ebMGHNAKyDIDLAZtMFA2zIIfc4dPogdaij4GdjJRjJDJ38k97fvq9u2VVUBA4MnU+VLXCUZWFmNu+tvDK7cxlMg5O8Y6LBnmCQdtNrdfGy0W8bgj9tSfg+3tdjOunewXoS4WugkAaJS+P+y1Wziy3OT94dGB430/JJy8x0WoCF0R+g8cHONUOicYSPjR6EJQ7p+/IH1ABFdwcZcSVftvdLWdFboQyQRAEqNmTgz7I1uopphM8uny99JXwKSCJ3WfufxM/rimI/M95JfTc037LWL7T8ZSF8LIEu/fSv2sY4m/Cxgxr8susEyWLwyHuIIpsq0BO29ZoxycIMGXrDoppDGizf2vrL4DL52ZskGORjqofw6NqxXCv5MztImQRHKYv48Y5NamApS7FpRpkhfOA4cdkUCK5+uPdQbVkb9R4lfIqlIltx1xD8KT3ho3MyOsMKOx2I6XpGcQACehdxFU96F9IgcXG7hs6bTsuIkw7NskD3yEWjgyfhhfgwkmMECYi4W/AZddL5BTyIK4SP2Tw6OCSWzRuYSZC0ffkDkIxIARfIMLqC7A5jGZf2Y3TK6BdSx5IHSx2UgzbFn7bkp4cCNSNdCKZL+JLK50tfCZ+ClMhx1v4n8fO4sqTI4GdibsH0WfqtuLgBVFoZyli/tPKKH8uh4AJ6wPR7zKDwvJH1t2f42KkKZoEtlNEmfBAnSJeUnSv608yAYUOR8kOsKDuzY8zAoVLDEi04F6dHZ6fFLC8zffY7sM9nFswlfBBJ6oBqDrjKhgwG+zZZtPNQwqc4actDlvsQ/GkLwseUOh1ZHIQEfY1GGyWkQZLSZLRI56UMABC7aunIEh79DJnyJwwKxO4y5q4Ta4BqxxPCJ3VjyYGdurLBQ9L35Q9AMzIkHRSAucpJG4xary2ukU3es3yFXoukzQiW8uIHSKFXwj3kM6R8aekL4eMnIvlxZRnaNT1j++t99QCwmf6XlzyI+gLy7jrUNBrJt4z1Cyk/6h1u3XkGM0LiS5hm6i+Ejw0c5G3v4Adv2RwGxqIOw8BY8oRYMUBGB1MIH5ve8GcTHMQPAtdzfsoYYYb0xenxMZBnwwX+zHRK+pBHiJpgqbx3rzbhY2ctp3ZQ7s+/X1uloUxgOwMLeyaZ9DG4fGziqtkYwj1L1GAvRqIhrbxjNQZ7q9wnkUa3TPpcPQxN+6Yh/a+O8PGjZ6YqLdGi/JjFgijFddbQMjVbPwCH0XCcHSYpAx2YMPxI5J1cmbIHXOWZqxAqRp7u7jA7HPch+Us7xaUFIKLgTDpu2pTbXsYQ/0bKl5a+pKfXzgIh+3s32//stMp4X/X6+dq8mfpD+NjYxcY3d+kSzITUMeBmJYNBpJQFiwmyuQNcg1QRVjY/QJgYALNjljiswICREp8rz6SNTrOQPQbY6NQx2QBxExJpx7PvbcJ35sZts6PW3eCBrij1YzZP4rIKQ96NuLL+o6VOei0G40P6Xx3h0w/V+g/FsjNEimUHlo7c3bJCqOxNEWX6DmUvX5naSsvS+v6jbdoZbcoMHbNXEDhZypVvD8FjEI1fkmkUCcsSvYQl/Nrg++sawZJw7hUSZQ+E2RXMMnCczqAbl2dm7ZiRo6yo9MQNuAm3aXdX3QxfXFr6rjNkvojvrIQv8KSNrB8HfUOWKNA9QXHYTYfRJSNIwMX1K8Nz2ctXhjbSMihAqwyoDKgMqAyUXQaU8OVM+DDrgiu7IGj5FKxUBlQGVAZUBlQGqisDSvhyJnzaearbefTb6rdVGVAZUBlQGWgXGVDCp4RPZx9VBlQGVAZUBlQGVAYqLgNK+Cr+gdtl5KHl1FGyyoDKgMqAyoDKQH4yUEf42FHq7iItU+OzAwrDwmyxty2ah5ax7PULrUeZwrGjjiOAGjXSmlcdMC+DWQf37E3KiS0t2wZiXmXQdOMBq+r9r+r188l1s/XHHmiW/w9mslptqgSbqRii9tVZ/NkdzAEB4I+8a+TKLl/wyT72TeJjY9U9y1z89BqPNZ3YLiH9r47whRjuK6ohtx8fNPaVMG0iRkLFZlJomfKsHyeAYNU9tCytDMcpGrQJxpMfvv7RnCO5UQQMEk7erpHpVtavkbTk2D0OX7fjYcia3dDjd9eOL7L99H5jQDPP/tfsN8RGGmeiIsuczJAlvTLXz1efousPUcIgPAaHsclHX41z7rFq1IszzQlL+/N87tZdkxbpxbm0QR/k8cz128YAM0aYOXnDNteS1I62HT7CUIep+UfrnG2Dz06LPDhhBJuDtukZ3mNQHzJph9f7jcGsdmrnEPxpC8LHUToQPToixn2Z3dvVfzZ2NJT2gUIaJC1+mh9W+TGqmRYmLz+MkXLyBzaj9p8eM9bZMSKaV352umUjfJSNU1jijGPzUwOY7fLr/cYBZ579r5nvyGAFwiCnzUAgsqRX1vr56lKG+tN2GB/GYD2GlM0s/Z7uiD6L++TAUUPGk+zbQdIxsvzd0JgxLs/JHOJmnq6Yc3XlOc4oPm3EDAnGljnJCft9H3172AygOR3DNdbstqlL+A6NThiZYpZQHKcY2ef7ShrYOsWwM3YIMRhN3XnGcQY6pJWyyDuJp9eNw652aOsQ/GkLwnf54ZI5bgZy0UzDhzRI1vSLJnz2WY8cEs5MhT1SzFovX7wyEj5fmdW/GKDMs/81800545qzqzn7mn7TaYSv6PpDllilkKMWIXwQHfubMrPHt0kifITFqLGYwEKFQww4Uz+Wi+307HvUP5hM4EQOjseEgIGdOE4v4OQMBgOnr88Y4892XJZbbz15Hs0ur9lb5XplYSnieDVT3q/21vKlju756qTF2eYT9xeM40xznDyvu84t1NKzy6H3xWBamdo9BF9LT/jowHQcOmKzjRvSIEl5cBIGHZGZAKbYRdeE0SLHlQ1cnjYjTO7FARjoZVyaf7yOfKFzAhAxcuNKel+fHDbgwUhXwE/Kk5Q//szw2YSvb+KaWZIQwCPMp11HzRm9ANLs8gtjCBrL8Pix3Hli6nrtWCLKS7nwow6UL86xNGITPs7nnV56ZtqBsyHt/JPKz5IFaX91bMCc7yvxj164XPe9KQ9EdubZigFXDFmjO0gZaTu3fLZOD2eCij8zoMQRF5q/hNfru7ZrtC2a6X+N5tVIeJn1RUWkEwlf0fWH4NHuQso4ghKcZcZOHLNchkBte0eg+MZbe09GF+7OG2ercVy899AsDxOGvi9pu3LBWbesHlEGMZJPPq6be7Eajc7OxZ6WRJpgH3FsNaN7L1ajLw//YLAGFRtII3jqlkGe+Q4s69qzgCwBU5e4Yy8lnl6zY1KV2i4EX0tP+NigQUfa3T9kdOTG786b0VjcSMn38UIaJC4N8mL0R4enYzPtz3mNjDbR23PBQZ4BI5YXee4aHq/r6IAUpEWOLmNJljRPXr5hSBNx5PSNtPwpr034tvWdMmDJkoLUhaUMANSQpMERo+tC+qJPgl4bYASp3nd6NJpbWTXhGd2iTAxJEkcbQkgBSZZZhPABquRBGoPXZkydqT9lSCt/Wnw5QJ0lHfJkaYYy0+bkJYfbU04pHwSbunE2sdSfOuFPGhxxJ++5huRvh9f77OCatf9tVJt3KuGT9i2i/hAxdOUW37ytkbIP9x4ymzAYtEH42LDAPY7+KuXlykAWoscsGURR/FiGRR+QZ7Bp8OpNM6hkYMkGCwnHoBS9X55JG1UQHDpz6O/JMwNDwrDUK3HtK/8EcIezfGUW8uz07dpEBVh1af5RbFzSQW0JgghG2xs3mCmk7BBe+o89iLbz1/vsuFSVtgvB19ITPo4joyPderpigAHhRxcCwiEzVKEfLKRB4tKSWSXpbJzRSJkgHhAiRmYQCUCLe3ECEozQ2EzBTBrpoytC+dFDFMIH4dp8YA140NUgfWYNCZ+WP/4QPsJDSrmi+Ct54w+BY/RKWXmmHoSDPEEGuT86/m5GjdEk7wA8wtuO2UP8ZIOKECbyllk18qZ+kC/ippU/Lb7sTAMEaVt7dMyzED67fLKUYhM+8Uc3J4nwxZVf8pf4eq2XhUbbI2v/azSfrOGLIDxZy5pHvCLqf2hs0uC4zMJB4BggijOEb+RC7Zn34Ktbf7AsjfCBkbeXV4yLi++mx2pC6KrS5v090fTSssHF0dtzhmC+t2W3sSbBIB79P/AqDpOY+WOzEPgDybTJqF0mlo7vv3xtCCEDXNtP75vDpaq0Xwi+lp7wMUsEwaBDiH4GH4ilPzpKIx8rpEHc9AAHyAsjN4ibOMqEcq2ET9PhQ6GY8ORPeKbsAQA6txA+l1wwGzUyc8+Amy9/wAxdD0avkCxGg5cfPjajUyFvdlltwseyKGWTJWqpD8u+tLE8c5XZTDstIWy9VlsQljKwLO1rv7T4/AzYvUf9T1+bqStLqwlfXPnJ366/3jcHrFn630a2eRGEZyPr58uriPoLwRHCN/lgsbaMCy6Js5d443bZ+ghf0pIubSKDWMkr7erulmVwywQEKyvEg4yBvUIqbzx+Zga8LAnbg3D5FoQfmZmLwB82bKQ5SChh7RlASUevzWFTFdovBF9LT/gYPdGRAAL7o0A6GD3Z73z3IQ3ipiE6hHQ0QMN2tnJ3GuEjTabzUdqFwMhOLN4L4UPHTfJmCZM6HxyZMCSX+7T87SVd0mApmDiMhv/ZN2Du/3awr5Y+eof4A5I47kVnT8rALKG905c0Id2QUJnpJKwQNtcsCyPzw2NT3vL74kNEKR9meaRs/CRYBmrlDF9S+SVPvTYPqFn630a2exGEZyPr58uryPoL4ZMygrPoErMygokTSJSNOxJOrs0QPggUM22s3HDFkSfmXeSZQTv3LtliEMzEAwQPnMKChF1OVJF4f2DofA2/pMz2lfKzLMwqyb2VV2bTCoNxcJR3TDTYA207rt43j01VaMMQfC094ePnjtCz2cD+KBAPlgrtd777kAaJS4OlQHbxxfnJuwPD44YQybKpvJcrnZaOD3AxY/XBzu9MenGET/TQZInUl79L+FAUJq+v+4dq5E9GuIAROnsCQlIue1ccO+IoIyST8qOHCLm+svB43ZKDj7ARP638vvgsZVBWWR4mPXbL8U4JX3sBXdb+J30o72uRhCfvuoWkX2T9bcLHqgQrHOjygW1gFANQMDapHkL4mP1j05yrwyf4lxSfOJBLMZxsL+kyQAb/mHxw42/t7TfmsGzCJ2F4xyoJWIVaiqQt/vZVys87NgVSZ+rPJAHvUO9RwtdeeGd/3424D8HX0hM+Ggq9K0NQhscjdCN2HD9tCAk2lxppyJAGiUuva+i8yb975IIZwW3a0xV1j1w0OngSXogTIzlGgcysMcMm/lwBNerBxhN5L4SP2Tw6OIrGgItNMH35myXduYdGgRlQvPP8pUkD3REc+oGQY3Qe0XPBn9k62hUCyJIEwMIuYQgWCtCUE30ayB/pQwC/GThn6kXdcIx4fYSNeqaV3xcfkGR5GD1EdGCGbt4xZaX8Peenau0o7enT4WPkTh0x4UAcX/6Srl6bB9us/S/vtkcRH5nAXhpyj5zzjHw3kndZ6+erQxnqL4SPgfDd56/MjnzKDfawOgHZAhcZxMbVB8JEWJZ+GfA2SvhIE4yUjR424WPDF/p/9sydWwaX8LFxA1yFuEJC2ZDBYJ//lxuXZyV8zeNLXLt20rsQ/GkLwsdOKUgSYAzx4MqIJ04nIu0DhzRIUnz07ui85A2osKvW1iWhLCj5SvkgWe4yIcf1EN+OJ4SP9zh0BdmpKxs8pDxp+QN0Eh9QRG/EPi2AXaoQJMIw0oQEAm4ygwfIYrpE0oBgsRuZvPnpyXv32jM2WSNM/CSlrFzRsbNNyySVXwhXWvwdx88Y0kr+7NRlNM6Srr0TWfKWDS/2Ern4MdModZC6h+Qv8fXaHCg30//ybHtmj0Qu7Ct9opF8y1o/Xx3KUH8IH6sMDDxZvRFsF8JHHdBRBscYbLp1YoMZuMygFewjPUgb92Adg1vucWCEHR9yhkF/8ITZNe5JD/t73KPagp8x+r9tbyzxswkfg042GVIezL6QF3mC7RBRexWIAS0GlzFjhb1Z7hmQQzwZoLO6xTvwaujmrLlPIo12nfS+Oaxqx/YLwZ86wocCKTNVZa0su1uZNYMkZSljs/UDhBgNQ0CT8qcDEybOmjuza4CrHVcIH7NXsp3f9rfvQ/K3w9v3pG1verH95B5Ag0wJ2Mr7Vl2bKT/t6S6DA+5u2WSmlaPuXD99LhYEm+1/Zf9+Va+fr/2bqb/M8DGbxiBM8rIJH++w2hCHk7xnVvbPuw+YwSYDziRn2/gEr22SH3IPuZPyydUmfBBFdtS6S8DoZnMaE7N5Eg8dZSYSGnFl/kdLvfS68Vgb0v/qCJ9+pNZ/JEgqOimMMJn9c3fDCuGLm5HS74FR5T5j/xCiz8wkoI4le2YCRIEaAATomY3Ej1Gx7P7TNmy9TGubapu2WgaYzYIQuekyu89A1H3fymdWUxpxcXkza0cdIKvgUhwpJR6qJPYMX1xa+k77V14yoITPsTPX6oYW6+0spTIKddOHxDD1L0aWXf9Of2bUgj4jO5sZfbNkjQka9B2lbSB/MjJn2QTbguKnVwVPlQGVAZUBlQGVgW2REr6cCR/LqL6lVBVEPxihMM2Srr3cI+2GTgsjZ5nxk/d69bertpG2kcqAyoDKQGfIgBK+nAmfdqTO6Ej6nfU7qwyoDKgMqAyUWQaU8Cnh0+VPlQGVAZUBlQGVAZWBisuAEr6Kf+Ayjza0bDoaVhlQGVAZUBlQGdgYGagjfOwodXeRhn4ItrdvPtBjzLqwKzUuHiY/sIOUtIPS5x+XZiPvmqlfI/kUGRY9NgyVYguqyHJkzTuv8qMDyGkdtg1Eu4w+fzus3mcDp7L3v2bxp+z1y1tum60/G7Hc03PYPYvN1TRTXByJJv8UTD+xES7J8Z9y24G4n3//zowTZrcIF+fidIjd9PQ5Gz5ouzXXbiH9r47whRjui/soHGyPoWGMYorhYd6JZXJOa5AjZvBnVypH0khaPn/CsWWfMwvZjQlplLiNXLPWLyQP7L5xrmJI2DzCYJpkemm5tluVdrKPI8sjz1ammXf5+XEgdxwrF1dun39cHH3XGEDl2f+a+RYh+BOSflnrF1L2IvEVYoUZE+yX8g/BvAnPOE7TYRc+hI/nOPum/Bc4xQI/joHEdp9xr3+9rv5odveDiZyW5LYHJ3PYhvIxKM9/Shzx5F6PN2usz7ttrc/5tV8I/rSE8B2fvGZm9rAvhM0kORXjo28Pm87FUV38bCFFdEositPBxOK5z58TK4hPHDrfZ91H13XaEEEKaZCQdOLCMDLFqGacX97v/vJNt2kfjiSCONHGHD+3pecdqc67DM2kv1Hl56cWZzRVyu7zl3B6zQZaefa/Zr6JD39C0y5r/XzlLxpf5X8BtvvcBetYSqkXhJE0bj15bkgh7yGH91ZeRXtPnTMndJhj006N1CYhJK5cwU2MHzNoh/CdmLpusByCx/+NcBhs7ptYu5d4es2GBdpurW+3EPxpCeFzPx5Eg47LyAmTJIyO7JHR2elZ48/RWz5/0sYKO7bYML6rhG+9oHDkDu2SdTne/X4b/dzu5d/o9mrX/EIAaaPrFoI/oWUqY/1Cyl4GfOXoRTknl4Ez6kGs5DC7Rx0wwM6Ra0n1YSmX04pYcuU8c/4tg9dmDC6CjRx7yTvJIy4djLebWcWxydoxaJyYMfdi1RyJxtGMSvjW/3/i2lLfbXw7heBPLoRPzjX8ry27o939Q6bTyfmHdFw6ICSQqXifP4IjszIf7ztk4hYxw8dJGJP3F81MGuctCrliNg3dH/RMOOGBe3HUn2XVS/OPI+7tTsCIEqBlFpQr6XFUGKNURpr2ObTES8ofP0AJY8R2+vY9y5WMWDFKjOFiyiOzr5xfyci1a+i8OYqIM3R39Z81dYGk+/zJJy19gJj6cQ4mabO0TzvZxxullR8AlvaROqEqwDuRqS97TphnwnJ+JgDNecAc00QczkQlPE7eSVoh/nZYvc8OZCGAtNHtG4I/oWUqY/1Cyl4GfGVyANxjts4Qvv1Hok+7jhrCB3Y+fP2jWep167N2ssW+6P3t+yKW5vEnPniGMXswmwEl970Xr5h/jp3Gtr5TEbOGOM6vxU9n+LL3cbtt9X5j2zEEf1pO+ARAZSR1cHTSkLRNe7qMYi0HQ3OmLI4fvc/fFpqiCB8zi+iWjM7OGdJydXHJECcIBksAENg4t7X3pNEpwa9reLyOkAEwnL4hR6tNPXhk0jx5+UZN31FO30jLH5AjfUbIdlvZ9+itsRzOKHff6dFobmXVEFdOsYCoMnLF3Xj8zBzcDWBSHkiTz5980tIHkCkfZItlecogI+8tPScMSKeVn00c+Au5Iz8IH+9EZ3LXibPm+crCY1P+7uFxA/qiAE6dIXr8UDjizm4b7n3+bnh9zgZkIYC00W3bCP74ylbG+vnKbPsXga8chzj5YNE4BqTcMxnAmePgEbjFOwZxEo5NGlJuBpJgAQ5VId6DX6evz5hBJUu5DHAZYPLPYZJB4nJFzQgZADvAOt5B+BgYowcIZtn3OsOXre/bba73+bRhCP60lPBBUCBGjKTkozKzRKflJ01HWvrpX2YZlx8/ncnnL+lwLQKQyBfQmF1+WdP/AHCEcKC3yAgZIsFh3dyLY3aL+BfvPTQjVGbCeGY3DaDGTJoQPtqIZYw1/wMmfQGgtPwBLMqyu/9src1JQxzHjOF/dPxy7R27qHnHTCx5cM8ZtRzqzf2egWEzIqaMPn9f+kL4kAtmNSkX7ULaEDNf+RshfHwjZlzJ496L1XU7/taWZNYTPmkrn7+E0+s7+WqkLUIAqZH0WhG2Efzx5VfG+vnKbPsXga/spv1uaKwhRxwpN1jCrCCDPpvwoTbEIJgVE8gc92Oz99cRPkmH1QzBWwbybCDBsfnwzI3btWfwSOLoNRsOaLvl024h+NMywocpECFw9gdllxU/e0gSpAZSgT9LkEzT+/zttIoAJMgb5ITRJ8RNHMTI1ktM27SBLgrh+SDUB/CBHGIOQAgf5MeuK7NR6Kz48pf4jFLt+HKP0jJ5yxK0vJ//TOAlAAAgAElEQVRdfmFmEgE5AJH3LGksvn4bYZaAJRYhfGn+vvSF8NmDAPJi9vDQGDqc35nyJZW/EcL30bfvztclnpA/qbOP0Pn8JR29ZgOsEEDa6LZtBH98ZStj/Xxltv2LwFfJH4xk6TXNscQr4d0rO3ttwocqCsu1l+YfRUM375h7ZufcGT5JRwgfxzcyEBZ36ymD/Re1Z96j6yfx9JoNC7TdWt9uIfjTEsLH7kZ+4HQG90OyAwzCwc+UaXqZ9UIZF30un7+dXhGAhFI35R+ZmTMzX8x+ibN1CdMIH3UAeKiz0VF5/bZGFoXwoKMndaU9yfPgyISZDfXlD3mkfBLfvsqsnejsiR/f4vazF2ZUy1I17yF8mHbh3iZ8af6+9IXw8Z0lb67o8R0emzLv0sovhA/wlvgQOdrEXdJ1CZ6El6uP0Pn8JR29ZgOrEEDa6LZtBH98ZStj/Xxltv2LwFfJnxUK1H3AoDjHjD2bMiS8e3UJHyokDM4ZqLNbl3uwzUf4wBtWa3DgNcu5OO7lvRK+bP3f/Wb63Np2DMGflhA+FGMZBbG86X5EdDT4OTPLJzMwKNjyju3uPn87vaIACSLALmG7LO79geFxU8e4NiAsy5nUGXtRzJwxkuR9HOFjowdhZQnUlz+6Kcyu0pZuuSRfRrzih94fZYAkMsOXRuh8/r70QwhfWvmZ4aQt2NBC+VENoLy8U8LXWsAQ+cjrGgJIeeWdlG4j+JOUhrwvY/2kbCHXovCVskH4MCslg2n3CgY2Qviwx0e66PKJ7T0wxEf4MGdFPFRVIIsDV6aN3jH65u4qSUibapj2wqh2/l4h+NM04WNZEvIwMbdgFOtRrhcnBITZLZYoeWYWBl0KCCD212hgnz+6FOiYAQr86L8ZOGeeJf3QjxTSIHFpseOLfAEOyCobULpHLhodPAkvxAeTAIwSaQM2W4g/V0adpIPNKHkvhI/ZPCzNM7plRGkTTF/+6LSgYMyM6cf7esyuWWboACgI0s0ny2aECuDRjtgdoxwskfgInc/fl34I4fOVH71PBhWckoHsAP6UPwvhG751x7TBpt1dtW8g34J00/wlnF6zgXjW/pd3e/vwJzT/stbPV/6i8ZXyge2o+KAvF+dQNUkjfCzXMpMnu3xdwscmNAbFcatQ5M+S7sLrtwZ7IXukxcZD3jMxsfOHM4YANvrP8bW9+mfDEm239e0Wgj9NEz5ZXuMH7DrZJQkBQnkWf4geunxMwctH8/mz/OimzTPmNiSNkGtIgySlg94dpJV8AQ4AxD6mi6VqNqJAfglDHd1lTNlNascTwif1Y1TJTl3Z4CHl8eUPkcNcDOnQxlzlpA1mE2kryYPld0ykkDYj2NHb9pLuM/Nedgb7/EkjLX0hfJB0qQtXlnFt0zNp5We0T3tSfsgru4u5hxyTFnXhOWRJV9ogbglciCRh4vzt8uv9esDxtUkz/c+XdjP+PvwJTbus9fOVvwz4CuFjcxoD1Th3e3klkfChhwk2Yz1h5umK2TQoRv0Z2LFJDcxggoEBKs5tE3TKIXyshNhmo4TwER6dY/LRmb7G+77b3vrc+jYMwZ86wkenkGXEVn8QOhkjSezwuTbpyMvn34ryNFs/SB11YFNDUnkYYRImjnywdAm42nGF8DF6ZXeY7efeh+TPbBmEMi4tTkHBRqDoUbrpN/vcivSTyk+7Jp3R3Gy5NX7rwSeuTZvtf3FptupdK/CnzPVrVTulpdNM/SF8EC2IV5yDaMXN8EHiGODKagaDQNJh0MbAnNUSBrg4nhmQy7KtXRcGlVhPYPMhqzTiZxM+3jGITts8IvH0ujGYou38rp1D+l8d4dPGe9d4rWoLQASigsIvYOOODoXw2Zs2WpW3ptP676ltqm2qMtB6GWAmDgPqSW3L6U0ya+eGiTtbnQE32MrqAz9C0heHGpKbRtIzm91keTgpjL5vvTxom+bTpkr4LJt1eQjZ3ZWXZrSJkWX0QNw8mNFi5ClGll1/fc5H8LVdtV1VBlQGVAZUBjpJBpTw5Uz4MOuC6ySh0roqiKoMqAyoDKgMqAyUSwaU8OVM+FTgyyXw+j30e6gMqAyoDKgMdKIMKOFTwqezjyoDKgMqAyoDKgMqAxWXASV8Ff/AnTiK0Trr6F1lQGVAZUBlQGWgXgbqCB87St1dpKENhtmMzQd6jFmXJPMZmARhR1XSLqk0/5D0fWXNWj/K+/n3vbXRD2ZZKE+cw+5cWjnY5s9uMQnDLjLeyXPSlV1nmAwQf0wLiC093rHL9w9fxZt1aWX5JX+91nckbQ9/e2TtfxvVtmn4E1KGstcvpA7NhMla/1bik+Krvx828401bnnbN6T/1RG+EMN9cR/89LUZYxgXe0hieJh3YuCSo7w4BQLbSPizK3Vrb3+NvPj8fenHlSnuXdb6YQjUNqTcMzZp6kFdpL5y75I3wAy7TeI4NQJbUfK8//RYxDt55vrelt21tpF6YJIAm1If/no6CUaecfhD0rFTlUT4mim/5K/X8nb0dvk2Wftf3vXz4U9o/mWtX0j5Ob+bY8fA6DgzJyFpZK1/M/ik+Kq4FCKbnRAmpP+1hPBx9AwGmzlHFuO7HB0GcGDDiIbmKC9I3mfdvcYg8eWHS4ZAiV0ln78v/dCPGdIgSWlRP0gVx3lB+E5MXTd1g+BRPuIdvXA54ogfOw2AFAvu4iCGpCPP3PNOnrkmHc7NyRRYlSd9m/BxGgbE0c7Xvc9afjcdfVaAzSoDzfS/rHmGxPPhT0gahClr/Xzl50Qg8FlOs/ms+2gqliSl10z9s+KT4qviUZI8dtr7kP7XEsLnNixGMiF8jNwwSQKhsWe+zk7PGn8IjM/fTZtnO/04/6R3IQ2SFJf3EDFOsIDwcQQa5wdzqPbci9Vf71fXET43PY7+4Rgxef/JgaPR7PLL2rO8t6+czsEMqTjOeWRWEIvy8k6unNdrx7XvW1F+Oz29V7BtRAaa7X+N5BUaNgv+JKVdxvolldV+D2ZwdjfHKYLbRRA+ytMKfFJ8VUyyZbuT7kPwJxfCxwHVjBg5Qm13/5ABkX/2DRgiwtFqgAokkCUEn3/cB7PTj/NPehfSIG7cbX2nogt3542Ts1sbmeEjva+ODZjzcTkj1+fSjj3Dj/McOVeSY9pYQoc8pwF0K8rvtok+K6hmkYEs/S9LPo3EyYI/SemXsX5JZbXf//fWPQabP953aMMJXyvwSfFV8ciW5069D8GflhM+AdCv+4cMiBwcnTQgsmlPl9mscef5S0NWICzMjvn83Y/npu/6pz2HNIgbn2Voynhl4XE0cHna1AnChz7dw9UfDbG1790lXdLb1jcYDV69WXMcEs4JHPa7c7fumnYSvUe7HBDnbwbORbefvYgYjXNkEEu6g9dmItqZtEhz/+nRSMBb4rei/JKWXhVYm5GBLP2vmfxC4jaKP2lplrF+aeV1/YogfK3AJ8VXxSVXljvxOQR/Wkr4OB6MWadea9cpum7ohkBkIEosRbKMAmFhFtDnb3+4uPRtf999SIMkpcGStBA+lnU/3HvQODaUnLlxu/b8/vZvDSlMSof3/Zdu1DZcSDh0UWgnebavkDl0+w4Mj0cyA8hsI/qEhOMdO3ZZGpaNHHZ87ltZfjdtfVbADZGBZvpfSPpZwjSCP770y1g/X5lt/yIIn+TfSnxSfFU8ErnqpGsI/rSM8GEyRAic3chsMoAEsrsUQsMsFP4T9xeih69/NJsQ0vwlraT0xT/kGtIgSekIIGFGhSVlcbeerkSzyy9qz7xP2nQhaccB0od7D0VLb3+OJXx//aY7eu/L+gO/x2bvr9MXhPi54STPVpZf0tSrAmsjMtBM/2skn0bC+vCpkbTKWL9Gyl8Gwqf4qpjSiMxq2HfyEoI/LSF8zE5BViA77gdgBxg6e/dfrkZsPpAZqvlXb8yGA58/6aWl7+aX9hzSIEnxhTAxg9c3cdU46sByLo57eZ+F8GFahTTc/FmiFR1C+0p7szxuv5N7d1mXNFtZfreM+vyu02lbJLdFM/0vr3YNwZ/QvMtYv9CyE64MhE/xNbn/NPItNWzntWMI/rSE8E3eXzSzXJhlcQWN2SkIH7N4H317yPi/v32feYc5E58/6aWl7+aX9hzSIEnxhTBh8Jgwm/cfMTt1MYnCMir6iKFGq+0ZPpaHMZhIGjceP1vXfujvdQ2P1zn0+Nj0Qruenb5d59c1dD7WsHUry5/URvq+80CmkW/eTP9rJJ9GwobgT2h6ZaxfaNkJVwbCp/iqGNKIzGrYd/ISgj9NEz4MX0I+MFHCTlzbAaZ8kEvzj4ztOZ45MYLlSAjgXwL8Q9IP/eghDZKUFoQJPTpm8yB7mEZhwwTvIa47fzhjCKDUOSkd3tuEj6VtiBsmVvaeOreO8LnpYLCapXM2r7A8jk7kjuOD3nitLL9bJn1+1+m0LZLbopn+l2e7+vApNO+y1s9XfvSRMRW1u/+swSI2iPEcgmV22s3Uv5X4pPia3Aft76X31WqnkP7XNOGDwEFY4tyR8UuGiDBNf+vJcxMGoocuHzurRODS/EPSl3R815AGSUoDYgbh6z53wZAzjCwTVggf95hMwZCyb6bPBiTqR/3TjmRjGRwdxtHbc4bssbNQysmImPbE2DVkm2PfxM++trL8drp6Xy3QyPN7NtP/8ixXGv40km9Z6+erA6o2cfh9bTHZpmdcms3Uv5X4pPiqmBQnn1V/F9L/6gjfn3d1mRMz8mgYdukyksQOH8uUbh4+fzd8ludm6rdnYNgsvUK8Dgydr5XfJnyU6fuRi+aYtLTy2YCUFg4/9AEhkczqjczcqzuHV+JipgVyzSYYZgrjdAhbWX7JV68KrI3IQDP9r5F8soRtBf6UuX5Z2qTROM3Uv5X4pPiquNSo7FYhfEj/qyN8Vaj0RteB4+M+3rd2hFxo3pv390SbD/TUSKMvHieWxJ2v68ZDh/Lvh44Hp0v8LOV389VnBViVAZWBPGQgCz4pvqos5iGLVUhTCd/n2jmqIMhaB5VjlQGVAZUBlQGVgWQZUMKnhK+hGUHtTMmdSdtG20ZlQGVAZUBloKwyoIRPCZ8SPpUBlQGVAZUBlQGVgYrLgBK+in/gso40tFw6ClYZUBlQGVAZUBnYOBlQwqeET0d1KgMqAyoDKgMqAyoDFZeBOsLHiQ8+G3JJbPx3//ja7Dz94mBf9MHO/bGCs2lPd/RpV2/sSRCkm+aPrSzSJn6Srbmkssn7Zuonaeh140YjWdoaOcF0zh++2hsrg1nSJA5mOzC5k7QL2uefNd8qxSt7/0vDn5DvUPb6hdShmTBlrD92Tvsmrnn/GVha2B5jwJ7ToQ6PTQVZSbDb7qtjA9G2vlNBGMThAp9/31sLy/+N/2mcS7PXauev9+X+T+XxfUL6Xx3hCzHcF1fQ09dmjPFfjCrLkV+84ydI+N9/tcecm4txT/yxKceJEZKWz3966ZkxDCppP1z9MZO9wKz1k3KmXT/r7o2+PT1aq1Na2Fb7cQZvnOHULT0ngstTZPlD2sNXPgYD00vLde0AQQtJOyTMe1/uMnI7fvdBbJo+/5A8qh4mz/7XTNv58Cc07bLWL6T8nFd+dWHJ9B8G1SFx3DBZ6o9N1jjsSnrHP0bOY5f8D49ORoPXZuqcTFww+UBacbZfJT7XoZuz686Chyzee7FqDO5z9KUd3ndP+NA4mN3CeD7nOpNuz9ik+U/yv5N/ntxj99WXt/p3Htnjm4f0v5YQPo4W44eLHbj3t+01pz7QybChREEu3Js3P0t+2nSiyw+XjID/adeBIP/ukQtmZgVbdHTkhTdvo8kHiw0LfkiDZO0sGD6mXFnjNxOPNvn74R+i83cemCPruMdxTm9oukWWP6SMaeXjiD4GEXefvzJyiIxxAsmWnneDipA8fGH4Kf731j2Jberz96Vfdf88+18zbefDp9C0y1o/X/khGvQfSAe4/Vn30UQZT0sra/0xGIuxeBy4zvnk8hx3dcuwd3DEkCSIkjhs8REuhPCBFxyZycEAkjYzaZxsNDo7Z05C4pSlXf1na/4Sjiv/PdcNXr0Z4dz3STN0/D8xsM+kAXU4MXXd5GUb9ud0J2Yr7bz1vjPJXdx3D+l/LSF8bub8aAEORi5/3LHfjFLskcnZ6Vnjz8jM5++mzTOjOUZ6dKY4/6R3IQ2SFNf3Po2Q+OK2yh+QALizpFeG8qeVO618jM6RNxnVp6WjfsUBZJ79L+t3zYI/SXmVsX5JZbXfX3v0JDp3644ZJBZB+OyyQKz+caTfTAxAxGxnh/Pds7p04/Gz6PazFwYbbj55blYAWAVwB8IQKc53ZzB3ZeGxGSgSlzgsq5IX2MK55axc2bOF+BPWdhA32hHHyUe2H/d2fLsekFvKBuF78OqNOZ/+/svX0dyL1V/vV5XwVVzHzpaHRu9D8CcXwjd47ZYhHgj27v4hI/ic87rWcfrMM1PULCH4/N1Ks3RGZ6DjuH6+55AGSUpja+9ANHl/0dQLIBByASCh+zNwedp0bu7FUX+WFS/NP17XyRnRAbTMgnIlva9PDpszhwEMyLBdlqT87TBxhI/lD9JHp2TniTNmaR0QkrOAfeWX9NPy/7LnhMkDsPph6roBqKW3P0f7T4/V6vBp19Ho5OUb0ezyy2h2+UV0/dHTuvOUP9j5nQFdyoabmn9kdGpCygcochanlNW+UiZpX3nPz4B3IpO+8nOmKOFxdp0kPZ+/hOv0azP9L6+2axR/0spRxvqllVf8ZNb6432HDDZv9AyflIOZeiFKcVewQMLKlXfo37kO3TsmBJi1Iy2IGUv33KPnK/E/3HvITEj0nJ8ypOrq4lJ088myIYecWc43FccS7d2Vl6mqO5RHyNqFu/PmnnwlP/eKnh/hcMxU4q8zfMUNSt3v007PIfjTcsInAPp1/5ARXjoNnWzTni6zWePO85dm6ZHlR37UPn9pcAjQyMycGWWhV/HxvvCjySSNkAaRsPaV5VFmFJnehzQBCiwBQCaYgo8DJ95t7T1pgIj7ruHxuk5PB4f0cA4u/lMPHpk0IUWis8hIl3Kk5W+XM47wsYRA+pAVZv8ALWZIeYeOn6/8IfnvOnHWpMfomO/bPTxulreZlSP+5v1HTN7UF1DjO5D//l91HpllgeSyJMuZmjuODxoC/d3QmLd8AuJHf83Lbg/uAXfyEnLHOwgf70Tn0lf+fadHDdGjjH0TV+u+I+n5/N0ydepz1v6XZ3uF4k9IGcpYv5ByS5iiCR9LyyzpMlC2HYPhxQR1GfCYvuw6+ir14ghLsJp7SB/hUDuSOhN/8fVbM5uHH2QXPOLKINJ243fnzYxj0rIsaYLBONHhY2WLpV3Jz72i5oQMgp1MGuAP4aPM6KqD2fa9LukqGXRlSJ5D8KelhA+CAjHqtRRLEX50Q/jJIshMi9Oh6BAIs89fKsOUOzOCdGRc3EyLhE26hjRIXNyZZytmZoo64P/hryNRCAOjSEbIEAFAiXtxolx88d7D6OHrHyNmJ4nPbhpmONEJEcJHG8n5uug2Aj4CAGn52+WlLd0lXSF8fBdmFQlPucgfYhZSfl/+QpiYvZNROKRcCN/cyqoZGcsSvBAuIXxnp28buWCWz64P977yAZi01e4E/ZpGCF9S+aVM91+ypLKe8IX6S7hOvWbtf3m2Vyj+hJShjPULKbeEKZrwsax8aKx+ZYOyoY8L9ks57StYgmMQy7eUZ66EQ62IGTfuwWWwwt7BL+EgZfxj7LQbvWe2kJUNMEcIH3myYuHbCAMxFLxnIoGZSRxLyGdu3K4927OTjZZPw1ebLIbgT8sIH6YwhMDZgsVUOWQDkgSpkZ88IydIkM/fTot7Nm4w00bHFQLjhkl6DmkQNy4dFnIEaEDcxJG/rZeYpmNGZyc8+ZM+s1GQQ7bjC+GDfNl5Q2pHZu4ZkArJn7hphM8m4YQFmGxwTSp/SP2F8LGMInUAmCB/ojRttxUgS3uILNxbeZW4JCvpJZVP2o9RsoS1r40Qvrjy22kp4WsOMLP0P7v987hvFH/SylDG+qWV1/UrmvDxP+A/4paL1R30vt338gyeYKmACQc2+Nmz/V1D583sGWEheuAOmCZxubLBA7xlIA5Wk87R8cuJjs1Zdnzu/2f7vuj28oqJw7MQPu5ZAWBDn70pxI0vhI9BLypR4m49ZbLhRe2Z9+j6ufH1uTlsqkL7heBPSwgfHQACgTC6Dcc0PZ2Mn+X1x09rW+rpoCxd+vzd9HiWGTabRMSFc9+FNIgbh9lIys9yMsuNtrN1XZIIiaR3af6RASWWFVBMlrILYUFHTsLSnuR5cGTCzIaG5E/cNMJHO0v6XBl1Yl9K3iWVP6T+Qvhkdk/S5MpSKuW3gZxwvBPCh2yg52jHc++Tykc4yDPfx43DsxA+2yaW5O8u6caV305TCV9zoJql/9ntn8d9FvxJKkcZ65dU1rj3RRI+0d+79eT5uk0O9O9DoxOx/Zt6MFBjMgFsxU4m5I17/Bg0C9YKFogf/rxDlYQ8+CdxZfWIeMwqMthmty7P4tAXtNuPXcasYjBDKKs6NuEjLJYswNwkVSQhfJSHVQQc5WE5F8e9vFfC1xwO2d+uSvch+NMSwsdmBkYhsmRnN+Jff13+ZJZPZlDe377P/PDpBD5/Oy25h2hBGOwZKvFLu4Y0SFx8fvQsN8T5ybsDw+OpO4eZjaTMlx8+NiAiy5dxhI+NHoSVGcyQ/ClHM4Qvrfy+/NMIH6Nl6gJRpoyMxrFlx7sDQ+fNO5Z0AVbATtrTvaaVD31QZpeRJTceo3nyYkOM5C8zxEr4NhY4s/Y/95u28jkL/iTlX8b6JZU17n2RhI8ZMvTp4hwDZJZ148rMO1YvMK3DPTq9kCPwghUUCBwb1vADc8ECWwcP/L2ysGQIJSo1ssRL+P5LN2ozi/xzZFMFfuKYtUPXjvx3HD9j6aevmkkOsAn3zcA5szTLxIio7kgaXIXwST3Re2ZVCRM1kEf03WWjoB1P7999i05vixD8aZrw0an4WU/MLZjZHGZ0xMkPmNktRl08M4vCSAgCyKiOj5Tmz2iMnZ+M3Mjrk64jxo4fP/i4qfW0jx7SIHHxWRYAKFgugKyyAaV75GKdXSYhdJAYiAttwGYLOz02TpAOyr/yXggfs3nogAAqjOhsgunLH6CmXZjlYqTLPY62Fh0+3wxfWvl9+acRPoCcMqEHuO3/s3fv3VoVV774X8LpkTNGd35Jx+70iHaPdFpPEqMSNSIQFSWoSABBbspVkKuIcgcBES/pk9Pv9/mNT23ntvZirWfVc9vPw971xxprrbpXrVlzfWvOqjm370rMz8EO3z/2w1Gj+J7GRzuccsakc+Pcw9qnDkyXxNgK2l5Je3cwSAzcvlGLEjSE9gBY32EcwLfv3KdpbJ/YsHn5G8a3VO6w+Ei3Xu/jzr9Zj9cw/jNK3Yvav74+AC34hX2w5gVw4j34d1/+iJ9V/81fACjqye8WdCRnvqELX/GvAZAsMoHF8MwU24ry/Pmz/gKKxgNPCTWvNHgsHtVclOJpeIt/k/3EhBAuViSc9o13pspI/z44dynx+bxezwCftuL9+mqbi4OPwglGnn9nTwKAo36TZj31fe0CxJL5NzHgC/UYRtG8qOEQmElCVC/ehAQATJQgvmHxJrRJEHnd/ViZ0oj8pfeSAekqy74QDED9Jr5TtbmbLZPZSgz4lUYfmyArgFGeLwCfPC6rOid144BHtGdY/cBO5M/vmEwAPkw8ynK38s1Nv/S1f1j9cVKuSyVqD4vvrm1O6mKmAGCuhjUm5+/cX+6Hbw5UR5v72ucHxVyOOqKu8LSB8fse4jBhKhjPsWLva3+0IYCivHnbS+Mj3Xq9TzL/Zjlmw/jPKPUuav/6+mCrDZpuXswN9eXN48fpP/5uwdd1hYbAPdI41BD1kpbZ+2eBjN8CRAAeqRppWs7j8CGHySKvO63TkgTtYeLdxgIwJMCweLNoxD+cjsWT/tJyaKtNs9VU6eZ1tj3b0w7wbfngwwRgw2xWAD55gEf/oCrpW7ugrY02SsNK5t8KwOdHSJJSWsEo6UharJx+/eftj9ikU86weBPY6smkN0HbJlhJWybtH9ChD7FibKuTRFKaNvCDCWEoeb4AfEyR5IwsTxPPJfVH2nHvw9o/Sf36Zj9gX7uYTPCdctVKnmdY+6QDJoHH5ljK1+XjOS+/Ps+OmU46/2b5bYbxn9J6F7l/pX2YJN04/fe/AdhGudp83jbb7XQriT/JG9BkMWkhGIu8SE/wsOf0hWQKKngGHmThDjAy1EwrAIBZQJI2AqmRv+s+KuADKh0asdc5trooOwd83rWBTdOuemv47PjXoo9tyfxbAfgWvUOPY/tMYkCD+hITaa7OAvDlhzYex37WNq9fRlO/ff32i0YDeG4s8Nzx3QB0JW1lDaItHdUqENkWl4cRUDy1aXJgxjB/85BIXk99rnNvFBqogC/bgDvKwJWmZZmdqoQqE7No5iORoiImvWzG1fc6mSsNVBqoNFBpoNJApYFp0EAFfDMGfNSYJarMaXzMWkZlCpUGKg1UGqg0UGmg0kAbDVTAN2PA1zboNaxOxkoDlQYqDVQaqDRQaWA1aaACvgr4qiq50kClgUoDlQYqDVQaWOM0UAHfGv/Aq7l6qHXV1WqlgUoDlQYqDVQaWEwaWAH4nChtniIt/XBsWTliz1ZSl9kSBnXFd51y6osvbUtXukn611VmhDPr4Mh8bmMv4qZxn3X502hjLWMxJ/mifJdZzr9p9HFS/rPo/ZvGGA0rY5L+O4naZm6FGS4uILtOzXa1h+H23J1iV7rS8Mp/K28rpZV5pSuZfysAX4nhvrbOsHfkJGoYHWYIOLfnx91Nnsap1NyLQl+8OnnV4NtQPUBjWzv6wsbtX1+54hlK1i9uw0rSj5pm1uWP2p6avjLAUWlglvNv1Lbk6Uv4T56+63lR+9fV3uncSXUAACAASURBVDx83vx179mLj/hiZ8uUoWQGidm1y9vb9zyqHby+8ir/rfyuj0bmHV/Cf6YC+LgcI9myCiMhvPbt94OjX1xfnqD8DAJDbBOZxCeu3kqeD/75hU0pTV88C+ryh7cEfg3HGdySARmn3MiDaZYY5Yz0o95nXf6o7anpKxMchQZmPf9GaUueto//5GmHPS9q/4a1Wdy8+at/Ai8WDNZHW3kIOnDh8oDfa9ojoO+FHe8vx0c6d4b4m9euj88OXM3w3I9uXkbJc+W/ld+V0Mm80pTwn6kAvmYHd506n6yam2xMkpD8sRge6d4/czFJ6ri96YuXh49VrnP4piXhW1TAF/2r98oYKg08SgMlDGm1x62E/5S2aRH7V9L2efNXXix4s7BYPnnt5oBLyCVftPcGPOToA0ECLxc8aPzvzCiyeGnzK1xg+lfws5vHec7zl4xPTfPoXK5jsnhjUsJ/pg74iL75gzWxEMWGHXsTSPv99p0/TNzt6R0IpKLti1dGSM04sF5twMc6O4aI4fzxvX3JJzCGkvto5HNSGtfG3QeXgW0+KX7+/KuJqWFArmNXbqQ9KzuOf5LC87SeqcSV54c0rPyS9jXLru+LN1nXwzcpYUirPQ4l/Ke0TYvYv5K2z5O//vLl15NAYOuhY8l/7cfXbyV/11yavXbg6MCYxkVNy5D9n3YfaOWx+kpa6P/DF+6Hl66kZyr7rnGo/Lfywi7aeNzCS/jP1AAfAMShvFWYfRe/emVrmmQmLZD2xIub02GNT+89SI6t+ZX9/ME3aVIPi88HfR6AL1yfHfviRlI7vHfik+X9iOEdg1NuQA8Q5EItb7NnoE3cpXtfJ0fc/ObuPHFm8Oreg8n7hv7zMZznoxI/ee1WChtWfkn78nLrc2Vw86KBEoa02m3r40+jtGcR+zdK++fBX59/d8/g+jffD87evre8mMcvaXGOfH5txXX40pUE6IapZd89dnrgij18NEtUu13jwPtR5b+VJ3bRx+MUXsJ/pgb4iORJ7AAbV0i6TD5775xy2nrwaAKEJrQJaV9eX3w+4PNgSAGo9OHJTUsg1t5DTAJoy9v3+YOHrYDv/TMXUr9J+fL0nqm9HXIBgCPOqlf5IRWN8LbyR2lflFPvlcHNgwZKGNJqt2sU/tPXtkXsX1+b8/h58Ff/BW0AyvxD8vaM+oxv3vr+v9OevwB8pJc0Kl0H/Sr/rbxwVDpb1PQl/GdqgC8GwcENG20BFmpJovq7f/+fwS9f2pKA38YfxPFWb1e/+a43Psp1nwdDCkC1Zd/hFcwIqN1//rMVYW2ATLs/u/91WqnmfcmfXz94NKk1fvHC5lTe7tPnB8r6X795rrf8UdqX11mfK6NbbRooYUir3aY+/jRKexaxf6O0fx78Vfue3Lg1CQmYlQDMaE7eOnyi83J4otkvPskv3L2f8ogLwOeZhsRBwvxQSJ6/8t/KC3N6eFyfS/jP1AGfwQLuAD7idCfAPAMwp2/eWQYxV77+NqlG++LzwZ8HQwpA9dttS3sQtQfD0afX9h9ZwXi6AJ/w41durkib9+unz76cpJ1vHz2VVqekiZv3HnokfVv5o7Qvr7M+Vya32jRQwpBWu02j8J++ti1i//ranMfPg786gWury/Vvvx/4J7jTDllM0xjZ6+20rve42OzL222hfPn+wyQhjEVyDvikxVtJ+mKrUZ6/8t/KC3N6eFyfS/jPTACf/RcAkZXTv/4A/kj5GNE0mD/9wysp3iTsi88Hfx4MqQ1QMbCsf7mtQe1sA2TCqXQxLswt70/+TKpHHfHOsdNpr6DNx3m857byR2lfs7z6XhndatJACUNazfaoaxT+09e2RexfX5vz+HnxV3uVXz9wJG2ZCRWvdjlQwaKDZ/+Ul3ftf4QnktrZEsO0znNv78n2hz9M/NJWGddLOz8Y7PnkQuKxsTUn73vlv5UX5vTwOD6X8J+JAZ9j8UDKkh2+FwZPbX4z2dmzPy9E78ev3Egie8wVkLFXAwD8l5eWRPN98Sa1cjfseD8BLZPXu/JG+TAlA9IsLwAVaZ49IpgOm1HMxDTTAmT7zn2a2vbEhiX1rDTUFMbDqVsgkUV/luBz49P/9qc3Ut8ASYyuWbb3tvJHaV9bmTWsMrrVooFx5t9qtK2P/5S2YVH719f+efLXvG34+aZ9h5PqlYrWthlqXmmAUTy0uWh+dvuuwdHPr6cDgey8EjK4WIk4e/vu8jtTL6R/H5y7lPh4Xq/nyn8rH2zSxOP2XsJ/JgZ8NsUCQIAKEOcOmDy99d1l0GKSnvvhFJY0VJYmagxoXzxVsHKbF3MlUUbJvWRAmuUEoIq6Hfl3Upf5mWZa/Y50Tizn8QDx+Tv3l+ON2Zb9H61Ic+LqzSQJzMFiXkZb+aO0Ly+rPlcGt9o0MM78W4029vGf0jYsav/62j9P/krrQ/2Kt9GCaIstQcyqWDwzh/Xizn2D7UdOpf/MX1qsIDh40exjU6XbjG97r/y38sQ2unhcwkr4zwrAZy9EU01Z0lm+c62ubLY1gdsmIFG9lSTzI22GL/viS9rRl2ac/gWgYkqFzbu+Ovri7RfRjlx10ZdnWPy02zesrhpXGeIkNDDO/JukvlHyToP/LHL/RhmLcdOO038L/z2nLwxy/opHAn+2uLDHRyPEOLOtNMx+hd3AYe0cB/ANK68rrvLfyhO7aGO1w0vm3wrAt9oNfBzqiwmdH9pYpHYvevsWaaxqWypzrjTweNAAaw9t34rdvJ8886hEr5mWAOKpTeO54GyWNey98t/Hg56GfcP1FFcB36+HE6y9JPaOhJHlRSOORW/foo1Xbc9weq/jU8en0kA5DVT+Wz5Wla7mP1YV8PUAvkqk8yfS+g3qN6g0UGmg0kClgUoDk9FABXwV8LWqTurEmmxi1fGr41dpoNJApYFKA4tEAxXwVcBXAV+lgUoDlQYqDVQaqDSwxmmgAr41/oEXaXVR21JXu5UGKg1UGqg0UGlgPjSwAvAxcsnu0Tgfgy0rJl0YGWampa0MBofFd52yGhbPwDML6er4+fMbW8tvqzMPm6R/eTltz8w6MBvA3l5b/DzDjNmiHjqZ57jUuleX6cxy/k3jWw7jPyXlL3r/SvowSZpJ+s9d2h/e/tE2a7SDma83Dh4bdJ3ajXTNO8P2z27/69i8+J9f2FSc3//s13/etlyX/5//Vdv1D795fjlds83q3Hv2YpHZmWbe+r66vGwRx7tk/q0AfCWG+9o6eubWl8mgMNtJDA9zdZPb8/vH372Y/OaKk8ap19zLRF/87lPnk7FmRpujDmGj2rIbt39tfW6GMcSsX4cvfdE5oZt5Vuv9wMXLQ335rlY7aj3rmynNcv5NQlt9/Ke07EXtX0n7eUXiuxaPtigvydNMM0n/AZ1dp86tqJdXps++eji49s33yThzs75h75Pa4QM+L959sKI9XfU9/cY76f/EL7M0Ww8eTf8p/6r4X8Uz//Jd5fAZrE7Ck66rzeB/V3k1fH3x25L5NxXAt2X/hz+4VtuQJITXvv1+cPSL68uEzc8hMMQ2kkl84uqtNEGsaBBlXzyfuwAkg86Mch6+dCUxJu5wRiHqkgEZpbxmWkyzxChoM9+s3yvgW18Tf9b0NG75s55/47arj/+Ulruo/etrP6CCP/OABPDxW9uXpy1+3P77J/A8xDB/lEsSBgDhXcAP0PfCjveX4yOdu/9C89r18dmBqxk+TMKWlzkK4JPP/4kruD/tPpAA37vHTqe2Anj+X9IwHs1jSF5PPNOsGfu+ix3CyFPvla/nNFAy/6YC+PJKPe86dT65WTPZfvbcxrTKyVc2HGIj7DcOHO2Nb5btnV9E+a2s2uK7wkoGpCvv4xxeAV9lDItAv4s4//r40yjjtoj9K2k/H998g//XG+8kvrragA8Q4k3DYvnktZuJvy/5wr2X1KL6ABDxskGzk3tqojaVNr8ArwBON77724o46fL8MT7KUUdojXLAJ4yPX8KGSN92/8WGTckbEwkfF5zcw33+4JvB5a8e/vD8sBXw8SF8/ZvvBztPnkn+fvn8bbsu3L2fPJK01V3DKo8v4T9TB3xEzojdxEKEG3bsTZPv99t3pneu1UxGIm4qhL74NkIm+rcibZu4bekjrGRAIm3cuVPDEDGDP763L/kExlCA1UjDp680ro27Dy6HR7z7z59/NTE1DMh17MqNtGelpHz5/33zW8mHL5H/xbtfDU7fuLPCH3FX+fI2Ad8TL25OKl6+KmPF21c+aeo7x04Pzn95P6kd1P/yXz9Y7itPJJyY+y5nb99L45X3vz5XhjTO/Js13YzDf7ratIj962prHh5aiV+98vqqA75fvvx6+hdsPXQsgaKPr98anL19N7lUe+3A0YExjYua9tL9B0mKlrc/fyYtDLD14aUr6ZnKPk/T9kxyBnTlgO/Tez+qdIGt1w8ceaQc+wTV43p5148q3VIJ3z/97uW0BYoE8/iVG4mH4qNxAcLR3kv3vl7B8yO83itvRQMl/GdqgA8A2n/+clqF2Xfxq1e2JkI1aQE8IMPmVpPo0KdfpMvqpy++SczBoP+4Y+/yRGim6XovGZBm3nCdc+yLG0nt8N6JT5b3I8ZBiFd2H0hADxDc3uLcmxRBnAnLETi/kTtPnBm8uvfgoKT8Jze+mYBUAlm79qcPa0w37j6QxmBY+fqTAz5qE3ssgUZW4sX3lU9Vrf3n79xPdVJbAHZvHj6e8pMM2F+pnuff3TPAtKlopuF7uPk96vvjy9zGmX+z/t6j8p9h7VnE/g1rbzNuHoAPvwC0LBLxNNJF/Mz9yOfXVly28gB0sUhttt87oOWKPXw0S1S7bWnzMP8uPn0jLJfwCduy/6PBla+/faRu25TQEMkkni4tCR/+h8/ik/lzU6ULYDqU4pAJHgs0xmWBzZ9wtImkULp4r/fHlxfO4tuV8J+pAT4rERI7ROsKSZfJZ28IwjYRiOVNaBPSZOiLzwcGwAIstg3Z+Jqnbz6XDEgzTwAyfXBKWLy9h5hTTPDI8/kDIvuPH5mQ75+5kPpNChdp415S/uX7D9PKlopcPmOZA75h5UsfgA9Dv/7t94Nzd+6vUE/0lQ9oypdLVL0H4AupX6yOf/nSltQ+wDD6We+VOY0z/2ZNN6Pwn762LGL/+tqcx88D8AXPAMpyaVbertJn0kIAyZ6/AHyklzQqww6iOFXrv5Sf6m0CPotjWqlntz96klj7AMv4H1joWli7qKD3fHJh+V3b2vpj0UwymcfRuuSAD4B8euu7K9Lk6evz+uaxJfxnaoAviM3xeQADILGRlageSAMCgKaQSlm9Xf3mu974KPc/X9u+DBAjbNR7yYA0ywxAtmXf4RUTDajdf/6zFWFdgO+z+1+nlWqzbO995TNBYyzzPZBNwDesfHX4HgCaNl/48qtBruLoK9/eFowO48rbH4APQxWPWX302dXlq9nmPG99Xp+MaZz5N2ta6eNPo9S/iP0bpf3zAHza9+TGrYk3MSsBmFnYv3X4ROdF49DsF0BG7SqfuAB8nmlgHCTMD4Xk+WmN/JvwughvAj7h/llUt5Emvwfgs6i35Sgui2valHh3t9cvz+sZ4KPWZZ4mrg073l8B+AhIxt1f2ayvvq89HlzCf6YO+BBSSHhMAifA/PyBodM376TNqNIQjzPn0hcvrQlupWOyTEKoJQPSLD8AmT1qEac9+vTa/pV7OroAn/DjV24u549y3PvKt/dRXQBv5KPWEBbgeVj58gB8Z24t7YsxjqFuF9dXfpwewwCjfqp5K2ISPtJabaESoa7Or8qc1h5TCRoY5z7O/BunnlHylPCf0vIWsX+lbZduHoCPxMtWFwtI/wR32iGLaRoji0mndb3HBRDl/frFC5sHtBQkhA47iMsBn3cnZUn6ct4nHC+ztaj5b2kDfPb5AYax5zFvQwA+/aHlcekPda7Lc4R3AT58NNLHXdvYIqTmNRaxDSevuz5XPosGSvjPTACfHz3iff3g0YETSJ5J+RCuhv30D6+kMJOwL156G1itkkKlOS6BlwxIs+w2QMbAsj7ltgbl6wJ8VK4ma5s4v698q111AVLqIN1j60/Ypr2HUtiw8uUJla76SQPtmWFkVlxf+U9tfjPVpc/Su3afPp/CQqWr3075RXy9VwbURgPjzL+2cqYZVsJ/SutbxP6Vtl26eQA+/O/ktVvpQIQtM6Hi1Z4dxz8ZsOjg2T8lDkXkfYo9yUzrPPf2nmx/+MPEj2O/+Es7P0iqVQve2JqjHN8MiNOOvNw2wGdLi4Vu2/7xAHzPvb07lWNfNK2Hk7fAJ+Bm8ZzXkT+3qXQj3r4/fNtewXx8Ir7eK79FAyX8Z2LARwxucykPE1ZLAAI7e8TPIXp3+og6EXMlnbISAwD/5aUl0DEsXpnAkiPupFH5pbxRiL1kQJrlBSAjzbNHBNOx+moDOICPk6/G4IkNm5fbRk1hPJziBRKBLZtvGZ/uK9+KDkOyT87+EQzMwRfjF/sFh5WvPwH4PFtdUh1oq7L7yvd9MUkraIdN9p79NK1W1U8dpszNew8lAMgeIzDvgI5Nzl12s5pjXN/XB8MaZ/6tBm0M4z+j1L+o/evrA9CEZ1EhWkgCR95Xg7/mbVMf8yfagy/5Z1DzSgOM4qHNRTOeSCDgP+EABSGDi5UIp33jnSkv0r8Pzl1KfDzqxas2N7briGsDfMItcp/a9KidQoAPX/VvAPYANMBQOMEG6SAA2DWmwwBftNVeQ9ug6mG49cEv47uX3kv4z8SAj3gbkWMUQIA7MJFvLjVJz/1wCksaACbf/DosPtSXym1eIWGa5oA0ywpAFnWbtE7qtlk81+9IR8WZlwUQO+Ua8cYMKCop3x6UGFsHKDBDADCvo6t8baAS8VOL9lCJWKkqA6DrK9/K2TfTdn0AWOXPzRS8dfh4YtDSYMxONS+im7kYg3pffaZZwpDm8V2G8Z9R2rOo/evrg602wZfyO3NTfXnz+HH6T+uzJAF7mBb22mJLkAW+xTOpGO0GKRee+ZeWQ3Ftmp+mSjdvZ8nzO8dOpT2BJWmlsb8P4NvywYdJdcy2oPAAfJ6BTyC2TdIH8IkbZuuPSTP/gbb+lrazplt9vrdaY14y/1YAPnshmmrKksZaeVhdUQ+awG0ESRRt5YZo89OeUX5ffKSb5D5O/wKQkW5NY2VlQmtHiOZLy1e3/XJ9/W+W35c+4vvKB7zjlHG0mV3CyO9uBe0bo4c8vD6vXSYzyrcdZ/6NUv4kaafBfxa5f5OMTWnecfpv4c8cSs5f8TBaHZoFe49phAAo20osNNv20DXbOA7g818CuhzwAHwt7Jvldr0DpaSR9lrHVhtpc8DnXR+cvm2Wg7daVOuf/X5tF7BHm9bMW98rf0UDJfNvBeCrhPMo4QS4yQ9tTHOcZl3+pG0F0KmErUBJFql67LnBkJrqlUnrqvkfpb86JnVM1iMNsPbQ1m+qUerbtrg8jACiTfWap2l7BsZ+/edtK9S+belKwxisbx4y6coL6Npf2HVZTHflreGVT5TQQAV8PxxE6BosIIeKkvSyK80k4bMuf5K2yWvVYL8idYVVL7UK9YX9jJOWXfNXJlVpoNJApYFKA5UGVocGKuDrAXyVEJcIkcqL2mGYlfs6Vqszaes413GuNFBpoNJApYFRaaACvgr4qqSu0kClgUoDlQYqDVQaWOM0UAHfGv/Ao64Aavq6aqw0UGmg0kClgUoDa48GKuCrgK+u6ioNVBqoNFBpoNJApYE1TgMrAJ9j5W02gkqQvhObTLowAtxlloP9NvFdp6yGxZeU39fOcfrHkPDLf/1g+eo6rGCPmyP3o9qek0/5XQY5+/rUF1/a/r5yavzaW+2t9jcdZ/6tZhuH8Z+Sdix6/0r6MEmaSfrvJCtjx836mfl64+CxQdep3Wb6eGfY/tntf32kvIhv3hlLDleVzbi+d/8zJ3sjnf8f+6ZtV90DXflo0Mm07yXzbwXgKzHc19ZIPnGd4GQ7yf3qw+9W2PP7x9+9mPzmRhqnXnmZiLL64vvKj3L67uP0DyMKP7Tav6XFKrt6GWLWL27P+tqRx2MAyuXTMw9vPjMz8KfdB4amaebxXtr+trw1rDKnadLAOPNvmvV3ldXHf7ryNcMXtX/Ndra984rEdy1eZFHelqYvbJL+7z178RF/tmx/fvbVw2QhgF29vvrz+FHt8DEcz0VllKEvvAs1rzZTVE+/8U6yoRc8fOvBo+lf6H8Y/8R4Zpcv6qj3yl+nSQMl828qgI9LLZItqzASQoYrj35xfZmw+TkEhoAWk5jrNUYm//mFTSlNX3xf+aWDVjIgw8rShy7AJx+mWWIUNK+jFPDxKmJc87yjPve1f9TyavrKsEahgUnn3yh1jZK2j/+UlrWo/etrP6CCN4Q3HX5r+/K0xY/bf/8E5p5yO3P4Ig9BbIACWcxCdblqZOi/ee36+OzA1QxvStgYfuYGTf2MLnt2sYXnXxYXryNcWjIu39Z32i35LcoBvnd/MJCcG15mPJrHkLb8Nazy0klpoGT+TQXwNRu669T5ZRcwvENY3eQrGw6xrSTfOHA0eY8YFt8s23teflt8V1jJgHTlFT4LwFQBX53ow2huLcVNOv9mMRZ9/GmUOhexfyXt5+ObrU3G1fHl1QZ8gBBvGhbLJ6/dHPB7u+QL915Si+oD4MULxe5T51d4aqI2lTa/AC/9cN347m8r4qTLPT3xMMTGKi8WJHWEEvz25sCQC0m8v8+QMz/lygP4uODkHu7zB98MLn/18IfnhxXwrfE9ciXzbVZpSvjP1AEf1SZiN7F0bMOOvWni/X77zvTOc4OJCORRIfTFNwenWX4zfth7yYAMy98F+Kz+ME3Xxt0HW1dwLK5zi8N/7cW7DwZ84tq7lwO+59/dk1TfmBSfkfb3Wf3aW7TzxJnEvDzHlTMuNvIwTXldx67ceGRPTFf79ZmFea6EtO3i3a9S+8LfMckt90dW2RjjpXtfJ/+XMVZ98ZGu3tc3uJ10/s2CfkblP8PasIj9G9beiAutBKCz2oDPnmj/gq2HjiVQ9PH1W4Ozt++mbTSvHTg6MKZxUdNeuv9g6NYW/DLA1oeXrqRnKvvoa9ud4OHQp18kiWD4wJWO54tdp84lF28kgLQsTQmffYLqcb28a2lbTpXwrW8+10ZjqxFWwn+mBvhMmv3nL6dVmH0Xv3pla5pkJi0m8sSLm9NhDWJxk8tl9dMXHwPVVX7El9xLBmRYOV2A6ZXdBxLQs7Lc3uLcm6pX3Pk799PGYGJ/ZWEgAfiARWGYGgmmMfvttvcSc/PcdonXXlIK5QNifDrySwkgvrp3Jfjsar8Ny+ISCN21PzFY9cUmZitcTJlq/emt76ZytT3Gqi8+0tX7+maEk86/WdBPKf8pqXsR+1fS7kgzD8BnkXv9m+8HZ2/fWwab+BkpI48++XX40pW0AM6lb9H2uFOlumIPH80S1W7EN+8AHICIl0oH8Flob/ngwwT0qPt5QzI2CUh+fm3wT797ebk8EkE0RDKJ5yof4AMQ7WXHV/PnqtJd3zywSX/TfC/hP1MDfKRLJHaAhyskXSafvSEmkYlALG9Cm5AmQ198DEhX+RFfci8ZkGHldAGmyPP5AyL7j5eZQYQDUte//X6FKsF7DvhIzuwDkQcTArCc+rUHxQpcufJ4jitWmzYbG1dSvqiz7d7VfhuTrZzVJZ9vlQM+5WNaXSeJ++Lb2lLD1h/jm3T+zYJmSvlPSd2L2L+SdkeaeQA+vEb9wBYeH20Z505aeOv7/057/gLw4ZU0Hl0HUfBMvI6QAo+TllDig3OXBn/csXdFe+wlpDkxTs32AZYB+Kh17Ud0UUHv+eTC8nvboY9mWfV9/fHGaXzzEv4zNcAXDabes9HWJAJgiOqBmV++tCUBv5AaWbld/ea73vgoN+7N8iO85F4yIMPK6QJMkacN8NljAryZ+JHOvQn4tjVOb2FcpJqRBzjsOrRhk7HxjLRd97b2//z5jelb5Xssm4DPKhag1A8rXur5YNTq6ovvak8NX1+MbdL5Nwt66eNPo9S5iP0bpf3zAHza9+TGrUlIwKwEYGZP3VuHT3ReNCbNfpHCXbh7P+URF4DPMw0M3pkfCsnz42dUsw4akiJ6dkUZ+X1zh5WGAHwAJDVwXOfu2MLz1fK7cHv98vrr8/rig7P63iX8Z+qAT2eAO4DPJHACzDMwdPrmneU9EFe+/jbtV+uLbxucvPy2+K6wkgHpyiu8DTDl6dsAn83G+p/bmGK3CYDKJXxxpD/Ks9JkfyrehwE+9R6/cnM5beRp3tvaj9lp33/+IF2Uxz4YYQHOhdkHQ3VBDS/u5LVbyxLBkvhmW+r7+mNyk86/WdDMOPynqx2L2L+utraFzwPwkXjZimIB7J/gTju0//xnSWNkkem0rve4mJrK2/+LFzYn8ykkhKH1CJAW6d4+eipJ72KrUYTn91DpKuOFd99PIM1CHb9zqAVYo+rN88RzAD79oY1x6Q+poctzhFfAt/54X9DJLO8l/GcmgM/+C5Pk9YNHkxrQMykfI5o6zBiwMJOQmnBYfNsA5eW3xXeFlQxIV17hbYApT98G+J7a/GbqH/VspN19eomJjAL4Nu07nMYw1K5RljuVKsbYpy5oa7/VtPG3909ZJHdsCQrbtPfQcpujPswQ0xPPuGmEx70vPtLV+/pjepPOv1nQzDj8p6sdi9i/rra2hc8D8P3suVfT4tE+YKZQcs3BjuOfDFh00FY8Pw5F5G0ntbNXjubhubf3ZPvDHyYhQ+wXf2nnB0m1SnOinijDwTc8GsAjkFCWxXjYPMVv8bowIRb5mvcAfM+9vTuVbV+0PX87T55JkkILZYv/Zr76vv744Ky+eQn/mRjwUVk6fbpkh++FNHnY2QMuQvR+/MqNJLLHXEmPrMQAwH95aUk0Pyy+pPzSASwZkGFl6RMmhEG0rn4J9gAAIABJREFUedwA+Pad+zTFP7Fhc5rc2o/J2CfnMMXes5+m1Z7+UyfFoY0+CR/1eIAwwI5kjhkF7aUG0TYHP6RzihcYy41bS9fWfqoQeyydHnYqF4O0h0X7rEjl++izq4Pn39kzwJyB9df2H0ltCalgX/ywMa1x64fhTTr/ZkUrw/jPKHUuav/6+gA04Wkbdryf5jVw5L1rz25XeZP2X30WttqDL9kLTs2rPmAU/2ouavGso59fTwcCbS0hZHCxEuG0b7wz9WIxam9ezrvxUYtle5iBPVtjlBML6+DPJYCPFQPSPGDPNht7AAFBgg38EwAcdUy7xrqGrx++WfqtS+bfxIDPplhEDowACe6Aj9Oc0VCT9NwPp7CkATDC5Ic0w+JLyo96+u4lAzKsDAxH/1z2ZTTT6nfEO7Ec8VaeYdTUSV2AzCrSqjYYCiYb6d2pNvI9fJgVNQXmpA7l5SAR4FZ21O+bbMmkisrsar89LvHtHDDBbAHA6AMJImYVZWsDEy7R3r74SFfv65tJTTr/ZkU/w/jPKHUuav/6+kCyFXM7vzM31Zc3jx+n/7Q++Breia9oiy07bNhZPJOK0T443YqnMVeV1+k5wFke3lTp5nH5Mzdo4eozVLr+OVS/Lrb3jInFc4Q5lJGX4RlQBPhoP2zHCfMuAfikAT6B2CrpW998sEk703ovmX8rAJ+9EHFSdJRGmDRWRdSDJnDbBCSqt3Jjhy+3Hxf1DIsvKT/KGXYft3/DyiyNI9mMU7QkZZjIH99bUqOWliEdiaFxVF5bPraj9DNXjbSla4ZhYk5PN8Pzdz/GoXX3xOdl1ef1x/TmOf/66G0Y/+nLG/GL3L9o4yzv4/Tfwp+NT9qPAFJ4GPBHM8KtJY0QAGVbjIUyQNbXj1LAl5cTgI+wwoK76yKty/N5BkpJI2k98q0wOeCTTh/YPG3mr+/rjx9O+5uXzL8VgG/aDajlsRC/PZ1apn4lOaMqceDBJl4Aqo5RneiVBioNVBpYSQOsMbSNCbAVErm2+AgjgOjzjBFp4+608LRVrgzuNw+ZRH31vvKb1/GY/XhUwDdjVy9QtxNexP2ketQSxP/5PpJK6LMn9DrGdYwrDVQaqDRQaWA900AFfDMGfEFcVEZUusOsxEfaeq9MqdJApYFKA5UGKg1UGpgmDVTAt0qAb5ofrZZVmUClgUoDlQYqDVQaqDQwCg1UwFcBX+temVGIqKatTKfSQKWBSgOVBioNLDYNVMBXAV8FfJUGKg1UGqg0UGmg0sAap4EVgM+x8nFtBDlxyqQLI8DMqIyD9Nmnk7/rFFZffF+dk/Svr+y1Hm8PIpMC7P0tWl/RHZNAi9au2p6Vq91Fn3+Vv6z8XqPS77jf10nW3IxU2OYbdb+zf1fTnqn/EscA7Jh29YeZFxYUtOHVvQcHzRPCzIg5ZMe/7oYde1vLcRI3d58ZdekLF5nNMiO+685wvvq64mv4ZLS6FsevZP6tAHwlhvvaBurMrS/TCdQwCsxiedOeH68bH1+7ldIBdXk5/LTmZTAQnHuJ6IvPyxr2PG7/hpUZccwAhDueCFvNu/HKjaby+1haPy8gkdcp4ot3Hyy7WosyfvL0C8lwM7drEVZ6Z4JG+YxFX/3mu+QRZJrmDw5cvFzkS7i0vTXdbJjpLOffJN/sceAvk/SvJO8w/lySX5pxvi97ovgD12hhW9TztW+/T4bpGadvXm12XNXP+gEj8Hl7w+/6MPDI45F8YQT/589vTP+vY1/cSAbn47/GPdrhS1da7QDuPXsx+drN69afz756mCw0sAuYx/U9l9oRPPrF9eQhJAfMyuYqDs994sXNaXyDv+f3Z35wjlDC//vaW+NnwzNHGdeS+TcVwLdl/4c/uFbbkCSEJitCjMbyCAHEhbcJfhEjzt0EFw80mSRcs0kb7mz64vOyhj2XDMiw/MPi+MXV72FpZhn3T797OblaY++PcdKRAN9XD9OYk5JZIfO2gTE0V5h+CiVGT5v9tADAPLk34hidJfoLXz7qqaSZr/S9Ar75M5uSbzXL+VdSf1eax4G/dLV9GuF9/Lm0jnG/L+karx5AFykZ3r/r1PkBQ8jNCxBqA3xAWvLUceNO4n343xZu2n7w1T4q4OO3lxACcPK/CjDaNhbiLJQZpY949R24cDnZYCVlZJbrhR3vL8dHOneOCppX9LsZ3uwHV3R4NXdueZnqvnTv6xRG8um/wG0mj0qeXWHo+nIh/8/Lr8+Lx3NL5t9UAF/z45usCCs8bvDxyhYdIkOcOeDj3cFEZZE8yuEwWzquxfriI0/JvWRASsppSzNvwJe3CaAaFfDxMRllsHTv+/lmETbJHeALJ+jKoWLxfdsY9zj1VMC3eMyn7TvOcv611VcS9rjwl5K+jJtmGH8epcxxvy/A518BmFj4c1uJR7RdhAJtbXrr8IkB4AKgufj3BnBKAR83koAZvkQNC/DtP/9Za13N+nkB4Q3EYvjktZtpYbvky/de8owkvb5ZiO8+dX4F3+M5Sdr84n5NO1x4eR7nOeebfLZL5/8T7bKlSl3c0UWY+7vHTqfxzcM8G7dZ8v9mffV9Nvy6ZP5NHfBR/fG7ijDjw4ZUiANsxJkDPnsihHFiLT3PFN6BQCrgvvioo+ReMiBd5fx2287kpBtDOnv73vJeR6s7e392njiTJqfnuExM+96OX7m5YpKqg8obo7V/xR1D4GqNz2ETPvejK31X/W3tzQGfVVxf+c0Jr0yOx42/Z6tvZbhI6NrqZGMQ01O369iVG8t7WpqADyPCkEINgWYwI3RjpWy8jEvU0xffBHzUGMrgi7O5Io4y6302TGfYuE4y/4aVO0ncovCXSfowad5h/HmUssf5viRTJHoAln12v/7ztqSCpGmw943PbrzRReKW+w+PtvlnWKDGP0S4tKRfAfia2orI606l658TF5du2qNdeHF+8fWb57W3z79KGfz/fnz9VuKdXMK9duBoUnMbFxfp5KX7D4Zu/fE/wQeV9eGlK+nZloO8zubzhbv30z8pwu2z1hdjFmHupYBP2pz/52XU59Xnm6VjXjL/pgb4ABSrJD9y+xY4mm42tA3wmRSI00/aYY1P7z1IKzOrM3sm+uKbdQx7LxmQtvwkkxgKYPH8u3vSpAZMgCn79oJRNO+/3fZecqsjfPO+wyvGw2SmOg2/ulSeysTgYj9jHEQYVn9be3PAV1J+E/DpF2Zn1az8V3YfSEAP49ve4ryclEQcFQKfkvxiAsA2QMufAz6MF2i2Lyfabl+g+jBEddlTIg0vJdL0xeeAj1pFfaQEJAdRR73Pn1GNO/9m+e0Wgb/Msn+jlN3Gn0fJP+73DZ4AZKnP3Ce5wj/xRN9IuEVkUy1KlXv9m+/T3joLbeksPvFci8YAfMoEANv6QzpGmgf4xqUtFo3q90xIQWsiLC/D/0D9hADqlA4/dLenML/s/wPohi1CgTJX7OGj+aLezetsPkujbrxe3I7jnyR+3DyoUgr4mvy/WV99nz8vbfsGJfNvaoCPdIdEKFZDbZKgNoaCCP3sSXu2HjyaAKMJg+BN0r74to53hZUMSFve81/eTwcZQiIVTATYo4rAJAAhzraDYbjHhKNecFiBpEr5TtNYFWJeAciMwZOblkCyvYsmMNAk/bD629rbBviGlQ/wAdgYplXy+Tv3E2jCdPPyP3/wsBXw2XsD6GO0efp4BsD0B2h2t0qOsbHCFxbgUh5MXBgG2xcvfQA+9OUbnLtzf0AtHfXX+2IwqHHn3yy/3yLwl1n2b5Sy2/jzKPkn+b782NJ6kOyZ+5v2Hhr8ccfe9B8AmjwTJPgv5L5pN+x4P/FHefG4Lfs/Snv38ED8Oni1eJI7YCh4T/TtnWOnBntOrzzsgbcDgeoOdakFOkle5HOPfwJQ5h+Yx436TFqojVTLAfj8R/SledAxLxu4NGYBmPFp2o08jedhgK+E/zfLq++LwVfjO5TMv6kBvqjU8XM/YARokkW4extDMYEAARPThN24+0DKY6IBSX3xefl9zyUD0izDhAPOiNkBt7j0L993OGwPn8kqvfqV/9bh4wmYkGgG4LPBOK8bcI5VZ0n9ed42wNdVvnwAn/a5nJizEm0Db12A77P7XyfGmLchfwb4fE+mBqi4MbUTV28m8z0v/3WJwTfVDyR0Syqc4fHqQW+AnjFzGKRPBZK3rT6vHtMaZ/7N+vvMm7/Mun+jlN/Gn0fJP+n3JSSwpQW/Izyw0LU1yLOLAID6sml6Jea7Q2EOzsnvIKG2B+AjVfv3zW+lhWnTmsKeTy4s8z88kGbl9YNHE+giXWS1gLZBXPOfpg5gFe+xkMfr5beA7bocfmuOK22EvsXCNwCfdLQe+pUfCsnzA7CkjEcuX01ptPO5t3c/UscwwCePaxj/z+usz6vHN0vHumT+TR3waVxMshwQCW9jKPZkIDRgIpf8ILzYszEsvnQwpCsZkGZ5pI3qp66mrswvK6tIPwzwSXP8yo00mWzSdWIrxiYAnz16URaGoM7X9h9J6oGS+iOvO0CFYXjuK18agM9JRaL8vJzmcxfgE95UdeR5c5WucAxRn6iqAXzP+Z49adAC8NYXLy3AZ8+MS9/bthPk7anP82FW48y/WX+rPv4zSv2L2L9R2t/Gn0fJP0n/ATQSfaZCbOtRL82BBXbYsLPVo7kwbLZv20cn09aSsAUb/6JQoz61+c3lgxSRl3RrSXL4evoP4U+0K0AfrQcAafGNz0U5kZc0zlYWC07/LHfAVXogVV4nZr3HlUsolQNM6hsJYUgfc8AnzdtHTyVJXxdvI6EkMCFMIEAhqIg2xn0Y4Cvh/1FOvc+Hf/aNe8n8mwngCxGzCZM3so2hsMfmh49InY6S/qd/eCWFIfK++Lz8vueSAWkrw0TvO7Fqf4g+xMnkZjlWhvpJsoUJhAStDZCRgkkbq8mS+qM+UkPlOzkmrKT85h6+KKt51462PXwYszoxv2Ye703A9/QPp7WpaWJctnywtCKX3opdeUB2X7z0odJVP2mj1W7s52lrTw2bD8Mad/7N8nstAn+ZZf9GKbuNP4+Sf9zvC0TRoNgPh4/SMKjXApSEL3gOMKWNXW0i4cM33CNNE/BFeH530MLJXmHAJsAHBFrcC7PfGj9uSgbF4a8nr91Ke5JtyQkVrzjq47BO4J8YKldxccWeY4Drubf3ZPvXHyaAqR0uUk2SSAva2PoTZbjTnmgj0Ee4kMfF8zDAl5/SjfT1/uN3ehzGomT+TQz4SKwcn3cyCNiwgmJHj/g9RNeIWrj9FogS8XoP47sIlEjcu02tVjrA07+8tCT67osv/RglA9JW1ua9h1K7rUKBUQdM7BXJNxAHMLH3BPCwF44EKy/PKVf9D4YmLgAZaZ49HJiCjcI5wBxWv8kPIBo7q0Mn29QRRjVLyh8F8Nkb4tvl+/uoMXxv/TMOwBYGFMazk0r38tWkUsHQMVV9pMbAIJ0Iszp2SlnZmJ8+UMH0xRvDAHyef7FhU5KgAqf10MZiMaxx518+h2bxPG/+Mos+jVJmH38uLWvc70v9SGVJKmcvHH7hgIYL4CPt9wzM2UeHRzTbZBEJDMW+54jvA3z2VeNdsUcOb8K38CO8zP/IIh0/chgtym2748H4m/HEe0LNKy2gqp7movjZ7buS9Qf/TiZnCElc+o0vxjsQi78DZv4Tzfr9h4E97dSGPF7dxswCWhrPLn2TrpT/52XW58Xirb5HyfybGPARHft5IzQgzd3P9ukfrHhriAkrvHkx9yHeJLB3I8pAlCZCEFVffKTru5cMSFcZROUmsDaauE7V5m7GTEZieExJGn1omhCwihSX5wtAJtxlpeukbhzwiPZ01f+fr21fbpfxV3+oi+UtKZ86IQeYUWfz7rtGOzGPPF6fHPaIeDQBFEuDgefhmFkwWPGknWgh0mDcVvtRfl88lUm+qqUycYjEHiCMMMqp9/kyqUnm3yy/3SLwl1n2r6/sPv7clz/ix/2+QFzsXQNELBabF+CDPwBdFt1RJ75Lm4H3WRhHeNz7AB++hVeFbTuAD/+0DxqAs5eYyjYOFOb/JXXQSuH7eGMCpDfvpC1NzKpYHFNBkxQyRaWev7RYOWjTCjVVutGfYXd7+IxRvhiXPue/wWPdQxJayv+H1V3j5stbjX/J/FsB+OwlsKoZ9eNZmVmdEIWbAG0E3FcmSY6VEZtKMfnyPH3xedqu53H7F+VhLtoY+0MiPL8DGNLE6imPI5rHXPOwAGQYWd8euq76jQ3m5Ns1926MUn7ernGfnY41zto0ahnykg7qZ1vevvi2PDVs/owovsGk8y/KmcV9EfjLLPq1mmWO833xLWANn2q21Xy3mKPxsU2j7eSpNKGGbeb33gf4SBf3nv3xRKuyLOZJGp0KtocweDn+atEf6l/lA4D2z+X8W5uAPwtX+4q1HyhNB9b+9n8f4dFt7R4H8LWVU8MWh//N+luUzL8VgG/WDVqP5Tu5xcyIfSiYQHPTcQCy/NDGNMdp1uVPs621rPXDnOq3rt86aCCX2EVY3IErYMqhrq6F4LDFpQU449p9aaI+W2FIfKlkmYRq5iM9K9EaxEGTKDfuz7+zJ219iveuOwHKU5t+PBTYla6G13k0Cg1UwJdtoB1l4ErTsqxOfE5tYbI382EsVMSko824abzPuvxptLGWUZlWpYFKA5UGKg1UGpgtDVTAN2PAx6yLqxLybAm5jm8d30oDlQYqDVQaqDTQTQMV8M0Y8FXi6ya+OjZ1bCoNVBqoNFBpoNLA6tBABXwV8FXpY6WBSgOVBioNVBqoNLDGaaACvjX+gevKaXVWTnWc6zhXGqg0UGmg0sAi08AKwOdEafMU6TQbz+QG+2uMTLaV2xfflmeUsGn277fb3us1xBltc9Kr78SVMTH2w8zisOc0zvdhRmZYudHOUe5OzzGkPUqemnZ9M8Npzr9Z0NKk/GfR+zeLMcvLnGb/K3+t/DWnrfrc/+8omX8rAF+J4b6+gee+xanUcJMmPVdZ/OIKZ5rEqdTwwlASLw2vHXwTKiM32tvXnjx+Gv2L8ngX2X36fBHg4f9Qn1/de3A5/esHjiTXOyynMzrMUDPr7l0ubpgCYNeJJw72qJTXdoUj8WinO7c+qf73l+pXh7K6rtwwdF6OZ+CR3SmGjV38X3aZS2jmre/9k3Ytj9E05980x6mPP5XWtaj9K2l/5a+Vv5bQSU2zuDy8hP9MFfCRPgF0S4DvjWVww1UWwMG20JKrmlsJ4PzzC5tSmr54HivkB4qUDcCMQ3glA9JWLpCzed/hFdfJazeT+5tmeJdRZiCVL0htIPHTD9bXX9l9IBmb7jO6LB+jn8aPIU/W4DHpuEgQldlVjvpZjwc6STLYmIqLhwyePOI9DI02x8IKgt9JVuUZl2Yb6+o33w1YlWf+pZm+vi8uc5jHtxl3/s26rX38p7T+Re1fX/srf13yUlD5a+VXfXNlkeNL+M/UAB9Dk2zOhfsxYMDgMEkCBObuvjiUBk7eOHC0N14ZfLRy/cU37TwAHwCk3q2Hjg227DucLtJGLsLiXZw0XWBJPwBcgCwAHwOfJQTEewbpn/GSHuDb8sGHK/KSUqi/C/DJx2homIjRBpdw4xuOwtvaw6cxqR6L+CzAM+bMG4qLdW9OvYFxEk+W7dvKqGGVmZYwpNWmkz7+NEp7FrF/Je2v/LXy1xI6qWkWm4eX8J+pAT4qTiq+8BcbgI+Vc0Dk99t3JiDAdZp3IBBo6otHZOEujBNoeVdbwheAj8ucIPqmSlectjUBH5+QH166ki7gUP4AfCR+nIY3L2MU9bgDeMoOUMZFG4kniV1c1LPSNAGfvTBR/2s/AEZlchlEPex5GODTFt9KG8KItHqaFwfcBy5eTmnH2WeY97c+LzZjGff7lDCkccseN18J/yktexH7V9L2yl8rfy2hk5pmsflyCf+ZCuCjLgQKXtr5QTpUAAwE4AMyvD/x4uZ0WIOvQoDF9fmDbwZ98TmRzRvwnb19N4EjAIkqk39Hz66zt++lfjYBH3Cqj0c+v7bsszEAHz+MDlOQ1gFunl35PjwgD5AGDgPw/fLl15fTygdIRt5/+M3zK8Div29eqp/aypjHeFLD5oCP78hwWJ4fqtFWexDlUzaVtWvH8U/S/r14j318VL1RR70vNoNY7e9TwpBWu02j8J++ti1i//ranMdX/rov8a7KXyvfyufF4/Jcwn8mBnw/efqFwcW7DwZHv7ieJFekOzngc4iDug9w2HrwaAIv1ChUg6RUffH5YM+bIdnrwtm26+jn1wcnrt5cfhen303AF+3nODucdAfgoxq1ujZmVx9+1wqUXj94NDnoDikcAEe1HVcCfPs/XH4XHiv2qNt94+4DQwGf+i/cvZ+utvx5WZ5JOH3DZnh9r8yyiwZKGFJX3lmFj8J/+tqwiP3ra3MeX/nrvkHlr5V/5XPicXou4T8TA75tH51MQOe323amk7mkUIDPksPr1wdvHj6R9n7Z2wX4AR4GkcSLlMzeN3vDuuLzAZ83QxpHpRvtzwEfZ+EkokDi7b/9PR166AJ8IW0LwAdYhxrXOMeVq3jbTtn2Ab6QHkZ787vDJVFP353kL89bnysDDRooYUiRdrXuo/CfvjYtYv/62pzHV/66LwkuKn+tPCufF4/Lcwn/mRjwHb9yYygYeOPg0mEGJztP37yzbMLDIQSmWkIy1hWfD/a8GZLDJjtPnknXudv3BtTT8e7AAjBUIuF7avOb6RCGvj39xjtpXIBhKlbSv7zP8RyAL94BtONXbibQzEwLaWNXXnkmAXwOl/zrS1sSKHd3qZN5l3in1vdcehAl+lHv64e5ljCk1aaHUfhPX9sWsX99bc7jK39dUukak8pf1w9fyufA4/xcwn8mBnz/8JsXBtS6cZEuAT7MhAgDAryT4oVtPhIuYW8fPdUbn3+AeTMkJ1UD4F348qukyo53cSWAb8v+j5KKlnmT6BuVLsBnZXnsyo0B8ycRF/cc8P38+Y3pNLS9JiSD9u8B05t+OBQSefJ7AD7fh1mW5h6+YRI+5chDIsseoPdcpQvkklQ+uXFpr19eb32ujDNooIQhRdrVuvfxp1HasYj9G6X9lb8uAb7KXyvPGmXeLEraEv4zMeBrdra5h088KSBzLZgrcODEJwDI3EdJvIMApGI8OwBVDod4V16z/mHvJQPSlt/BBPvVAuxI0zyly0QJY8oAcFsZVLoB6kjHdp/60Whz7OEjHXO4Qt+aZQTg+/nzrw4u3fs61S8NwPefr21PYAvo+uOOvY/klQ7gk5bql1RxVMCnjPNf3l8+6JEDvo27D6a9f8MkjM3+1Pf1x1THnX+zppU+/lRa/6L2r6/9lb/+aKmg8tf1x5f65sfjEl/Cf2YA+LYlUBbSPIMFyFCBhqQP8HFCNQayL570St7mxUNFlFFyLxmQknKkaQK+vnxOyDJdQgrm1C2QF3kC8MV72x3gc5qXKnz/+c+WVeMB+ORxyhaQDhM4eTk8YgB7f3zPxuRt6WSxPngG5LYf+Tg9ew+D2JGfqRf7FwFap5E9K4/9Pc+kneI8uyrwq0wzaCe/T3P+5eVO+tzHf0rLX9T+9bW/8tclwFf5a+VbfXNlkeNL+M8KwMeILvXgLDoFBFhJsutGGtasoy++mX6c92n2b1TA93/e3DGgyv71n7claVje/lLAR+1KmpabXskBnzKff2fPI7b4Ipzk8BcbNiUTL8y8dF1vfXhi+fuQajaBdt97ySnfvP/1eX0w2mnOv2nTzDT4zyL3b9rj1VbeNPtf+eujAo7gu5W/rg9+2TbHhoWVzL8VgG9YYTVuJZHZ7/KrV350HzfK+DDHkqfnlowB2Dys+Uwiyo1aM/y5t/ckqVozfJrvsT+z9D7NumtZK+mujkcdj/VAA5W//rgvvsl318P3r32cDZ+rgO/XsxnYSrB1XCsNVBqoNFBpoNJApYFFoYEK+Crge0RquCjEWdtRGWWlgUoDlQYqDVQamA4NVMBXAV8FfJUGKg1UGqg0UGmg0sAap4EK+Nb4B64ro+msjOo41nGsNFBpoNJApYHHmQYq4KuAr67qKg1UGqg0UGmg0kClgTVOAysAHw8PuX24aSNZ3hrYeQv/sM3yh8UzD/Lkpq3JbAxL6M28Je+z7l9XG9Ipq2c2DH6yfC0ZZ2Ymhf26rnyrFT5p+5h6yU3tMK7NAwkzNOP24YV330+GtkvyP9L+p5fG97/eeGegnJIy8jS+EzuDzAjl4fV5stX9vObfan23td6/vnGcV/8fmf/PVP7a960qf52Ml/WN7zziS+bfCsBXYrivryPvHjud7Lblhpf/8XcvJr+57Ajd+/v/JAPAv922Y/ln2hfPKwVjzYwKy68cYaMa+B23f0e/uJ7qVn/fJW1zjG59/98rbNld++b7lAao+ODcp4+kb+bve593+3hO4UmFq7z/9ZvnBts+Opn6y93crlPnV1y/3bZzaH95NZGPcWqXMVLmsDFoji/6ADr5cWYcOvKygXj08+u95Un/4aUrybtK5K33yRnkuPNvNcaeyaOPr91KdGtROk6di9y/vv7Ms//z5l99YzPv9lX+Ojnv6fvGayG+hP9MFfCRDgYg+7c//WijjrswXh7+Y8u29CM+cfVWAnDh0aEvHpBgEJrbMp4cDl+6khhzXkfJBysZkLZyuF7avPdQ8hjCKn9+bdp7KHmmECaNtM0yAJJfvrQl+cgFhK9/833qC+DHyj23bfk1KpBdhPb59sbi5V37B/rLZzDvHejBuP9p94EU/vy7ex4ZnxgvKxQ+hj9/8DBJ13xf/nu5gWOrMNI17+ozrgxPAnptgI/tQ+P92v52iSqa5AklLmATuI/3uM9SAt7s11p7H3f+zXocXv7r/sSfLCrRzn9seauT1oa1ZVH7N6zN4ubd/0XgX8PGaBHaV/lrBX3DaFRcCf+ZGuCjBrt0/0GS9GDvaRjnAAAgAElEQVSaAcZ+9tzG9NP/y0cnl5no+2cuJsb6xoGjg774tk4+s3VHys8nbFt8V1jJgLTlNeG5JAPE8ovkSV8BV+HSSNssAyABRgAId4DvzcPHB5fvP0x55HMBScrrk2g1y1+E9lHHk6bx5QvcogdSMn1+ZfeBNEYkKMKb7edTmVRPWsAXOKMidhkv5foZ7z59PpXdzB/jK014BgkJH1oDMnkVIX1u5o33zx98k8DqksFXRrUfva59+/3g6a3vdpYRZdV7O3Med/7Nejy5LSRptwVgPQK+efd/EfjXMBpbhPZV/trOU4Z9t/UWV8Jfpwb4uMIhFbE3IAd8PEh4D/+uXKt5J/kBAPri2z4aNR+JYb5vrC1dM6xkQJp5vMeEP3zpi9R27W9ewG4p4JMXOCG1BIT511UPcCNuHAmfuufRPm7e7EO8/be/J1+/wNuW/R8OuHw79sWNJKk7e/tukmRu2nc4uXbLxxg9oAVqC2PYHNd4J2E7cPFyStuUsg0DfPvOfZqkhs+9/aPv5rz+eAb4+twK8mNcAd/4jHfc+RffaFb3cFUF5KO39Sbhm3f/K3/t5v+Vv47Pb2bFLxa13BL+OhXAZ8+Ln/ZLOz9Ihz4wzZDwvXbgaGKiT7y4OR3W+PTeg8GhT79Il59sX3xzcAMgkiQ14/reSwakrYxgSKRH//Tsy+kiNSLx0ddfvbJ1YB9iKeAj4QMulAf4GRv1PrFhCfC1tWFY2DzbZ8O0fXH/9frbCah+8fW3g09ufrnCVRxgTqUrXH/jB6NPwK3x84y52cPn2nH8k7R/L95D6tl2kKIN8FEBbz9yKgHJXAXvOcrKxxQtkjICq12XeirgG58Bjzv/8u80y+f1CvhiTOfV/3nyr+j7sPs821f56/j8Ztg3XYtxJfx1YsCHIC/efTCwsdXPm/QlB3zUaH7y4rYePJqkgNS4VHekdH3x+Yf5P2/uSGo/hwLy8NLnkgFpKysmfMQBaDe++9sgpJX2nokbBfBJ/4e3d6XDLJv3HR78/PlXB6RjgHPUU3pfhPYB4O+fuZCAvHvbpb8AV0m/SIzRSEnaNsAXh4fQYvMCTpvlAuFnbt1NdIyWu65x/Sc361uP7+POv9Uaq3kBntXqX1898+r/IvCvYWOzCO2r/LUCv2E0Kq6Ev04M+OJEptOXNs6/uHNf+sFSoXl/8/CJBNLs6wL8Nu4+kH62Rz6/ljbkbz10bGh8dPI/X9u+DBAjbNR7yYC0lZlPeAdPSIPeOnwi9QOYKAF8wJz+xx4+9djj9uregwkc/Xn/R0n9CQQ322C/n/1t+QWgRLp5t087gDMHUIyLi3SNujrez9+5n07xRpvzu7RNUNb1TvKX5/UM8P3rD2CZNFFeiwqHffafv5xUdMbV2JP8Nc0CRR4nFZtl1/fpMdpx599qfYN5AZ7V6l9fPfPq/7z5V+WvPy6KK3+dHr/rm2/Tji/hrxMDPpO16+csnGkMdycvAYJQp9kPdebWl+mE2LB4g+JH7Kdu794kg1QyIG3lB0NyyATo0qfYZ6ftJYCPSRB9DsAHAOsTm4KvHzw6OHfn/oD0yD7IZhuksa8ov9jwi3Tzbp92AHzvHDu13CbfKpfQ7fr4bCfgI/UD2IyJu8veuw/OXVp+t21AeJuE0DhacARY9k3i0EaYZSG9e3Z7+z4+5fquToHHmNb79BnfuPNvtb7FvADPavWvr5559X/e/Kvy1yX7uJW/Tp/n9c25acaX8NeJAZ+fZDJ8+fTSnbrMD/epTW+lcETk3Q+VxE8HGeQVRgLTFy+9PWIX73418Q+5ZEDaPkAwJADmd39ZsiOnfy/sWDqgEgaGu1S6S3va3k972JxAZXpEWcaA1O/C3fsJrLz81w/SvsC2NgwLW4T2NQGfPtvTGe0eBvikcQqNCRb7Gr3nKl3gzaGQONwSZcZdXVv2HR589tXDlBetkNrldvi2fPDh4KPPri63J/K6O/XtwEgeVp+nz/zGnX+r9S3mBXhWq3999cyr/4vAv4aNzSK0r/LX6fOjYd/8cYwr4a8TA77mwDT38Ik3YRjmBe78vJ3IBACpOfviqd/sa2OLzUnf/FJes/5h7yUD0pY/JnweB6Q5tEESFeFdgE88iZd9bQcuXE6ghtTSAQSHEsSTHtrLF6Alyiy5L0L7MCQAXntJIn0z95DIiXvr8PHlsWrr1/kv7yfTKOJywLdx98EEikOq2pZX+WjESWVgT5oc8JHCAtfNE77S+S75d2wrv4ZNznDHnX+zHnvzkMR8ww8LOAsV76vFX2bdv77y593/ReBfw8ZoEdpX+evk/GfYN14LcSX8dQaAb1uSXIU0z0D66Z+7fW9Z0ufHm6vXhsUDiCRhbZe9F6N8qJIBaSvPhH/vxCcDh0aGXQ4KSNssQzupG6klT12/PThy+eqyajtPaz/j8Ss3H8mfp2l7XoT2kfI6qew0LtU1EEWqBtgzzwIM56dz8344+cygNvMuZ2/fS88AMnWs8AtffpXiPLuawC/2d7LLSNpnQZEOCR06lqTDvh2PHw4NOUWct4M6Rxuf3PijijxvW32eHqMdd/7N+hvYatLGX8zVUepe1P719WHe/V8E/jVsjBahfZW/To8PDfvWj3NcCf9ZAfjsL+uzRTbugPgBW0k62RoSmLysvvg87bjP4/bPhCd58wMYdkkjbd4+AJE6MsbVoQE26sLHKxUxyRaJIeCRA+G8nGHP82yf78ZTCpBHqsfsjoM5TKxos8MTDErrI6DP9EnelzCU3PbD7QrLARtjucbXOCsXgGNk2bg6GARo24js22uTfaMOFkUbSAGdyI33ep8dYx13/j0u32St96/vO4zb/3nyr74+iZ9n+yp/nR0/Kvn2j1Oakvm3AvA9Tp1bzbba4xXq52H1SpP7CJbWHsdfvry0dzHyhmcO7wAP1SdVIwlZpBnlPu/2abuLNHZYu+0RalOp5ntAS57zOqj8m3v72DPEKKnkmmNKmiwuytBmC5F4r/fKYCsNrC4NzJt/9X3vebev8tfVpcc+enic4yvg+3UlpseZgGvbK/1WGqg0UGmg0kClgX4aqICvAr4q3ao0UGmg0kClgUoDlQbWOA1UwLfGP3Bd9fSveuoY1TGqNFBpoNJApYG1TgMV8FXAV1d1lQYqDVQaqDRQaaDSwBqngQr41vgHXusrltq/uiqvNFBpoNJApYFKA/00sALwMU7bdopyWgPJmwJbdE1fpqXlT5p/3P45aZtf3MO58rD8OT8F2ta3X2zYlOzU/dPvXh5pRfX8u3uWPX00y2WcmPePZrj3nzyzYdksTFv8OGHMyjBUO07emqd/Yq7FMRp3/j0uY7HW+9f3Hcbtf847PY/KXyt/W5/8pI8e11t8yfxbAfhKDPf1DSLjw+yn5YaXmcZg/0w4W21sozXNl/A88fG1WykNUJjXU5I/T9/1PE7/2Hxr2oNj2Jef12Z4vL+y+8CK9jfbwx7cpXtfJ08Qzbiud3kYDd6891Br2dy1MW7clp+7O2P+6t6DKZ5XCgaKu65N+w63lqNsnkHY0uPz18VAcvhHbqu7hlVmHDQwzvyLvLO+D+M/pXUvcv/6+jCv/k+Dv1b+VnlMH32vh/gS/jNVwEc6CNABPv/2pzeWQQPDvADHf2zZlmy1nbh6KxnhZY/Oh3j5r/tTPMO88rJLl3+gvvx52mHPJQPSlh9yZmOPHbkw8st4NA8RLu37y0cnl9/Zkotyfv3nbcmtHNdy+cXIsisPi+c2Ketzb+9OAKvL1t0wwKctymSQmBFk34GB57h4/mBcNN7zbxf9cDcO6vn8wcNku046/m+5NGNQOk9bnysTbtLAuPOvWc603/v4T2l9i9q/vvbPu/+T8NfoW+Vvld8ELazXewn/mRrgI1bngB5oyQEfTwtAIEAUH+L9MxdTGv5jhZ26cXvwwblPB7wmNAFfSf4ot+9eMiBtZfDMwDvGxbtfDcKdG6DHfZgLkCKd9MyFV14G8McCtotBYBKx327buRz23Nu7Brs+PpviIl0OGJXlnXsxkjX1kjA2L+N+5tbdFG7Fm7chngHsnz336iNxpLK7G+2OPO7ArroBVD4dlQHwurSZCzRgfffp84NfjujfOK+nPq9tpj3u/Js1XQzjP6PUvaj96+vDvPs/CX/N+1b529rmH/m3rs+PfusS/jM1wMfZPRWfvV054NuwY296//32nQlocK0mHggEkny4cJVFgtYEfCX5Sz9+yYA0y6LCtNduy/4PU9usJL1TgZBa2lcIYD25aevgma3vprBmGd6Bo0OffjE4d+d+8gcbacKPMDdgwFyE53e+YI0LF2H2uPAM0bz4oAVGhedSQC7HPrx0JV0BVvOyPQ8DfL6XbwVgAvTa0XZd/urh4MDFyyltm4SyWWd9f3TCrvUxGWf+rcaYDOM/o9S/qP3r68M8+z8pf638bf3xkT56Xq/xJfxnKoDPnjug4KWdHyTVIUAQasHXDhxNAOGJFzenwxp8rQI+rs8ffLMC4LQBvlHy933okgFplrFl3+FWgENVC/BJf/jSF2l/HPAXYXk5QF3sl2uTsJGKnbx2M0nxmq7AMDRlAscAn3K5YzOeeR1dKt2nNr85MIYA29HP233GDgN8DqD86pWtqS77CDFol7aQVsZ77OOrbsoqA87pMn8eZ/7l+Wf93MZ/Rqlz0fvX15d59H9S/lr5W+U3fXS9XuJL+M/EgI+68eLdB8kBPXBAupMDPmCCuk/c1oNHkxSQmpZqsAmO2hjOKPn7PmzJgDTLoKom0Xv9wJEEUknxAFWAK9qfAN/7B5O0L8KinJ/+4ZV02AIgi/18+YEWEjSqUvsWSemoV9QZ+YE1Kg9SvgB8xvGzrx4m4BfpugBfxDvQMQ7gi/zNO4mub9gMr++VAXfRwDjzr6usWYS38Z9R6ln0/vX1ZR79n5S/Rp8qf6t8J2hhvd5L+M/EgG/bRycTwLMvDZABTgA+e9O8v3n4RAI0pFiA38YfTrBSYdrwn3+cNoaz9dCx4vx5WW3PJQPSlk+Yk6tO5tqLCITmgE9f9KtNwpeA7qFjSaWrnL1nP00ndEnpqFKcvAWexDn4sPfsxRVma6QTlwM+TJKkNN93N0vAt/3IqVYpZ5tqN0CpNterjkFOA5PMv7ycWT238Z9R6lr0/vX1ZZ79H5e/Rp8mAXyVv1U+FXT0ON9L+M/EgM/pzrYff4S9cfBYiney8/TNO8smPK58/W0y1ZIPcBvDcYJMWSX587LanksGpC2fsGBIv3z59XSIIQAfQOfAhD2KbYCvWR4ARyK6//zlwYELlwcX7t5PhzKa6ZrvOeAT9++b30pq9N/9ZWlv5CwBH5X0v760JR3IcHftO/dpAsDxTq3vWdpm2+t7ZahoYJL5txo01MZ/Rql30fvX15d59n9S/joJ4Kv8rfKnvrnxOMSX8J+JAZ9DBNS6cTnAAKAxAiwMCPBObRmqTGpOYezB5QPZxnBGyZ+X1fZcMiBt+YQFQ4r4AHzRZnsWSwCf/PbE6b+LmjfKHHZvAj5p3/rwxGDzDzbzSgGfAx32BeZ1DdvDF+n0jUQ2JI65SleZzNU8uXFpr1/kqffKSHMamGT+5eXM6jnmctMsVGl9i96/vn7Ms/+T8tcAfJW/VZ7TR+drNb6E/0wM+JqD19zDJ54UkBQMeDMhHSAAAJn7EG+jv823PDcAQQ5/eJe+JH+zDV3vJQPSlbfJkBxWAPLsp2OuhSrTfrsAtV3lkIQ5qQsgAVBOt4aUriuP8DbAl6cvAXzn79xPdZPO5XlLAJ/057+8P3h51/6UNwd8vHyQVJJ25uXW58p8cxqYZP7l5Uz7uY//lNa3qP3ra/8i9H9S/grwVf5W+U0fra/l+BL+MwPAty2Bthz4EJmfu30vhQN69vIx8huDT9UbEq/8fur67ZSmL3+U03cvGZCuMpwms4cv4plZef3g0QRcATaSOmZpAMBIE3dSUFK1/ec/S0APOGQzirQM2HLC2Sld+x+bp3SjjGGAj6u6z+5/3elpQxn2HhpbtvLyQyHi2EDM9wNGnXFnLuanzy4dXHGwxLMTuuzveWYj0KEWz64K/CrjDdrJ75PMv7ycaT/38Z/S+ha1f33tX4T+T8Jf9a/yt8pz+uh8rceX8J8VgI8R3d+8tv0RwDKNgQICrCSdSgWWRi1z0vzqG6d/JHk8aVz/5vvBO8eWVNBMq9z47m9J4vXM1h/Vo1RBt77/7wHbgdE/fZaWNO+1/UdaAZ0DLSRmDDgDw21q3jbARwp69vbddAgEmPvVKz96N4n64071m7dLOLt5jDXLu6nDZRtQmoPwkuew6xV113tlxmhgnPn3ONHOWu9f37cYp/+T8tdoU+VvlccELazXe8n8WwH41utA9fWb318SuhyoUl23SbKANxK3vEx5MbY8rO2ZJLALcKuvCQS157fb3ktXqMfbyu0KYyxa2wDHtr5EvtifWXqPfPVemXClgUoDfTQwKX/tKr/yt0p7XbSxXsMr4KvmQ3qB6HqdHLXf9YdRaaDSQKWBSgNrhQYq4KuArwK+SgOVBioNVBqoNFBpYI3TQAV8a/wDr5WVSe1HXWVXGqg0UGmg0kClgfFpoAK+Cvjqqq7SQKWBSgOVBioNVBpY4zRQAd8a/8B1NTT+aqiOXR27SgOVBioNVBpYKzSwAvD98wuvDpwGnVXneGtgeLh5ijXq64uPdOPeJ+kf8ypsRbXVvf3Ix8muXltcHva/fvNcci3Xdc/T5s/GKz+h68Qvcylt1z/85vnWNubl1efKwOZBA5PMv9Vo76T8Z9H7N+sxnKT/lb9WnjRr+lzr5ZfMvxWAr8RwX9ugnb7RbjiZyQ/pGRM+c+vLZM+NkeE7//33gaP4UVZfvHT/8uKWwcfXbqUygMbIO8p9nP7xDAJsMa6sD8yf8DbB8DCPIS79OXH15vI7Q8Vt7eJtpMuOHVt9bXmEPf3GO8k+H7/C3hl3No5xKTOeGSDtKqeGV6Y6TxoYZ/6tRntL+E9JOxa1fyVtr/z1/w0qf638sWSuLGqaEv4zHcB3804CQ4xf5hdDgAaH4WKg6D+2bEuu1U5cvZUADG8TJfEmovyMEgM3q+nrks9cLsUC8D3/7p7kHYO9PEaXXTxscA0U7+zVtREFo8xAMM8h+fX77TuTcea2PBGmPoDxT7sPJMDHQ4c4AC98EvOtu/3ISv/Ekb/eKzObNw2UMKR5tLGPP5W2aVH719f+yl+fTfZPK3+tPLJvrixyfAn/mRrge//MxVaQ87PnNibpUy55khZwe+PA0UFfvAE+deN2cv/1X2+8s+qAT/1ffP1tcntGwsc12fPv7EmXH4ULEOXL1vObh4+3joNyAL6nNr31SDwgPEzCF0T2iw2bBqSHJHzadOTytcHnD75J/niXnh9WwFf3ZD5CX0E/876XMKTVbmMJ/ylt0yL2r6Ttlb8uAZ3KXyvgK5kvi5qmhP/MHPBx5wXckWIZKK7VQgVJRdsXL0+46vrVK6/PBfCR3P1xx94kxeS+7F9f2jL4y5GPl6/bf/v7YO/ZT5ff9bGNKAA+Dr75CM6vC3fvdwK+Z7f/dfDhpSvpokpWLsBXJXyVObXR2CKHlTCk1W5/Cf8pbdMi9q+k7ZW/Vv5aQic1zWL/c0r4z9QA392//0+SOh374sbgld0Hlg9mvHbgaAJpVKMOH3x678Hg0KdfpIt0qi8+J7J5AD4q2FAlA6qedxz/JEnySPParq6DLxt2vJ8khS/u3PfI/YV3328FiaR/xujktZuDnSfOLAM+IPPqw++Sqjt/rirdxZ6UOT2vt+cShrTaYzIK/+lr2yL2r6/NeXzlr5W/5vRQnx+vf0kJ/5kK4CP9sn9s96nzScUIGNmnxzcsSRSQxFcryZT9btQofz15NoGVvvic6ObBkJyEtaEZSL3+zfeDf/vTG+kQConlR59dfeTSx7zNnh36iP19caea/fnzrz4S3qbyVQaVeAA+eZ1qcxnzPZ9cWH63N7BZf31/vCbuWv1eJQxptfs+Cv/pa9si9q+vzXl85a9LgK/y18ov83nxuDyX8J+pAL58QJgcIQED+qhLth46NiD9++VLWxLw27j7QAIkRz6/Nrj6zXe98XnZ82BI6gf6Qsq39+zSXkWHU05euzWgco0L+KJ+zdvs2d4/G4KvfP1tuoyH/YjGwmGUCJfm9M07j+RXRgA+INEJ4bjO3bk/uHj3q+V34faiNNtQ3ysTmzcNlDCk1W5jH38apT2L2L9R2l/565m0CA/e6l75a+Wbo8yheaYt4T9TB3w6bE8IwGf17ASY588fPExgBiCUBsgBhPri8wGcF0N66/DxwZlbdwdnb98dMEETJ5GvffP94OgX15evz+5/3Qn4nnt71zIIu3Tv62XAd+Ty1eXwF3a83wv4SPDY/XMZQ+pcl+cIr4CvMql83izKcwlDWu22jsJ/+tq2iP3ra3MeX/nrmWQ9Ifho5a+Vj+bzY9GfS/jPTADfr17ZmkCeQwYOOAB8pFr/9qfXE7j56R9eSWHMifTF54M8D4bE5p+9cvbYAahPbnwz2dsD+o5duZGO8zOZ4iLZ7JLwTQvwPff27jSG2uGk7s6TZ5J63H7Irr2D+RjW58rE5kUDJQxptds2Cv/pa9si9q+vzXl85a9nBpW/Vv6Yz4nH6bmE/0wM+OzNA3T+ffNbSbLnkMGl+w/SXj2Wnw3Y8Ss3kkoTc2XImLFiAJAR45J4e9We2vzmwKEH4PGlnR+kd+WN8kFKBqRZnj158oUdPvH2JgJ81LEX7z5Yvq59+/1MAR+JImkesEeaaO9k2OFjKgYAHHVMmv2t75XhzYoGxpl/s2pLXm4ff8rTDnte1P4Na7O4yl+XtsxU/lp5X99cWeT4Ev4zFcDnMAMgFhf1LfMlMTjUkOdu30vxgJ79cM9u/1HF2RdvX1uUnd+ZNok6Su4lA9IshzSSK7Mc8EkD8B2+9EXa82Ffneutwyc6AR8TNOwPuphniT18mEyEs+XXtYfPnkdpt3zwYTLh4pCMdgTg8/z6waMJWFdJX2VcTTpehPdx5t9qtLuP/5S2YVH719f+yl+fHVT+Wnlm3zxZ9PgS/rMC8PGMQTU5Tsf+vz+8Mviv198eML/Slp8k0EqSjbr//cyGR9L0xbeVOWrYJP1rA3z7zn263A/mUBhPpmJttosqWNot+z9Ml8MZAfiYqYlwks8uwMeUC4npf762fbBp76HlOnLAp94/7/8oSVubbajvlaHNmwYmmX+zbvs0+M8i92/W46f8Sfpf+WvlT6tBo2u5jpL5twLwreXBmLRvJHiYUpRDdcrcSrzbnwgst7lV8yGosiMtUOzkr8Mt4V5OnLAuwBx5m3dmYnJpajO+vldGWmmg0sCi00Dlr5VGF51G10L7KuCrrriWgehaIOjah/rjqDRQaaDSQKWBSgOP0kAFfBXwVcBXaaDSQKWBSgOVBioNrHEaqIBvjX/gusp5dJVTx6SOSaWBSgOVBioNrDcaqICvAr66qqs0UGmg0kClgUoDlQbWOA1UwLfGP/B6W8HU/tZVe6WBSgOVBioNVBp4lAZWAD5mP2Zpw+2JF7cMeK74yTMvtK4khsU7wfrkpq3pJOzPn9/Ymr/vA4/bP6dv/8+bO4bWyawDkyhM0/S1QzzPHU9u3JpM1Lz81w+SyZWSfOOkKWn/OOXWPI9OqDom3WMy7vxbrTEdxn9K2rDo/SvpwyRpptX/f3lxy+Cjz64O/ul3Lxfx0mabmf1irqo0v/9RbnGB3VX/m7brH37zfGebwrNU3h4+5F/bf6QzT6T1/+CK9KfPtvf56TfeGfhPRPr8zjLET57ZkF1L/1fOCl4/0F93XlZ97uZfiz42JfNvBeArMdzX1mn+ZXODyPEcIOkff/dicksm/N7f/yd5qPjtth8BVF/87lPnk7FmRpvlV44wk6StPV1h4/bvwMXLg+NXbg6ty6TjeYMx5q768/Dr334/ePPw8cHPnns19ee32340+ZKnm8ZzSfunUU8t4/FlFqvx7cadf7NuWx//Ka1/UftX0n4gi3F4vNWivCRPM824/bcg/e2297JrZ7JpuuvU+SxsKZ790ma9zXf/BUb5gb5mXNs7MMUZAL/K4nlX8p+JK/5b3tvKZKJLH/hIf+PgseQFihekv548O9iy/6PUlrZ68zA+5tVj0ZGHxzOj+vvPX26NY8hf3rgY6Jdv16lzgw8yW7FRVvOu34z+l1xPbXqrtQ3NMuv76v8LSubfdADfzTsJ0PE+kV/sz/nwH352JYEhbtfYoztx9VaaYGGDri+ez10TikszK6DDl64k4maDbhTCKhmQtvJKAROmybZeWxnNsAr4Vn9CNL9BfV/dbzDu/Jv1d+rjP6X1L2r/+trvh2+xCvQADf+xZbyf+rj956ucd6bzd+4PvaSRNu+P/8Fbh48/cvFprk9tcfFfysvxf2EQ/0+7DyTAR9omPjdsz7sRA/t5Ps+vHTg6OHXjdqoP6OO148rX3yaN1KFPvxh8cvPLFf/FNsnjpICPJJGEhz1Ynq/8KwE/hvwBz/xqCkrkZWOWe073uLgwff7dpTDjgjY4WGj2v76vLh/tGu+S+Tc1wMc9WFtDfvbcxrRSyldG0iKeNw4cHfTFt5X5zNYdKb+VWVt8V1jJgLTlLQV8bXm7wirgW4xJ0vV9avj0v8+482+W32Ic/tPVnkXsX1db83BghSSI9GxegO+Zre8mD0HAZttlO480TcBHgLBx94HlC7AB3PKw5nPXlqBfbNg0+KdnX06Aj1/yI5evDT5/8M3g8lcPf3h++AjgU3+0l19123pOXruV/MVz2cf7krGl1sXz95y+sEJtq1/cjl748qs09vzQn719L/lvFx7Xrb/93+SS03tTykbCB8TSgLkDfLRHl+8/HPzxvX3LF2mj7wtc5t/fM4B49vbdJJyhmZNGPzbs2JvSArUELc189X36fHLcMfrJq2EAABtoSURBVC3hPzMHfAgGkf1++5LKkms178TjVAh98W2dJ6q2emtz0daWPsJKBiTS5vcm4OMNg4qXuzR7OqgPME3Xxt0HWycFaeQ7x04Pzn95f4Ax6H9TpWtymtAYFjAcbaAutuLEhG7/7e+p7ly62Rff1/6op94XZ/KuxW8x7vyb5ViMw3+62rOI/etqax4eWolfvfJ64s2rLeGzcCepI2E8c+vu4NiVGysurimvffv9AIDqW+STTuGvef+GPT+7/a/J/zmJoD140lLplkr4jJUtTS5t928DEr3v+eRCeudjXbkAH/eibe3xf5Q330sY6Z7e+m6KG6bSzQGfcowlqSVBi73iypJGXFPCZ6/ic2/vTj7jjQFQDVTmgE8e+wSjTfW+eP+KEv4zNcBndQGQHPvixuCV3QeWD2ZYGSAyIMnmWL5jibldJkZffJOwgkHbI9GM63svGZC2MnLAZMKaEBfvfrUs3tZfQA9Q237k40faRdUrjsrCapN4HGDNAZ9xA+beO/HJ8n7H2ANpX6AJbPWqLis3+U1g7e2L72t/W59r2OJN6Mf9m4w7/2bZ71H5z7C2LGL/hrW3GTcvwBftwOO0Id7jbisQwBfvw+74sP8QANO88kVylKFsNHDy2s3BzhNLftABPrwYn8dn8+c2la5FP9AEkJEGkhpbhPu/AU0u8f6DXUIKamDx6pQ/2udOJQxAlgI+Ej5gT53GNNx1PrFhCfDlZXvmmpMKGmB1aDMkgOp8Ycf7K9rSzFvfF+c/UcJ/pgL4gC/7GxykQOQI1z49YmIrJURnhWAiEU0jaODFZOqLzwkKAAIstxVuxs3zei4ZkGYe7wGYMCOrtHN37q8Qy0cee0zaAJ+JI18+2b3ngM8YEe8ry95GY4gBPbnxzfQcq0TxVBLiSTr74kdpf/Sj3hdnEq+lbzHu/JvlGIzCf/rasYj962tzHr8IgO/gxc8TX8Pb4qJKLAV8tgvF4jrfE0jtGVK7vM/xTBIWgI9a18Le5Z9GUhfvpIyRJ+7S4Mf5RQMEfNrz5j/33Nu7EqiKPPndHjqgUH6CEFqgkLo6zGIfXt+hjVzCB/Ap/w9v71reW89X8b+8tCVplvK64xk4tFeeCtqzcOWUHJKJMup9vv+NEv4zFcCXf2irgx3HP0nESxq39dCxBNIQNVBDwiW9Fc3Vb77rjY+y//O17csAMcJGvZcMSFuZAB+AhpHYa+FUX1u6NsBn8lDfYgp5nibg27Lv8Ip4de0//1k6io8RNM3lkDBSdTiqPyxenaXtz9tXn+c7edfi+I87/2Y5Fn38aZS6F7F/o7R/EQAf0AXcNK/New+t4I9d/aJBaksLPAI0XfkC8AFGATTdLe7x2jzMXr8oB1/Gy/3PgK5nt+9Ke+1ytTgJHa2M/2LkiztBiC1BsS89wJ86CAiAVoKOPsAHzPm/akMAPmrqV/ceHLx/5kLaWwi0Ap9Rt7v/NTVyXNrhOfZzkvBFXNy7/n95ufV59f8fJfxn6oDPh7Y6AUKsqJwA8wwMWamEuHhJhAywDI9XHpWoFZpJNwkhlQxIW/kAE3G3Szt+9cqSJK6Ztg3wYQj6b7UV6am2STpzCV9ulkV/5bHRF0D23FRHGEvgsy9enaXtj/bV++pP1vUw5uPOv1mOTQn/Ka1/EftX2nbpFgHwATdAV9vlgMSw/vjvWFzHVpc8LSldriXJ4zwH4CPBo6Vx+UdR57o8R3gO+KhJN+07nDRYABpApQ8ke5EOn8fD/33zo6efX9y5L6ls/RelYZbFM+3YkctXk6ZM+/oAHzCmjQH4AEf/KtogeQFXqlv/nbzvxlSbm5e2GMtmePQvL6M+L8b/ooT/zATwAUQIJgxReqaKdWQccfz0D6+keCsuNoyGxUt/9PPraZVlEkxCXCUD0lY+wEREjxl8dv/rtIJqs5fUBvgYv9Q/p7ei7N2nl1QAXYBPWnnsw3B53vLBh8v5rbBMRns6+uLVWdr+aF+9L8YEXmvfYdz5N8txKOE/pfUvYv9K2y7dIgA+vI6kqnnhd8MkdNrvoBtg09ZnvDLnwc00Afjs+xNnq4y9gDtPnknbj2xVampZpPNPANqUTTqp/TRX7rY5SRMq31zqF/UDhw6a5ICP1M/JXid2w4TLMMBHgrhhx/sJOLLryp6eLVMxlhfu3k/AjTaoRDUOBOq7f16+DSnaXO+L+X8o4T8TAz7ESVRt9WKFZRMsQrWSYBcIcRy/ciOpQzFXxGSfBgBIDN0XTxpmsjsi7yRTfilvFOIrGZC28gIwibNqY98IuGvaJBLm5C6QZ+UnPZWulRaRvn0ce89+mlZi+p8DPtK8X778egLJVpRhMNP4Oi5v9eYUr7LZDTOZjXlfvDaUtr+t7zVsMSf34/hdxp1/s+5rH38qrX9R+9fXfqo+fAVowFfYX/O+Wvw12gfkAZ3xnt93fXx2KODTVvnx2DxfPAMvgFm8N+8AH76O9wJ7Fvb2pgsHNNmoA4KaY0KSBmTyDBLmxoDGOHhhTPF/6lVgq2kSBv925YDP4p5aNiSE2joM8Imn/aK6PXDhcvrn0BL5rryGiAeG2cj97KuHnWMgHU0StTh7gvYSOkQCKGqf+Hot7hiU8J+pAD7EiVHEBfgQHwdxWAUxNyIe0DEx7XUoiQcQo9zmHWCKMkruJQPSVo5J5KcQcSEaNyFig6s4/Y425ieqnnt7T+qzOHsySAeN2RLgWzqAEfkwFSd1nfKK+qg37POINBgIg5il8aXtj/LqfXEn9eP8bcadf7Pucx9/Kq1/UfvX137bQ4K35Hc8py9vHj9p/5cA2560ZYaWKL8ICbokfE6hWhBbbOftiWeCB/+drq040tmDB/ABWw4uhHQuAJ80QJe91W2SPvFx2M6hDyCO1A+fByABJipa4LBNapYDPqAyDvBFH0js8n9KhLv7j1C18pDim6mnDaDZrwr45nk9aytBTRykJJTwX1MGkExiSUqYe8dqllHf5//PKJl/KwAf/T8V4Tgfj7SLH9k4At4sA1FZcbDD10bwffHN8sZ5n6R/49SX5wFcAbc8LH8mycQo8rDmM1tVscejGee9L74tTw2b/0RdL99gnvOvb4ynwX8WuX99/Z9G/KT9B/ioTu1Nbl6AVhvgszC2SCZBw0PzfpC4UXcCQ11gKdIDNoChw4GbsgMiOeCTFohr24v3wblLqR1AI6BEygfsxTYmeYEo2po2W6054Is2uZNYhiChTSVNJUwqGf9t/2FSOb7a5acuJpgA2IDeXNAS9bAfK84YOhUc4XH3vw5TNSSZEV7vi/XvKJl/KwBf/YCL9QHr96jfo9JApYH1QgNUqF2LXocSmh4mYlxI3Nr2d1NrOm06TLIXZXTdqThzbVVXOttxtCPMqbDNl6tkI5/967lWKMItOICxZhxBAckd1XGkze/6re48jKRRecKUZ++gtnWdriWIISzIy2h7BiZJK9viatjjwacq4Kv7EuoErjRQaaDSQKWBSgOVBtY4DVTAt8Y/cF15PR4rr/qd6neqNFBpoNJApYFZ0kAFfBXw1VVdpYFKA5UGKg1UGqg0sMZpoAK+Nf6BZ7laqGXX1WilgUoDlQYqDVQaeDxooAK+Cvjqqq7SQKWBSgOVBioNVBpY4zSwAvA5lt5lY6gEwTuZ5ESUE1VOIzXzMCnixFHz+Hyk64uPdOPeJ+3fuPU+zvmc9mJ4s2lwtKtPbJoxbRAW4rvS1fDHY0U4ze+06PNvUv6z6P2b5rdsK2vc/jsl6jQpcyd4jbL9Q/Ae9z/94H+9rc4IkzdOxbJh17TRyics48mRPr/7H6knwhgr1p62yz8u0sV90vxRzrC7k8Jd7R+Wr8atHz5bMv9WAL4Sw31dBMRXLHtAvGKE8c6wmu44+JlbX6Zw8ewi5UYc++LV6Yj9x9dupTKAxq52DAufpH/DyhXHcGUJY+orZ9T4Q59+kcYTc8rz8n7iOwBgeXjXc1f7MTjl8DnalVc4O1B8Dce3d2+zGzWsjBq3tpnTLOffJLRTwn9Kyl/U/pW0fZ78laFfdt7wGAaWn93+12Q7jm06dvCE9fVh79mLA/bk5LE4ZVfOwlM+pl4Yq+dBpK2cp994JxnGDx6nLf5TceFl8aw9zTImzc8gsnLjYk+tWYe2nbx265HwZrr6vrZ56LDvW8J/pgL4nt76bpoQe05fSPZ8SPesqAJscAUG5AEV7AqduHorTTD2gnSgLx6xy88wp8nX5pNw2EBEXMmARNpR71aUJX4KRy23Lz3AZ0zy1R+mxwCo8DZJa1uZXe0vAXxc5Pk+3PEAfr4xw6PPbN1RGdQaVxG00VJX2CznX1edJeF9/KekDGkWtX997Z83fyVZ9Q20A7jzH2GgX7u51Dx57WZyC8Y1mKvNZhyew0Ax/+3ybT/y8eDwpSvpmT9c/mXDNl3beOBbjDtbtAN87x47nfICYWHwmfeN7UdOpfBmGZPk59ljzycXBts+OpmAqbLY18uvV3YfSAIPYcP60WxXfV8/ALCE/0wF8AFw/O+1ibv5FLQ6yldG4XOQf7++eARr5ca3LCOaFfCtJOAAfO4xua1sjdNqAT6ra3VNsh0g2l7vK7/vWhqPEoa02v0t4T+lbVrE/pW0fZ78lTFf/w8uJ0nlLBy9uxgbtnAF2PgaJ6Xbder8siAh+nb29r0kEQScLt79Krnx9D/iXYJLT+VyveaZp4vI17xTCZMGAny8dwCbPH9c/urhD88POwGfssbNr91Pbtya2gW0cu/GQ0h+aY+xEcZAdbPt9X3t8s3Sb1vCfyYGfBimnz0/fG0N27Bjb4r//fadKd7KTXogkIq2L16ZYb2ciljeeUj4frtt5+Do59fTpMNgAtxYWVqh7jxxJvlg9BwXlzTUmvwXNt3JWcVhtCy5uyvvj+/tS0zJShMYzsezq/4AfKSf2iKPb2GcXCHhs8eFj96Ldx8kpnj6xp0fLLsPb38u4eO/l2oeg/rLkY+XV5qYIl+UeXvzZ+6PrJgxLWp/46Hf0mCw0f/IYwUrLGiGBNm7tO8cO50YMOYfLop+8syGJBXwc8DcSRqb9Ng1flFnvc+eYZYwpNX+DiX8p7RNi9i/krbPm7/iW4AMvoCPHbtyI3l0oBHCw57Z+m6Sdolr20vsX4Ln9vVVXmnzdNTHXIq5Qjo4ioRv0vza0gR8Id3M21lVurPnT/l4P47PJfxnYsBns6tJiXEShxOjE8mTxhm01w4cTfF87NrcauUFpLgAhb74fODnBfj0BZA4cPHyAOihHgBcABB9DnDVvPNLaLOtcKqIvC8YDND1s+deTfHHvriRygTKYr8jP4nyDKvfOGKW6qBGp869/u33ab+HMICPOxyrQ/VhaghD3MbdB3rbH4AP4FIGIGWVLb/+2f/k+a3Dx1f0L+/r4UtfJEYuL9XE5fsPU1n2qlD7yx/gTj6AT1jsieQX0jvVDvrZsu9wUp/HxuzXDxxJjHzL/g8HwOGrew+u2LQ9bPzydtbn2TLVEoa02t9gFP7T17ZF7F9fm/P4efBXewcv3X+Q/hmh0nXH0/xHzHt8g/swz829ytofgE+eW3/7v62XuDbAB1SiAbzFol15AB/+zictnpc/N1W6k+ZXH8CH5wO8/jMAH57FD258nwr4ZsubYpwf53sJ/5kY8Nk7ZiKeu3M/TbRdH59NYnOTkG9Akh0rMz9xE8mEJBU0iU2mvvj8A8yDIamf82mSsdg7QdWgzwCJPRVWyPaMAFqe4wK+5Odw+uo33w1Iurw7TWN8ALQAfMbI6bKl+E2p/GBAw+oH+BzQ+Oz+16me/3r97cQ0SL+0EeADsDBVbVV+ACqAr6/9AfgwIlJJ+fVL+0kvYxW+YceSs27x+QVsasdbh08sh//8+SWp8K5T50YCfL5BSDE/++rhMqh7/8yFxJTbVv/aMmz88rbW55XfbtrjUcKQpl1nX3mj8J++shaxf31tzuPnwV/xAnvj8CRajS37P1rmMQDXpr2HEvCy6AOM8vbGM4CEjz2xYfPAid+4HKYA5GgDLNRpWdqkZ8qx5Sj4rYV8lLH71Pm0vy7eY1961B33SfInjclHJ9MeRs/auGnf4aSGpr1QRwV8s+VN8R0f53sJ/5kY8JHy+KEDBIBcDJgVC5WtE0jigCSgBsiQhgoQCOqLj/Lc58GQgDfghjoScItLn/N9iV2HHrTbqWLpfRDvpGHAIYlnAD5Sq7yv1Lr7z3+WwOOw+gPwAdPG2buxpWpQp70hzbbmgC/q7Gp/AD4biiOtOya6tAdzSUJplZzHxzMzC+oPFXiE22uDRkaR8P3bn350Ei5fgD+g00LCONn8TVoY4Lz0+0W76n12jLWEIa32+I/Cf/ratoj962tzHj8v/ur0bCxQ8Ubv9qmZ7+axBSvgZh933t5hz6xAkMy9c+zUMp8Ylj4A28+ff3VgIRoXQQZeFe/uYf4lL2+S/EBevocP4PNvSBqw/UdSnyvgmx1fyr/j4/xcwn8mBnwBKI5+cX3FZDQBTDiE6odvM+rpm3eSdMig2kTrh98Xn3+AeTCk2KO4//zlwYs796248r2EXYAp2n/8yo3UZyoJe80CLAbgs8cs0lJzGDMblfvqD8BnD4s8LpLDAHzaLCxMFKgDUBIW4FtYV/sD8PlO0T53TOqNg8dSGPBqfPL4eFaHumLPXoSjhQtffrUM+LQ34qJ9TZVuALxIl9+ploFOTFJ9TBhY9feNX15GfZ4tUy1hSKv9DUbhP31tW8T+9bU5j58Pf311YMsHCwek9p6BrNziAe2AOU1jlLfXM62Jb9i89p37NO31bYZ7D6lZXlYANgtJ2hqXf5R/mMtzhA8DfOPkbwN82mablIU1iaN2V7Mss+VPOT08js8l/GdiwGclgmCp2/JBIp2iSqNmM1lJn0JCQ80ozHH3vvi8zHkwJPUDq32rSyJ4fQy1ad5uz9Sh+nzi6s0kibKSFN4G+KhKpQ0V6rD6A/Ap68jlq0m1C1QG4AP+lAX4SWPFjKkKoy4R5upqfwng0wbq+TaVavTbybOoCzgjjQMSSeC0xYGVaJ+9ksJGAXxRNnWzuuSPPTDDxi/y1fvsmWkJQ1rt7zAK/+lr2yL2r6/Nefy8+Ct+ANjY0gLAORRnr2+0jY1X85laNcLijteR/gFD+WXOKzMPi2cAKvLHPQAfc1LCbEWh1XFC2PYjC8mmliLyuk+S3//zubd3LZ1K/vb7ZbUzXgZkWuhWwDd7/pR/z8fxuYT/TAz4DAyiNCGBBqsnk8YP3eZ58aRbVJSYK+Jlawk4Yr+tJN5Ef2rzmwP7xNRD5O+9DWAM+1AlA9KWf/PeQ6lehwKAVQdQ7DUBpiJ9ABsgyiqPWtHG24h3d/BB+8M+lLAAfKR5NiY7VGFFmQPMYfXngC+vKwCfQyNU6cC3FbL0Dj4Yf98t8nS1vwTwMa1gvw2JLU8rmLb9MxgkgMkUghUyUOe7UbsaByeHxVPHOgFt/yHawKzFlwI+anZ7SY2l72Ms5Q+p5rDxi/7X++wZ6rjzb9bfpo8/lda/qP3ra/+8+Ss+6f9A6m87igMWsf/Z/8T+Y+CLFgm/6OuPeHwUECxJKw3ARvOC9wJ79kRTKwsnmMBftKHrnzNJfoAPv/LPdG/bZ1gB3+z5UymtLGq6Ev4zFcDHFQ0QkxOtDbAxaQEgNpDEAxoASC6e74vHCORtXqeu3y6e0D5SyYB0fUx7SzAlbSDNcqoWQIn0+molGJNWH03SiHeP06Z5vgB80TdMxUndOOAR+bvqB+BsPI90cQc4lWlsrZaNu3cndQE0ADBXw3a1PwBf00o9NW5uOgaQszJXR9QVnjZIM32r6KOVt03U0VbSR+MlHjh0etdzmEmQ1nuXStehDeMW5fsGxjDKd+8avzxNfZ4tU51k/s3y2/Txn9K6F7V/fe2fN381r1kxMG/xVupcC2fuGS3m2PnED9nm+//bO4PdqGEgDPc9uPMKHBASEhJIPcOpCMSh4gY9cAEJiUJ7qKgQqnjfRd9WXrwmi73Z9TZMvkO08dqxM+N/Jr89joOvayF91LcN4YNoQviIDkDAeJEEvSXCx/mz16fLZ8DQTN8u19NeWsN3u+XX31+SYskNM5S1vjS/rw+bsn5b/M8a4eNBm8KIYwTj7VNGa5CY8nqMlJEko5dyTzrK1vLL+sakd5UPUoQMENxN7RNioMwQOYGc4VzzaxPhY0p/KNSQl21pPy+fn1N3/lJNnpef/+v+83KbziGTENohWdghn7WGyFFeT7u8sVf+v02aB/cm3VPPLvrb5j4sO+x0d7W/nnrdh/+Zsnw9dZfqHiM/X+OB5DGrx4waxI7oBFtfsUSFg0EnbbD8g82UebClNstf6oB8MahkHV+ZvynNoJPnF1GBfKlLTvi4lkEskYmynl2uZy04/q+sky3PmGlEZsjw0MC+vMb0sO+Zg15a7G+N8M1BKYeWEScCkSF8itGWo8NE+PKXNg59j7Y3Xydh39v3d4kBQrZpdqu8DyID5eQA/hLiV5ZNaR56rPlj94ihQXcq1/rLy2Ysi2ktX5bb5fq0jQyTJISZW2Y2y/ZNa985BiR8xb5xuXL2cc76E0KNhFLz792mupkRY4SbNllO//uroYoBMSAGxIAYEAP7woCErzPhI4zaEkrdV4daj85BDIgBMSAGxIAYKDEg4etM+EqFm9YIxYAYEANiQAyIgUNjQMIn4Ru9PuXQYLU9HaQYEANiQAyIgXEYkPBJ+CR8YkAMiAExIAbEQHAMSPiCd7AjoXEjIfWm3sSAGBADYiASBiR8Ej5HdWJADIgBMSAGxEBwDEj4gndwpNGJsjjaFgNiQAyIATEwDgMSPgmfozoxIAbEgBgQA2IgOAbWCB+feOFbglHZc3T5ovabco0bzU1Nb9HtL7p8NTzNXf6afsyP4cem2o8t9rdG+PhY/bsvF2EJX3T5pgpE70tHBwai2190+Wp2PHf5a/oxXz/YEwMt9ifhCz6F2xNg1q0D2wYDLQ5pm/qmVja6fDV9z13+mn7M11/2xECL/R0xDfjoxcvlcXL2YfHx6nqVfvj8ZDnbd/zm7eLi5tfa8fn7j9VM4JTzo8sHgKasf+9v3v0T3f6iy1ez37nLX9OP+fP2f737v8X+uId0HD19dbo4O79cHp+urhdff96s0u/Pb8O79x48XlBxftx/cryqZMr50eWjI6esf+9v3v0T3f6iy1ez37nLX9OP+fP2f737v8X+uId0GNLNlJGU4u8fgKgLdbEvDLSEHPbV1l3UE12+mk7nLn9NP+brS3tioMX+JHwSvhX77wlG69bZtTik/xkn0eWr9c3c5a/px3x9YE8MtNjfAOH7FpYA3Cokrnw9wWTdOqtdMRDd/qLLV+v/uctf04/5+tCeGGixv9/XcCZuYAmjqgAAAABJRU5ErkJggg==&quot; alt=&quot;&quot;&gt;" style="text;html=1;strokeColor=none;fillColor=none;align=left;verticalAlign=middle;whiteSpace=wrap;rounded=0;" vertex="1" parent="1">
          <mxGeometry x="2165" y="3240" width="690" height="520" as="geometry" />
        </mxCell>
        <mxCell id="zemC2-BOqZlxE-PlAdGb-153" value="V4 版本： 拆分权益&lt;br&gt;账户A权益流转图" style="ellipse;whiteSpace=wrap;html=1;rounded=0;strokeColor=#000000;fillColor=#B9E0A5;" vertex="1" parent="1">
          <mxGeometry x="3510" y="2785" width="440" height="70" as="geometry" />
        </mxCell>
        <mxCell id="zemC2-BOqZlxE-PlAdGb-154" style="edgeStyle=orthogonalEdgeStyle;curved=1;rounded=0;orthogonalLoop=1;jettySize=auto;html=1;" edge="1" parent="1">
          <mxGeometry relative="1" as="geometry">
            <mxPoint x="3520" y="3070" as="targetPoint" />
            <mxPoint x="3340" y="2890" as="sourcePoint" />
          </mxGeometry>
        </mxCell>
        <mxCell id="zemC2-BOqZlxE-PlAdGb-155" value="1.生成订单&lt;br&gt;&amp;nbsp;根据套餐packageid" style="edgeLabel;html=1;align=center;verticalAlign=middle;resizable=0;points=[];" vertex="1" connectable="0" parent="zemC2-BOqZlxE-PlAdGb-154">
          <mxGeometry x="-0.6" y="-2" relative="1" as="geometry">
            <mxPoint as="offset" />
          </mxGeometry>
        </mxCell>
        <mxCell id="zemC2-BOqZlxE-PlAdGb-156" value="&lt;font color=&quot;#660000&quot;&gt;5.1.&lt;br&gt;操作优惠券抵扣&lt;/font&gt;" style="edgeStyle=orthogonalEdgeStyle;curved=1;rounded=0;orthogonalLoop=1;jettySize=auto;html=1;" edge="1" parent="1" source="zemC2-BOqZlxE-PlAdGb-165" target="zemC2-BOqZlxE-PlAdGb-166">
          <mxGeometry relative="1" as="geometry">
            <Array as="points">
              <mxPoint x="3525" y="3270" />
              <mxPoint x="3805" y="3270" />
            </Array>
          </mxGeometry>
        </mxCell>
        <mxCell id="zemC2-BOqZlxE-PlAdGb-157" style="edgeStyle=orthogonalEdgeStyle;curved=1;rounded=0;orthogonalLoop=1;jettySize=auto;html=1;" edge="1" parent="1" source="zemC2-BOqZlxE-PlAdGb-165" target="zemC2-BOqZlxE-PlAdGb-167">
          <mxGeometry relative="1" as="geometry">
            <Array as="points">
              <mxPoint x="3490" y="3300" />
              <mxPoint x="3490" y="3300" />
            </Array>
          </mxGeometry>
        </mxCell>
        <mxCell id="zemC2-BOqZlxE-PlAdGb-158" value="&lt;font color=&quot;#660000&quot;&gt;5.2&lt;br&gt;操作钱包扣减&lt;/font&gt;" style="edgeLabel;html=1;align=center;verticalAlign=middle;resizable=0;points=[];" vertex="1" connectable="0" parent="zemC2-BOqZlxE-PlAdGb-157">
          <mxGeometry x="0.7333" y="45" relative="1" as="geometry">
            <mxPoint x="-43" y="-45" as="offset" />
          </mxGeometry>
        </mxCell>
        <mxCell id="zemC2-BOqZlxE-PlAdGb-159" style="edgeStyle=orthogonalEdgeStyle;curved=1;rounded=0;orthogonalLoop=1;jettySize=auto;html=1;" edge="1" parent="1" source="zemC2-BOqZlxE-PlAdGb-165" target="zemC2-BOqZlxE-PlAdGb-168">
          <mxGeometry relative="1" as="geometry">
            <Array as="points">
              <mxPoint x="3525" y="3260" />
              <mxPoint x="4115" y="3260" />
            </Array>
          </mxGeometry>
        </mxCell>
        <mxCell id="zemC2-BOqZlxE-PlAdGb-160" value="6.&amp;nbsp;&lt;br&gt;进行少儿加课&amp;nbsp;" style="edgeLabel;html=1;align=center;verticalAlign=middle;resizable=0;points=[];" vertex="1" connectable="0" parent="zemC2-BOqZlxE-PlAdGb-159">
          <mxGeometry x="0.2135" y="-2" relative="1" as="geometry">
            <mxPoint as="offset" />
          </mxGeometry>
        </mxCell>
        <mxCell id="zemC2-BOqZlxE-PlAdGb-161" style="edgeStyle=orthogonalEdgeStyle;curved=1;rounded=0;orthogonalLoop=1;jettySize=auto;html=1;strokeColor=#FF0080;strokeWidth=3;" edge="1" parent="1" source="zemC2-BOqZlxE-PlAdGb-165" target="zemC2-BOqZlxE-PlAdGb-168">
          <mxGeometry relative="1" as="geometry">
            <Array as="points">
              <mxPoint x="3525" y="3200" />
              <mxPoint x="4115" y="3200" />
            </Array>
          </mxGeometry>
        </mxCell>
        <mxCell id="zemC2-BOqZlxE-PlAdGb-162" value="&lt;font color=&quot;#990000&quot; style=&quot;font-size: 15px&quot;&gt;A2&lt;br&gt;执行加课动作&lt;/font&gt;" style="edgeLabel;html=1;align=center;verticalAlign=middle;resizable=0;points=[];" vertex="1" connectable="0" parent="zemC2-BOqZlxE-PlAdGb-161">
          <mxGeometry x="0.3541" y="-14" relative="1" as="geometry">
            <mxPoint as="offset" />
          </mxGeometry>
        </mxCell>
        <mxCell id="zemC2-BOqZlxE-PlAdGb-163" style="edgeStyle=orthogonalEdgeStyle;curved=1;rounded=0;orthogonalLoop=1;jettySize=auto;html=1;strokeColor=#66B2FF;strokeWidth=3;fontSize=15;fontColor=#66B2FF;entryX=0.553;entryY=-0.02;entryDx=0;entryDy=0;entryPerimeter=0;" edge="1" parent="1" source="zemC2-BOqZlxE-PlAdGb-165" target="zemC2-BOqZlxE-PlAdGb-168">
          <mxGeometry relative="1" as="geometry">
            <Array as="points">
              <mxPoint x="3525" y="3190" />
              <mxPoint x="4160" y="3190" />
              <mxPoint x="4160" y="3318" />
            </Array>
          </mxGeometry>
        </mxCell>
        <mxCell id="zemC2-BOqZlxE-PlAdGb-164" value="3.&amp;nbsp;&lt;br&gt;通过兑换码开通权益" style="edgeLabel;html=1;align=center;verticalAlign=middle;resizable=0;points=[];fontSize=15;fontColor=#66B2FF;" vertex="1" connectable="0" parent="zemC2-BOqZlxE-PlAdGb-163">
          <mxGeometry x="0.4877" y="-27" relative="1" as="geometry">
            <mxPoint x="75" y="-7" as="offset" />
          </mxGeometry>
        </mxCell>
        <mxCell id="zemC2-BOqZlxE-PlAdGb-165" value="saleorder 订单服务" style="rounded=1;whiteSpace=wrap;html=1;strokeColor=#432D57;fillColor=#76608a;fontColor=#ffffff;" vertex="1" parent="1">
          <mxGeometry x="3450" y="3070" width="150" height="100" as="geometry" />
        </mxCell>
        <mxCell id="zemC2-BOqZlxE-PlAdGb-166" value="优惠券&lt;br&gt;(coupontrans)" style="rounded=1;whiteSpace=wrap;html=1;strokeColor=#A50040;fillColor=#d80073;fontColor=#ffffff;" vertex="1" parent="1">
          <mxGeometry x="3730" y="3320" width="150" height="100" as="geometry" />
        </mxCell>
        <mxCell id="zemC2-BOqZlxE-PlAdGb-167" value="钱包&lt;br&gt;(wallettrans)" style="rounded=1;whiteSpace=wrap;html=1;strokeColor=#3700CC;fillColor=#6a00ff;fontColor=#ffffff;" vertex="1" parent="1">
          <mxGeometry x="3430" y="3320" width="150" height="100" as="geometry" />
        </mxCell>
        <mxCell id="zemC2-BOqZlxE-PlAdGb-168" value="一对一课时&lt;br&gt;(curritrans)" style="rounded=1;whiteSpace=wrap;html=1;strokeColor=#C73500;fillColor=#fa6800;fontColor=#ffffff;" vertex="1" parent="1">
          <mxGeometry x="4040" y="3320" width="150" height="100" as="geometry" />
        </mxCell>
        <mxCell id="zemC2-BOqZlxE-PlAdGb-169" style="edgeStyle=orthogonalEdgeStyle;curved=1;rounded=0;orthogonalLoop=1;jettySize=auto;html=1;exitX=0.5;exitY=1;exitDx=0;exitDy=0;" edge="1" parent="1" source="zemC2-BOqZlxE-PlAdGb-172" target="zemC2-BOqZlxE-PlAdGb-167">
          <mxGeometry relative="1" as="geometry">
            <Array as="points">
              <mxPoint x="3855" y="3200" />
              <mxPoint x="3505" y="3200" />
            </Array>
          </mxGeometry>
        </mxCell>
        <mxCell id="zemC2-BOqZlxE-PlAdGb-170" value="3.&lt;br&gt;调用钱包加钱" style="edgeLabel;html=1;align=center;verticalAlign=middle;resizable=0;points=[];" vertex="1" connectable="0" parent="zemC2-BOqZlxE-PlAdGb-169">
          <mxGeometry x="-0.0939" y="2" relative="1" as="geometry">
            <mxPoint x="7" y="-12" as="offset" />
          </mxGeometry>
        </mxCell>
        <mxCell id="zemC2-BOqZlxE-PlAdGb-171" value="4. notify saleorder&lt;br&gt;通知订单服务&amp;nbsp;" style="edgeStyle=orthogonalEdgeStyle;curved=1;rounded=0;orthogonalLoop=1;jettySize=auto;html=1;entryX=0.5;entryY=1;entryDx=0;entryDy=0;" edge="1" parent="1" source="zemC2-BOqZlxE-PlAdGb-172" target="zemC2-BOqZlxE-PlAdGb-165">
          <mxGeometry relative="1" as="geometry">
            <Array as="points">
              <mxPoint x="3855" y="3230" />
              <mxPoint x="3525" y="3230" />
            </Array>
          </mxGeometry>
        </mxCell>
        <mxCell id="zemC2-BOqZlxE-PlAdGb-172" value="basepay 付款服务" style="rounded=1;whiteSpace=wrap;html=1;strokeColor=#006EAF;fillColor=#1ba1e2;fontColor=#ffffff;" vertex="1" parent="1">
          <mxGeometry x="3780" y="3080" width="150" height="100" as="geometry" />
        </mxCell>
        <mxCell id="zemC2-BOqZlxE-PlAdGb-173" style="edgeStyle=orthogonalEdgeStyle;curved=1;rounded=0;orthogonalLoop=1;jettySize=auto;html=1;" edge="1" parent="1">
          <mxGeometry relative="1" as="geometry">
            <mxPoint x="3820" y="3080" as="targetPoint" />
            <mxPoint x="3350" y="2930" as="sourcePoint" />
          </mxGeometry>
        </mxCell>
        <mxCell id="zemC2-BOqZlxE-PlAdGb-174" value="2.调用渠道进行支付" style="edgeLabel;html=1;align=center;verticalAlign=middle;resizable=0;points=[];" vertex="1" connectable="0" parent="zemC2-BOqZlxE-PlAdGb-173">
          <mxGeometry x="0.0792" y="-14" relative="1" as="geometry">
            <mxPoint as="offset" />
          </mxGeometry>
        </mxCell>
        <mxCell id="zemC2-BOqZlxE-PlAdGb-175" style="edgeStyle=orthogonalEdgeStyle;curved=1;rounded=0;orthogonalLoop=1;jettySize=auto;html=1;entryX=0;entryY=0.75;entryDx=0;entryDy=0;strokeColor=#FF0080;strokeWidth=3;" edge="1" parent="1" target="zemC2-BOqZlxE-PlAdGb-165">
          <mxGeometry relative="1" as="geometry">
            <mxPoint x="3420" y="3150" as="targetPoint" />
            <mxPoint x="3320" y="3010" as="sourcePoint" />
            <Array as="points">
              <mxPoint x="3360" y="3010" />
              <mxPoint x="3360" y="3145" />
            </Array>
          </mxGeometry>
        </mxCell>
        <mxCell id="zemC2-BOqZlxE-PlAdGb-176" value="A1&amp;nbsp;&lt;br style=&quot;font-size: 15px;&quot;&gt;赠送课程" style="edgeLabel;html=1;align=center;verticalAlign=middle;resizable=0;points=[];fontSize=15;fontColor=#990000;" vertex="1" connectable="0" parent="zemC2-BOqZlxE-PlAdGb-175">
          <mxGeometry x="-0.6" y="-2" relative="1" as="geometry">
            <mxPoint x="12" y="47" as="offset" />
          </mxGeometry>
        </mxCell>
        <mxCell id="zemC2-BOqZlxE-PlAdGb-177" style="edgeStyle=orthogonalEdgeStyle;curved=1;rounded=0;orthogonalLoop=1;jettySize=auto;html=1;entryX=0;entryY=0.75;entryDx=0;entryDy=0;strokeWidth=3;strokeColor=#66B2FF;" edge="1" parent="1">
          <mxGeometry relative="1" as="geometry">
            <mxPoint x="3460" y="3155" as="targetPoint" />
            <mxPoint x="3140" y="3050" as="sourcePoint" />
            <Array as="points">
              <mxPoint x="3140" y="3155" />
            </Array>
          </mxGeometry>
        </mxCell>
        <mxCell id="zemC2-BOqZlxE-PlAdGb-178" value="2.&lt;br&gt;根据绑定套餐执行订单操作" style="edgeLabel;html=1;align=center;verticalAlign=middle;resizable=0;points=[];fontSize=15;fontColor=#66B2FF;" vertex="1" connectable="0" parent="zemC2-BOqZlxE-PlAdGb-177">
          <mxGeometry x="0.1435" y="12" relative="1" as="geometry">
            <mxPoint x="-18" y="17" as="offset" />
          </mxGeometry>
        </mxCell>
        <mxCell id="zemC2-BOqZlxE-PlAdGb-179" value="兑换码(coupontrans)" style="rounded=1;whiteSpace=wrap;html=1;fillColor=#bac8d3;strokeColor=#23445d;" vertex="1" parent="1">
          <mxGeometry x="3070" y="2990" width="150" height="100" as="geometry" />
        </mxCell>
        <mxCell id="zemC2-BOqZlxE-PlAdGb-180" style="edgeStyle=orthogonalEdgeStyle;curved=1;rounded=0;orthogonalLoop=1;jettySize=auto;html=1;entryX=0.5;entryY=0;entryDx=0;entryDy=0;strokeWidth=3;strokeColor=#66B2FF;" edge="1" parent="1" target="zemC2-BOqZlxE-PlAdGb-179">
          <mxGeometry relative="1" as="geometry">
            <mxPoint x="3340" y="2925" as="targetPoint" />
            <mxPoint x="3110" y="2890" as="sourcePoint" />
            <Array as="points">
              <mxPoint x="3145" y="2890" />
            </Array>
          </mxGeometry>
        </mxCell>
        <mxCell id="zemC2-BOqZlxE-PlAdGb-181" value="&lt;font color=&quot;#66b2ff&quot;&gt;兑换码兑换&lt;/font&gt;" style="edgeLabel;html=1;align=center;verticalAlign=middle;resizable=0;points=[];fontSize=15;fontColor=#990000;" vertex="1" connectable="0" parent="zemC2-BOqZlxE-PlAdGb-180">
          <mxGeometry x="0.1435" y="12" relative="1" as="geometry">
            <mxPoint as="offset" />
          </mxGeometry>
        </mxCell>
        <mxCell id="zemC2-BOqZlxE-PlAdGb-182" value="C1&lt;br&gt;正常课消" style="edgeStyle=orthogonalEdgeStyle;curved=1;orthogonalLoop=1;jettySize=auto;html=1;entryX=1;entryY=0.5;entryDx=0;entryDy=0;strokeColor=#0000FF;strokeWidth=2;fontSize=15;fontColor=#0000CC;" edge="1" parent="1" target="zemC2-BOqZlxE-PlAdGb-168">
          <mxGeometry relative="1" as="geometry">
            <mxPoint x="4360" y="3190" as="sourcePoint" />
          </mxGeometry>
        </mxCell>
        <mxCell id="zemC2-BOqZlxE-PlAdGb-183" value="1. 各个权益拆分成独立部分；不再相互依赖&lt;br&gt;2. 所有操作都是订单纬度， 以订单关联支付 和权益变动；&lt;br&gt;3. 退款支持以订单纬度操作；&lt;br&gt;4. 所有订单都会映射到套餐，套餐内打包各个业务线不同商品； 商品强耦合权益类型和数量(是一个耦合点)；" style="text;html=1;strokeColor=none;fillColor=none;align=left;verticalAlign=middle;whiteSpace=wrap;rounded=0;" vertex="1" parent="1">
          <mxGeometry x="3247.5" y="3460" width="332.5" height="90" as="geometry" />
        </mxCell>
      </root>
    </mxGraphModel>
  </diagram>
</mxfile>
